<?xml version="1.0" encoding="UTF-8"?>
<svg xmlns="http://www.w3.org/2000/svg" width="1536" height="1024" viewBox="0 0 1536 1024">
<defs>
    <radialGradient id="ccBase" cx="50%" cy="50%" r="80%">
      <stop offset="0%" stop-color="#1c2238"/>
      <stop offset="100%" stop-color="#121624"/>
    </radialGradient>
    <radialGradient id="ccCalm" cx="50%" cy="50%" r="36%">
      <stop offset="0%" stop-color="#121624" stop-opacity="0.55"/>
      <stop offset="100%" stop-color="#121624" stop-opacity="0"/>
    </radialGradient>
  </defs>

    <rect width="1536" height="1024" fill="url(#ccBase)"/>
    
    <g opacity="0.55" transform="translate(61.4 0) rotate(-14 768.0 512.0)">
      <rect x="-640" y="-204.8" width="80" height="563.2" fill="#e8d5a8" fill-opacity="0.10"/><rect x="-560" y="-204.8" width="80" height="563.2" fill="#7a1d34" fill-opacity="0.12"/><rect x="-480" y="-204.8" width="80" height="563.2" fill="#e8d5a8" fill-opacity="0.10"/><rect x="-400" y="-204.8" width="80" height="563.2" fill="#7a1d34" fill-opacity="0.12"/><rect x="-320" y="-204.8" width="80" height="563.2" fill="#e8d5a8" fill-opacity="0.10"/><rect x="-240" y="-204.8" width="80" height="563.2" fill="#7a1d34" fill-opacity="0.12"/><rect x="-160" y="-204.8" width="80" height="563.2" fill="#e8d5a8" fill-opacity="0.10"/><rect x="-80" y="-204.8" width="80" height="563.2" fill="#7a1d34" fill-opacity="0.12"/><rect x="0" y="-204.8" width="80" height="563.2" fill="#e8d5a8" fill-opacity="0.10"/><rect x="80" y="-204.8" width="80" height="563.2" fill="#7a1d34" fill-opacity="0.12"/><rect x="160" y="-204.8" width="80" height="563.2" fill="#e8d5a8" fill-opacity="0.10"/><rect x="240" y="-204.8" width="80" height="563.2" fill="#7a1d34" fill-opacity="0.12"/><rect x="320" y="-204.8" width="80" height="563.2" fill="#e8d5a8" fill-opacity="0.10"/><rect x="400" y="-204.8" width="80" height="563.2" fill="#7a1d34" fill-opacity="0.12"/><rect x="480" y="-204.8" width="80" height="563.2" fill="#e8d5a8" fill-opacity="0.10"/><rect x="560" y="-204.8" width="80" height="563.2" fill="#7a1d34" fill-opacity="0.12"/><rect x="640" y="-204.8" width="80" height="563.2" fill="#e8d5a8" fill-opacity="0.10"/><rect x="720" y="-204.8" width="80" height="563.2" fill="#7a1d34" fill-opacity="0.12"/><rect x="800" y="-204.8" width="80" height="563.2" fill="#e8d5a8" fill-opacity="0.10"/><rect x="880" y="-204.8" width="80" height="563.2" fill="#7a1d34" fill-opacity="0.12"/>
    </g>
  
    <rect x="7.2" y="472.5" width="95.2" height="57.0" rx="28.3" fill="#2c3450" fill-opacity="0.47"/><rect x="117.1" y="466.1" width="94.9" height="69.9" rx="34.5" fill="#2c3450" fill-opacity="0.42"/><rect x="225.4" y="466.0" width="97.8" height="70.0" rx="33.6" fill="#2c3450" fill-opacity="0.37"/><rect x="332.6" y="469.5" width="102.8" height="63.0" rx="23.1" fill="#2c3450" fill-opacity="0.46"/><rect x="448.8" y="471.0" width="89.8" height="60.0" rx="19.7" fill="#2c3450" fill-opacity="0.52"/><rect x="559.0" y="467.4" width="88.9" height="67.3" rx="30.0" fill="#2c3450" fill-opacity="0.51"/><rect x="668.1" y="468.7" width="90.1" height="64.7" rx="24.0" fill="#2c3450" fill-opacity="0.51"/><rect x="770.5" y="467.5" width="104.8" height="67.0" rx="33.1" fill="#2c3450" fill-opacity="0.53"/><rect x="881.6" y="466.9" width="102.0" height="68.2" rx="32.5" fill="#525970" fill-opacity="0.51"/><rect x="990.2" y="468.6" width="104.1" height="64.9" rx="23.3" fill="#2c3450" fill-opacity="0.38"/><rect x="1099.8" y="470.4" width="104.5" height="61.3" rx="29.1" fill="#2c3450" fill-opacity="0.39"/><rect x="1210.3" y="464.6" width="102.7" height="72.8" rx="23.5" fill="#2c3450" fill-opacity="0.50"/><rect x="1327.4" y="465.5" width="88.0" height="71.1" rx="23.4" fill="#2c3450" fill-opacity="0.49"/><rect x="1431.6" y="467.4" width="99.0" height="67.2" rx="24.3" fill="#2c3450" fill-opacity="0.37"/><rect x="64.1" y="545.8" width="91.2" height="71.4" rx="34.4" fill="#2c3450" fill-opacity="0.45"/><rect x="169.0" y="549.5" width="100.8" height="64.0" rx="28.8" fill="#2c3450" fill-opacity="0.52"/><rect x="277.2" y="547.2" width="104.0" height="68.6" rx="27.2" fill="#2c3450" fill-opacity="0.38"/><rect x="390.6" y="548.7" width="96.5" height="65.6" rx="28.9" fill="#2c3450" fill-opacity="0.37"/><rect x="504.1" y="545.7" width="89.0" height="71.6" rx="25.3" fill="#2c3450" fill-opacity="0.51"/><rect x="612.1" y="547.2" width="92.3" height="68.6" rx="33.0" fill="#2c3450" fill-opacity="0.49"/><rect x="720.9" y="548.4" width="94.2" height="66.2" rx="26.6" fill="#2c3450" fill-opacity="0.46"/><rect x="827.4" y="547.1" width="100.6" height="68.7" rx="24.4" fill="#2c3450" fill-opacity="0.48"/><rect x="941.4" y="552.2" width="92.1" height="58.6" rx="25.1" fill="#2c3450" fill-opacity="0.47"/><rect x="1045.1" y="551.0" width="104.0" height="61.0" rx="20.5" fill="#2c3450" fill-opacity="0.54"/><rect x="1154.8" y="546.1" width="104.1" height="70.8" rx="32.3" fill="#2c3450" fill-opacity="0.41"/><rect x="1267.7" y="551.2" width="97.7" height="60.7" rx="22.4" fill="#2c3450" fill-opacity="0.43"/><rect x="1378.8" y="547.9" width="94.9" height="67.1" rx="27.4" fill="#525970" fill-opacity="0.46"/><rect x="1491.4" y="548.1" width="89.2" height="66.8" rx="33.2" fill="#2c3450" fill-opacity="0.39"/><rect x="9.1" y="631.3" width="91.6" height="61.4" rx="24.8" fill="#2c3450" fill-opacity="0.40"/><rect x="119.2" y="625.2" width="90.7" height="73.5" rx="24.2" fill="#2c3450" fill-opacity="0.47"/><rect x="231.1" y="630.4" width="86.3" height="63.2" rx="27.3" fill="#2c3450" fill-opacity="0.52"/><rect x="335.1" y="633.5" width="97.8" height="56.8" rx="24.1" fill="#2c3450" fill-opacity="0.51"/><rect x="445.9" y="625.6" width="95.7" height="72.6" rx="33.5" fill="#2c3450" fill-opacity="0.48"/><rect x="559.5" y="633.6" width="87.8" height="56.7" rx="26.4" fill="#2c3450" fill-opacity="0.48"/><rect x="669.6" y="627.4" width="87.0" height="69.0" rx="27.5" fill="#525970" fill-opacity="0.46"/><rect x="779.3" y="625.0" width="87.0" height="73.9" rx="30.4" fill="#2c3450" fill-opacity="0.42"/><rect x="885.8" y="625.6" width="93.5" height="72.7" rx="28.0" fill="#2c3450" fill-opacity="0.52"/><rect x="993.0" y="625.3" width="98.6" height="73.4" rx="28.9" fill="#2c3450" fill-opacity="0.38"/><rect x="1105.5" y="633.6" width="93.0" height="56.7" rx="20.5" fill="#2c3450" fill-opacity="0.46"/><rect x="1211.3" y="630.8" width="100.9" height="62.3" rx="25.7" fill="#525970" fill-opacity="0.46"/><rect x="1328.0" y="633.5" width="86.9" height="57.0" rx="25.9" fill="#2c3450" fill-opacity="0.51"/><rect x="1433.4" y="633.7" width="95.4" height="56.5" rx="23.4" fill="#2c3450" fill-opacity="0.46"/><rect x="65.8" y="710.3" width="87.8" height="64.3" rx="29.0" fill="#2c3450" fill-opacity="0.46"/><rect x="166.8" y="705.5" width="105.3" height="73.9" rx="32.9" fill="#2c3450" fill-opacity="0.49"/><rect x="281.7" y="710.6" width="95.0" height="63.5" rx="20.5" fill="#2c3450" fill-opacity="0.40"/><rect x="392.5" y="710.4" width="92.7" height="64.1" rx="23.7" fill="#2c3450" fill-opacity="0.45"/><rect x="497.8" y="706.0" width="101.5" height="72.8" rx="29.1" fill="#2c3450" fill-opacity="0.44"/><rect x="609.4" y="709.8" width="97.7" height="65.2" rx="28.1" fill="#2c3450" fill-opacity="0.52"/><rect x="717.7" y="705.4" width="100.6" height="74.0" rx="26.6" fill="#2c3450" fill-opacity="0.44"/><rect x="829.5" y="706.8" width="96.5" height="71.1" rx="29.5" fill="#2c3450" fill-opacity="0.40"/><rect x="935.1" y="711.2" width="104.7" height="62.5" rx="28.4" fill="#2c3450" fill-opacity="0.41"/><rect x="1050.7" y="710.8" width="92.9" height="63.1" rx="30.0" fill="#2c3450" fill-opacity="0.51"/><rect x="1161.1" y="705.8" width="91.5" height="73.2" rx="30.9" fill="#2c3450" fill-opacity="0.45"/><rect x="1266.5" y="711.5" width="100.2" height="61.8" rx="19.9" fill="#2c3450" fill-opacity="0.37"/><rect x="1377.5" y="705.9" width="97.6" height="73.1" rx="29.5" fill="#2c3450" fill-opacity="0.48"/><rect x="1484.3" y="707.9" width="103.4" height="68.9" rx="32.1" fill="#2c3450" fill-opacity="0.47"/><rect x="4.0" y="786.8" width="101.8" height="72.0" rx="32.3" fill="#2c3450" fill-opacity="0.54"/><rect x="116.3" y="791.1" width="96.5" height="63.6" rx="23.7" fill="#2c3450" fill-opacity="0.47"/><rect x="222.1" y="790.9" width="104.4" height="64.0" rx="29.1" fill="#2c3450" fill-opacity="0.41"/><rect x="334.2" y="787.5" width="99.5" height="70.6" rx="27.1" fill="#2c3450" fill-opacity="0.39"/><rect x="444.1" y="788.5" width="99.2" height="68.8" rx="27.4" fill="#2c3450" fill-opacity="0.42"/><rect x="551.6" y="786.0" width="103.7" height="73.8" rx="28.3" fill="#2c3450" fill-opacity="0.42"/><rect x="665.0" y="794.1" width="96.2" height="57.4" rx="24.7" fill="#2c3450" fill-opacity="0.48"/><rect x="773.2" y="786.3" width="99.3" height="73.2" rx="23.9" fill="#2c3450" fill-opacity="0.37"/><rect x="883.7" y="791.8" width="97.7" height="62.2" rx="21.5" fill="#2c3450" fill-opacity="0.38"/><rect x="994.9" y="786.9" width="94.8" height="72.0" rx="35.3" fill="#2c3450" fill-opacity="0.52"/><rect x="1099.4" y="791.7" width="105.2" height="62.3" rx="30.7" fill="#2c3450" fill-opacity="0.38"/><rect x="1217.2" y="786.1" width="89.0" height="73.5" rx="31.5" fill="#2c3450" fill-opacity="0.43"/><rect x="1327.8" y="789.2" width="87.2" height="67.3" rx="26.4" fill="#2c3450" fill-opacity="0.47"/><rect x="1434.3" y="788.7" width="93.7" height="68.4" rx="28.5" fill="#2c3450" fill-opacity="0.45"/><rect x="57.9" y="867.6" width="103.7" height="71.4" rx="27.3" fill="#2c3450" fill-opacity="0.36"/><rect x="170.3" y="868.1" width="98.3" height="70.5" rx="25.0" fill="#2c3450" fill-opacity="0.47"/><rect x="277.5" y="868.1" width="103.2" height="70.4" rx="32.1" fill="#2c3450" fill-opacity="0.51"/><rect x="391.3" y="868.4" width="95.2" height="69.8" rx="28.8" fill="#2c3450" fill-opacity="0.51"/><rect x="501.0" y="874.0" width="95.1" height="58.6" rx="22.3" fill="#2c3450" fill-opacity="0.45"/><rect x="613.4" y="871.1" width="89.7" height="64.4" rx="28.3" fill="#525970" fill-opacity="0.39"/><rect x="719.2" y="874.0" width="97.6" height="58.6" rx="23.5" fill="#2c3450" fill-opacity="0.40"/><rect x="831.1" y="868.1" width="93.3" height="70.4" rx="28.5" fill="#2c3450" fill-opacity="0.43"/><rect x="936.5" y="870.2" width="101.8" height="66.2" rx="32.7" fill="#2c3450" fill-opacity="0.52"/><rect x="1052.4" y="873.5" width="89.5" height="59.6" rx="28.3" fill="#2c3450" fill-opacity="0.45"/><rect x="1154.7" y="871.8" width="104.4" height="62.9" rx="27.4" fill="#2c3450" fill-opacity="0.39"/><rect x="1272.0" y="869.1" width="89.2" height="68.4" rx="30.4" fill="#525970" fill-opacity="0.38"/><rect x="1377.3" y="869.5" width="97.9" height="67.6" rx="22.4" fill="#2c3450" fill-opacity="0.46"/><rect x="1488.9" y="869.5" width="94.1" height="67.6" rx="31.6" fill="#2c3450" fill-opacity="0.44"/><rect x="6.3" y="952.5" width="97.0" height="62.6" rx="23.4" fill="#2c3450" fill-opacity="0.43"/><rect x="116.2" y="947.2" width="96.7" height="73.2" rx="32.5" fill="#2c3450" fill-opacity="0.36"/><rect x="230.9" y="951.6" width="86.7" height="64.4" rx="26.0" fill="#2c3450" fill-opacity="0.49"/><rect x="332.7" y="950.0" width="102.7" height="67.6" rx="33.6" fill="#2c3450" fill-opacity="0.53"/><rect x="443.7" y="947.3" width="100.0" height="72.8" rx="29.0" fill="#2c3450" fill-opacity="0.39"/><rect x="554.9" y="946.8" width="97.1" height="73.9" rx="31.8" fill="#2c3450" fill-opacity="0.49"/><rect x="668.9" y="948.4" width="88.4" height="70.8" rx="34.0" fill="#2c3450" fill-opacity="0.45"/><rect x="776.8" y="953.0" width="92.0" height="61.5" rx="26.0" fill="#2c3450" fill-opacity="0.43"/><rect x="880.4" y="950.3" width="104.3" height="67.0" rx="24.4" fill="#2c3450" fill-opacity="0.52"/><rect x="997.6" y="948.5" width="89.4" height="70.5" rx="25.4" fill="#2c3450" fill-opacity="0.40"/><rect x="1100.1" y="947.0" width="103.9" height="73.6" rx="33.4" fill="#2c3450" fill-opacity="0.47"/><rect x="1211.9" y="948.6" width="99.6" height="70.4" rx="24.3" fill="#2c3450" fill-opacity="0.39"/><rect x="1320.6" y="951.8" width="101.7" height="63.9" rx="23.2" fill="#2c3450" fill-opacity="0.50"/><rect x="1437.5" y="947.9" width="87.2" height="71.8" rx="28.2" fill="#2c3450" fill-opacity="0.37"/>
    <rect width="1536" height="1024" fill="url(#ccCalm)"/>
  
</svg>
