<?xml version="1.0" encoding="UTF-8"?>
<svg xmlns="http://www.w3.org/2000/svg" width="1536" height="1024" viewBox="0 0 1536 1024">
<defs>
    <radialGradient id="bmBase" cx="40%" cy="60%" r="80%">
      <stop offset="0%" stop-color="#2f747d"/>
      <stop offset="100%" stop-color="#063238"/>
    </radialGradient>
    <radialGradient id="bmSun" cx="82%" cy="18%" r="22%">
      <stop offset="0%" stop-color="#ffc12a" stop-opacity="0.4"/>
      <stop offset="100%" stop-color="#ffc12a" stop-opacity="0"/>
    </radialGradient>
    <radialGradient id="bmCalm" cx="50%" cy="55%" r="36%">
      <stop offset="0%" stop-color="#063238" stop-opacity="0.55"/>
      <stop offset="100%" stop-color="#063238" stop-opacity="0"/>
    </radialGradient>
  </defs>

    <rect width="1536" height="1024" fill="url(#bmBase)"/>
    <line x1="1259.52" y1="184.32" x2="1499.5" y2="184.3" stroke="#ffc12a" stroke-opacity="0.18" stroke-width="4"/><line x1="1259.52" y1="184.32" x2="1453.7" y2="325.4" stroke="#ffc12a" stroke-opacity="0.18" stroke-width="4"/><line x1="1259.52" y1="184.32" x2="1333.7" y2="412.6" stroke="#ffc12a" stroke-opacity="0.18" stroke-width="4"/><line x1="1259.52" y1="184.32" x2="1185.4" y2="412.6" stroke="#ffc12a" stroke-opacity="0.18" stroke-width="4"/><line x1="1259.52" y1="184.32" x2="1065.4" y2="325.4" stroke="#ffc12a" stroke-opacity="0.18" stroke-width="4"/><line x1="1259.52" y1="184.32" x2="1019.5" y2="184.3" stroke="#ffc12a" stroke-opacity="0.18" stroke-width="4"/><line x1="1259.52" y1="184.32" x2="1065.4" y2="43.3" stroke="#ffc12a" stroke-opacity="0.18" stroke-width="4"/><line x1="1259.52" y1="184.32" x2="1185.4" y2="-43.9" stroke="#ffc12a" stroke-opacity="0.18" stroke-width="4"/><line x1="1259.52" y1="184.32" x2="1333.7" y2="-43.9" stroke="#ffc12a" stroke-opacity="0.18" stroke-width="4"/><line x1="1259.52" y1="184.32" x2="1453.7" y2="43.3" stroke="#ffc12a" stroke-opacity="0.18" stroke-width="4"/>
    <circle cx="1259.52" cy="184.32" r="92" fill="url(#bmSun)"/>
    <polygon points="0.0,563.2 64.0,572.2 128.0,578.8 192.0,581.2 256.0,578.8 320.0,572.2 384.0,563.2 448.0,554.2 512.0,547.6 576.0,545.2 640.0,547.6 704.0,554.2 768.0,563.2 832.0,572.2 896.0,578.8 960.0,581.2 1024.0,578.8 1088.0,572.2 1152.0,563.2 1216.0,554.2 1280.0,547.6 1344.0,545.2 1408.0,547.6 1472.0,554.2 1536.0,563.2 1536,1024 0,1024" fill="#ffc12a" fill-opacity="0.07"/><polygon points="0.0,731.0 64.0,737.5 128.0,738.5 192.0,733.6 256.0,724.3 320.0,712.9 384.0,702.6 448.0,696.1 512.0,695.1 576.0,700.0 640.0,709.3 704.0,720.7 768.0,731.0 832.0,737.5 896.0,738.5 960.0,733.6 1024.0,724.3 1088.0,712.9 1152.0,702.6 1216.0,696.1 1280.0,695.1 1344.0,700.0 1408.0,709.3 1472.0,720.7 1536.0,731.0 1536,1024 0,1024" fill="#ff4a92" fill-opacity="0.09"/><polygon points="0.0,896.0 64.0,894.8 128.0,887.0 192.0,874.8 256.0,861.4 320.0,850.4 384.0,844.8 448.0,846.0 512.0,853.8 576.0,866.0 640.0,879.4 704.0,890.4 768.0,896.0 832.0,894.8 896.0,887.0 960.0,874.8 1024.0,861.4 1088.0,850.4 1152.0,844.8 1216.0,846.0 1280.0,853.8 1344.0,866.0 1408.0,879.4 1472.0,890.4 1536.0,896.0 1536,1024 0,1024" fill="#ffc12a" fill-opacity="0.10"/>
    <circle cx="0.0" cy="0.0" r="8.12" fill="#ff4a92" fill-opacity="0.34"/><circle cx="56.0" cy="0.0" r="6.21" fill="#ff4a92" fill-opacity="0.50"/><circle cx="112.0" cy="0.0" r="7.65" fill="#367982" fill-opacity="0.29"/><circle cx="168.0" cy="0.0" r="9.07" fill="#367982" fill-opacity="0.31"/><circle cx="224.0" cy="0.0" r="7.60" fill="#367982" fill-opacity="0.41"/><circle cx="280.0" cy="0.0" r="8.32" fill="#ffc12a" fill-opacity="0.45"/><circle cx="336.0" cy="0.0" r="8.99" fill="#ffc12a" fill-opacity="0.48"/><circle cx="392.0" cy="0.0" r="6.33" fill="#ff4a92" fill-opacity="0.42"/><circle cx="448.0" cy="0.0" r="7.37" fill="#ffc12a" fill-opacity="0.37"/><circle cx="504.0" cy="0.0" r="7.80" fill="#367982" fill-opacity="0.47"/><circle cx="560.0" cy="0.0" r="6.75" fill="#ffc12a" fill-opacity="0.48"/><circle cx="616.0" cy="0.0" r="7.75" fill="#367982" fill-opacity="0.30"/><circle cx="672.0" cy="0.0" r="8.88" fill="#ffc12a" fill-opacity="0.43"/><circle cx="728.0" cy="0.0" r="7.72" fill="#367982" fill-opacity="0.42"/><circle cx="784.0" cy="0.0" r="8.24" fill="#ffc12a" fill-opacity="0.30"/><circle cx="840.0" cy="0.0" r="6.84" fill="#367982" fill-opacity="0.35"/><circle cx="896.0" cy="0.0" r="6.84" fill="#367982" fill-opacity="0.34"/><circle cx="952.0" cy="0.0" r="7.92" fill="#367982" fill-opacity="0.35"/><circle cx="1008.0" cy="0.0" r="8.62" fill="#ff4a92" fill-opacity="0.45"/><circle cx="1064.0" cy="0.0" r="6.66" fill="#367982" fill-opacity="0.30"/><circle cx="1120.0" cy="0.0" r="8.55" fill="#367982" fill-opacity="0.42"/><circle cx="1176.0" cy="0.0" r="7.66" fill="#367982" fill-opacity="0.33"/><circle cx="1232.0" cy="0.0" r="6.24" fill="#367982" fill-opacity="0.32"/><circle cx="1288.0" cy="0.0" r="8.40" fill="#ff4a92" fill-opacity="0.28"/><circle cx="1344.0" cy="0.0" r="7.15" fill="#367982" fill-opacity="0.38"/><circle cx="1400.0" cy="0.0" r="6.90" fill="#367982" fill-opacity="0.43"/><circle cx="1456.0" cy="0.0" r="7.67" fill="#367982" fill-opacity="0.48"/><circle cx="1512.0" cy="0.0" r="6.45" fill="#367982" fill-opacity="0.40"/><circle cx="1568.0" cy="0.0" r="7.34" fill="#367982" fill-opacity="0.46"/><circle cx="28.0" cy="56.0" r="6.46" fill="#367982" fill-opacity="0.32"/><circle cx="84.0" cy="56.0" r="6.89" fill="#367982" fill-opacity="0.45"/><circle cx="140.0" cy="56.0" r="6.78" fill="#367982" fill-opacity="0.47"/><circle cx="196.0" cy="56.0" r="6.51" fill="#367982" fill-opacity="0.31"/><circle cx="252.0" cy="56.0" r="8.63" fill="#367982" fill-opacity="0.45"/><circle cx="308.0" cy="56.0" r="7.65" fill="#367982" fill-opacity="0.45"/><circle cx="364.0" cy="56.0" r="7.59" fill="#367982" fill-opacity="0.42"/><circle cx="420.0" cy="56.0" r="8.35" fill="#ff4a92" fill-opacity="0.38"/><circle cx="476.0" cy="56.0" r="6.25" fill="#367982" fill-opacity="0.47"/><circle cx="532.0" cy="56.0" r="6.92" fill="#367982" fill-opacity="0.30"/><circle cx="588.0" cy="56.0" r="8.19" fill="#ffc12a" fill-opacity="0.41"/><circle cx="644.0" cy="56.0" r="7.07" fill="#367982" fill-opacity="0.30"/><circle cx="700.0" cy="56.0" r="7.84" fill="#ffc12a" fill-opacity="0.42"/><circle cx="756.0" cy="56.0" r="6.50" fill="#ff4a92" fill-opacity="0.35"/><circle cx="812.0" cy="56.0" r="7.63" fill="#367982" fill-opacity="0.29"/><circle cx="868.0" cy="56.0" r="6.26" fill="#367982" fill-opacity="0.42"/><circle cx="924.0" cy="56.0" r="8.11" fill="#367982" fill-opacity="0.37"/><circle cx="980.0" cy="56.0" r="8.61" fill="#ffc12a" fill-opacity="0.45"/><circle cx="1036.0" cy="56.0" r="7.38" fill="#367982" fill-opacity="0.44"/><circle cx="1092.0" cy="56.0" r="7.68" fill="#367982" fill-opacity="0.35"/><circle cx="1148.0" cy="56.0" r="6.95" fill="#ffc12a" fill-opacity="0.40"/><circle cx="1204.0" cy="56.0" r="7.24" fill="#ff4a92" fill-opacity="0.47"/><circle cx="1260.0" cy="56.0" r="8.17" fill="#367982" fill-opacity="0.30"/><circle cx="1316.0" cy="56.0" r="7.70" fill="#367982" fill-opacity="0.43"/><circle cx="1372.0" cy="56.0" r="7.00" fill="#ff4a92" fill-opacity="0.31"/><circle cx="1428.0" cy="56.0" r="7.34" fill="#367982" fill-opacity="0.46"/><circle cx="1484.0" cy="56.0" r="6.63" fill="#367982" fill-opacity="0.49"/><circle cx="1540.0" cy="56.0" r="6.81" fill="#367982" fill-opacity="0.36"/><circle cx="1596.0" cy="56.0" r="8.87" fill="#367982" fill-opacity="0.32"/><circle cx="0.0" cy="112.0" r="6.90" fill="#ff4a92" fill-opacity="0.34"/><circle cx="56.0" cy="112.0" r="9.10" fill="#367982" fill-opacity="0.33"/><circle cx="112.0" cy="112.0" r="9.02" fill="#367982" fill-opacity="0.35"/><circle cx="168.0" cy="112.0" r="7.83" fill="#367982" fill-opacity="0.39"/><circle cx="224.0" cy="112.0" r="8.20" fill="#367982" fill-opacity="0.31"/><circle cx="280.0" cy="112.0" r="7.73" fill="#367982" fill-opacity="0.38"/><circle cx="336.0" cy="112.0" r="6.49" fill="#ff4a92" fill-opacity="0.29"/><circle cx="392.0" cy="112.0" r="7.35" fill="#367982" fill-opacity="0.41"/><circle cx="448.0" cy="112.0" r="7.81" fill="#ff4a92" fill-opacity="0.29"/><circle cx="504.0" cy="112.0" r="8.46" fill="#367982" fill-opacity="0.33"/><circle cx="560.0" cy="112.0" r="7.72" fill="#ff4a92" fill-opacity="0.35"/><circle cx="616.0" cy="112.0" r="6.76" fill="#367982" fill-opacity="0.38"/><circle cx="672.0" cy="112.0" r="7.84" fill="#367982" fill-opacity="0.49"/><circle cx="728.0" cy="112.0" r="8.86" fill="#367982" fill-opacity="0.30"/><circle cx="784.0" cy="112.0" r="7.37" fill="#367982" fill-opacity="0.43"/><circle cx="840.0" cy="112.0" r="8.01" fill="#367982" fill-opacity="0.46"/><circle cx="896.0" cy="112.0" r="8.77" fill="#ff4a92" fill-opacity="0.44"/><circle cx="952.0" cy="112.0" r="6.64" fill="#ffc12a" fill-opacity="0.46"/><circle cx="1008.0" cy="112.0" r="8.23" fill="#367982" fill-opacity="0.36"/><circle cx="1064.0" cy="112.0" r="7.51" fill="#367982" fill-opacity="0.48"/><circle cx="1120.0" cy="112.0" r="7.78" fill="#367982" fill-opacity="0.45"/><circle cx="1176.0" cy="112.0" r="7.51" fill="#367982" fill-opacity="0.34"/><circle cx="1232.0" cy="112.0" r="7.79" fill="#367982" fill-opacity="0.38"/><circle cx="1288.0" cy="112.0" r="8.35" fill="#ff4a92" fill-opacity="0.32"/><circle cx="1344.0" cy="112.0" r="8.24" fill="#367982" fill-opacity="0.36"/><circle cx="1400.0" cy="112.0" r="8.26" fill="#ff4a92" fill-opacity="0.48"/><circle cx="1456.0" cy="112.0" r="7.17" fill="#ff4a92" fill-opacity="0.28"/><circle cx="1512.0" cy="112.0" r="7.30" fill="#ff4a92" fill-opacity="0.43"/><circle cx="1568.0" cy="112.0" r="8.73" fill="#367982" fill-opacity="0.34"/><circle cx="28.0" cy="168.0" r="7.85" fill="#367982" fill-opacity="0.36"/><circle cx="84.0" cy="168.0" r="7.90" fill="#367982" fill-opacity="0.30"/><circle cx="140.0" cy="168.0" r="7.45" fill="#367982" fill-opacity="0.31"/><circle cx="196.0" cy="168.0" r="8.15" fill="#367982" fill-opacity="0.30"/><circle cx="252.0" cy="168.0" r="7.67" fill="#367982" fill-opacity="0.47"/><circle cx="308.0" cy="168.0" r="7.48" fill="#ff4a92" fill-opacity="0.36"/><circle cx="364.0" cy="168.0" r="7.77" fill="#367982" fill-opacity="0.46"/><circle cx="420.0" cy="168.0" r="6.99" fill="#ffc12a" fill-opacity="0.38"/><circle cx="476.0" cy="168.0" r="6.73" fill="#367982" fill-opacity="0.46"/><circle cx="532.0" cy="168.0" r="7.13" fill="#367982" fill-opacity="0.43"/><circle cx="588.0" cy="168.0" r="6.27" fill="#367982" fill-opacity="0.37"/><circle cx="644.0" cy="168.0" r="6.89" fill="#ffc12a" fill-opacity="0.44"/><circle cx="700.0" cy="168.0" r="6.67" fill="#367982" fill-opacity="0.45"/><circle cx="756.0" cy="168.0" r="8.53" fill="#367982" fill-opacity="0.37"/><circle cx="812.0" cy="168.0" r="8.05" fill="#ffc12a" fill-opacity="0.32"/><circle cx="868.0" cy="168.0" r="6.89" fill="#ffc12a" fill-opacity="0.36"/><circle cx="924.0" cy="168.0" r="7.81" fill="#367982" fill-opacity="0.50"/><circle cx="980.0" cy="168.0" r="7.18" fill="#367982" fill-opacity="0.29"/><circle cx="1036.0" cy="168.0" r="7.57" fill="#ff4a92" fill-opacity="0.38"/><circle cx="1092.0" cy="168.0" r="7.59" fill="#367982" fill-opacity="0.39"/><circle cx="1148.0" cy="168.0" r="8.12" fill="#367982" fill-opacity="0.42"/><circle cx="1204.0" cy="168.0" r="7.87" fill="#367982" fill-opacity="0.32"/><circle cx="1260.0" cy="168.0" r="7.42" fill="#367982" fill-opacity="0.35"/><circle cx="1316.0" cy="168.0" r="6.54" fill="#ffc12a" fill-opacity="0.29"/><circle cx="1372.0" cy="168.0" r="6.42" fill="#367982" fill-opacity="0.38"/><circle cx="1428.0" cy="168.0" r="6.92" fill="#367982" fill-opacity="0.39"/><circle cx="1484.0" cy="168.0" r="6.78" fill="#367982" fill-opacity="0.45"/><circle cx="1540.0" cy="168.0" r="6.62" fill="#367982" fill-opacity="0.42"/><circle cx="1596.0" cy="168.0" r="6.80" fill="#367982" fill-opacity="0.40"/><circle cx="0.0" cy="224.0" r="8.04" fill="#ff4a92" fill-opacity="0.38"/><circle cx="56.0" cy="224.0" r="6.57" fill="#367982" fill-opacity="0.46"/><circle cx="112.0" cy="224.0" r="6.24" fill="#ffc12a" fill-opacity="0.35"/><circle cx="168.0" cy="224.0" r="6.74" fill="#367982" fill-opacity="0.46"/><circle cx="224.0" cy="224.0" r="8.23" fill="#367982" fill-opacity="0.44"/><circle cx="280.0" cy="224.0" r="7.29" fill="#367982" fill-opacity="0.46"/><circle cx="336.0" cy="224.0" r="8.93" fill="#367982" fill-opacity="0.50"/><circle cx="392.0" cy="224.0" r="7.11" fill="#ffc12a" fill-opacity="0.43"/><circle cx="448.0" cy="224.0" r="7.92" fill="#ffc12a" fill-opacity="0.37"/><circle cx="504.0" cy="224.0" r="8.55" fill="#367982" fill-opacity="0.32"/><circle cx="560.0" cy="224.0" r="7.71" fill="#ff4a92" fill-opacity="0.49"/><circle cx="616.0" cy="224.0" r="9.09" fill="#367982" fill-opacity="0.31"/><circle cx="672.0" cy="224.0" r="6.48" fill="#367982" fill-opacity="0.41"/><circle cx="728.0" cy="224.0" r="7.27" fill="#ffc12a" fill-opacity="0.41"/><circle cx="784.0" cy="224.0" r="7.35" fill="#367982" fill-opacity="0.44"/><circle cx="840.0" cy="224.0" r="8.13" fill="#ffc12a" fill-opacity="0.49"/><circle cx="896.0" cy="224.0" r="8.38" fill="#367982" fill-opacity="0.33"/><circle cx="952.0" cy="224.0" r="8.91" fill="#367982" fill-opacity="0.43"/><circle cx="1008.0" cy="224.0" r="6.58" fill="#367982" fill-opacity="0.37"/><circle cx="1064.0" cy="224.0" r="8.11" fill="#367982" fill-opacity="0.48"/><circle cx="1120.0" cy="224.0" r="7.86" fill="#367982" fill-opacity="0.31"/><circle cx="1176.0" cy="224.0" r="7.87" fill="#ff4a92" fill-opacity="0.32"/><circle cx="1232.0" cy="224.0" r="8.73" fill="#ffc12a" fill-opacity="0.42"/><circle cx="1288.0" cy="224.0" r="7.07" fill="#367982" fill-opacity="0.30"/><circle cx="1344.0" cy="224.0" r="7.56" fill="#ff4a92" fill-opacity="0.38"/><circle cx="1400.0" cy="224.0" r="7.17" fill="#ff4a92" fill-opacity="0.28"/><circle cx="1456.0" cy="224.0" r="7.11" fill="#367982" fill-opacity="0.40"/><circle cx="1512.0" cy="224.0" r="7.10" fill="#ffc12a" fill-opacity="0.42"/><circle cx="1568.0" cy="224.0" r="8.18" fill="#ffc12a" fill-opacity="0.46"/><circle cx="28.0" cy="280.0" r="6.95" fill="#ff4a92" fill-opacity="0.49"/><circle cx="84.0" cy="280.0" r="8.17" fill="#367982" fill-opacity="0.40"/><circle cx="140.0" cy="280.0" r="6.56" fill="#367982" fill-opacity="0.31"/><circle cx="196.0" cy="280.0" r="8.76" fill="#ffc12a" fill-opacity="0.37"/><circle cx="252.0" cy="280.0" r="6.49" fill="#ff4a92" fill-opacity="0.33"/><circle cx="308.0" cy="280.0" r="9.00" fill="#367982" fill-opacity="0.28"/><circle cx="364.0" cy="280.0" r="7.74" fill="#367982" fill-opacity="0.42"/><circle cx="420.0" cy="280.0" r="7.68" fill="#367982" fill-opacity="0.42"/><circle cx="476.0" cy="280.0" r="9.09" fill="#367982" fill-opacity="0.39"/><circle cx="532.0" cy="280.0" r="8.91" fill="#ffc12a" fill-opacity="0.43"/><circle cx="588.0" cy="280.0" r="6.42" fill="#367982" fill-opacity="0.41"/><circle cx="644.0" cy="280.0" r="7.89" fill="#367982" fill-opacity="0.49"/><circle cx="700.0" cy="280.0" r="7.60" fill="#367982" fill-opacity="0.40"/><circle cx="756.0" cy="280.0" r="6.82" fill="#ff4a92" fill-opacity="0.35"/><circle cx="812.0" cy="280.0" r="6.43" fill="#367982" fill-opacity="0.31"/><circle cx="868.0" cy="280.0" r="7.53" fill="#ff4a92" fill-opacity="0.29"/><circle cx="924.0" cy="280.0" r="6.98" fill="#367982" fill-opacity="0.50"/><circle cx="980.0" cy="280.0" r="6.80" fill="#ffc12a" fill-opacity="0.47"/><circle cx="1036.0" cy="280.0" r="6.52" fill="#367982" fill-opacity="0.34"/><circle cx="1092.0" cy="280.0" r="6.73" fill="#ffc12a" fill-opacity="0.33"/><circle cx="1148.0" cy="280.0" r="8.30" fill="#367982" fill-opacity="0.46"/><circle cx="1204.0" cy="280.0" r="7.44" fill="#367982" fill-opacity="0.44"/><circle cx="1260.0" cy="280.0" r="6.45" fill="#367982" fill-opacity="0.42"/><circle cx="1316.0" cy="280.0" r="8.87" fill="#367982" fill-opacity="0.39"/><circle cx="1372.0" cy="280.0" r="8.45" fill="#367982" fill-opacity="0.34"/><circle cx="1428.0" cy="280.0" r="8.83" fill="#ff4a92" fill-opacity="0.40"/><circle cx="1484.0" cy="280.0" r="8.15" fill="#ffc12a" fill-opacity="0.45"/><circle cx="1540.0" cy="280.0" r="6.44" fill="#367982" fill-opacity="0.47"/><circle cx="1596.0" cy="280.0" r="6.79" fill="#367982" fill-opacity="0.46"/><circle cx="0.0" cy="336.0" r="8.55" fill="#ff4a92" fill-opacity="0.49"/><circle cx="56.0" cy="336.0" r="8.71" fill="#367982" fill-opacity="0.28"/><circle cx="112.0" cy="336.0" r="7.90" fill="#367982" fill-opacity="0.42"/><circle cx="168.0" cy="336.0" r="8.25" fill="#ffc12a" fill-opacity="0.32"/><circle cx="224.0" cy="336.0" r="7.06" fill="#367982" fill-opacity="0.33"/><circle cx="280.0" cy="336.0" r="6.97" fill="#367982" fill-opacity="0.49"/><circle cx="336.0" cy="336.0" r="7.43" fill="#ffc12a" fill-opacity="0.33"/><circle cx="392.0" cy="336.0" r="7.73" fill="#367982" fill-opacity="0.36"/><circle cx="448.0" cy="336.0" r="7.62" fill="#367982" fill-opacity="0.50"/><circle cx="504.0" cy="336.0" r="6.72" fill="#367982" fill-opacity="0.36"/><circle cx="560.0" cy="336.0" r="8.05" fill="#367982" fill-opacity="0.34"/><circle cx="616.0" cy="336.0" r="6.94" fill="#367982" fill-opacity="0.38"/><circle cx="672.0" cy="336.0" r="8.81" fill="#367982" fill-opacity="0.36"/><circle cx="728.0" cy="336.0" r="7.23" fill="#367982" fill-opacity="0.36"/><circle cx="784.0" cy="336.0" r="7.60" fill="#ff4a92" fill-opacity="0.29"/><circle cx="840.0" cy="336.0" r="8.35" fill="#ff4a92" fill-opacity="0.36"/><circle cx="896.0" cy="336.0" r="6.24" fill="#367982" fill-opacity="0.30"/><circle cx="952.0" cy="336.0" r="7.46" fill="#ff4a92" fill-opacity="0.45"/><circle cx="1008.0" cy="336.0" r="7.32" fill="#367982" fill-opacity="0.48"/><circle cx="1064.0" cy="336.0" r="7.34" fill="#ffc12a" fill-opacity="0.30"/><circle cx="1120.0" cy="336.0" r="8.32" fill="#367982" fill-opacity="0.29"/><circle cx="1176.0" cy="336.0" r="8.79" fill="#ff4a92" fill-opacity="0.42"/><circle cx="1232.0" cy="336.0" r="9.04" fill="#367982" fill-opacity="0.35"/><circle cx="1288.0" cy="336.0" r="6.74" fill="#367982" fill-opacity="0.36"/><circle cx="1344.0" cy="336.0" r="7.05" fill="#ffc12a" fill-opacity="0.32"/><circle cx="1400.0" cy="336.0" r="8.28" fill="#367982" fill-opacity="0.38"/><circle cx="1456.0" cy="336.0" r="6.23" fill="#367982" fill-opacity="0.33"/><circle cx="1512.0" cy="336.0" r="6.21" fill="#ff4a92" fill-opacity="0.35"/><circle cx="1568.0" cy="336.0" r="7.61" fill="#367982" fill-opacity="0.31"/>
    <rect width="1536" height="1024" fill="url(#bmCalm)"/>
  
</svg>
