<?xml version="1.0" encoding="UTF-8"?>
<svg xmlns="http://www.w3.org/2000/svg" width="1536" height="1024" viewBox="0 0 1536 1024">
<defs>
    <radialGradient id="kBase" cx="48%" cy="42%" r="80%">
      <stop offset="0%" stop-color="#ffc5dc"/>
      <stop offset="55%" stop-color="#ffb8d4"/>
      <stop offset="100%" stop-color="#d197ae"/>
    </radialGradient>
    <radialGradient id="kHilite" cx="74%" cy="22%" r="34%">
      <stop offset="0%" stop-color="#ffe2b3" stop-opacity="0.4"/>
      <stop offset="100%" stop-color="#ffd28a" stop-opacity="0"/>
    </radialGradient>
    <radialGradient id="kCalm" cx="50%" cy="55%" r="34%">
      <stop offset="0%" stop-color="#d197ae" stop-opacity="0.45"/>
      <stop offset="100%" stop-color="#d197ae" stop-opacity="0"/>
    </radialGradient>
  </defs>

    <rect width="1536" height="1024" fill="url(#kBase)"/>
    <circle cx="85.3" cy="85.3" r="10.53" fill="#ad7d90" fill-opacity="0.22"/><circle cx="256.0" cy="85.3" r="12.37" fill="#ad7d90" fill-opacity="0.22"/><circle cx="426.7" cy="85.3" r="9.30" fill="#ad7d90" fill-opacity="0.22"/><circle cx="597.3" cy="85.3" r="8.84" fill="#ad7d90" fill-opacity="0.22"/><circle cx="768.0" cy="85.3" r="10.02" fill="#ad7d90" fill-opacity="0.22"/><circle cx="938.7" cy="85.3" r="9.64" fill="#ad7d90" fill-opacity="0.22"/><circle cx="1109.3" cy="85.3" r="12.23" fill="#ad7d90" fill-opacity="0.22"/><circle cx="1280.0" cy="85.3" r="9.64" fill="#ad7d90" fill-opacity="0.22"/><circle cx="1450.7" cy="85.3" r="11.32" fill="#ad7d90" fill-opacity="0.22"/><circle cx="85.3" cy="256.0" r="11.59" fill="#ad7d90" fill-opacity="0.22"/><circle cx="256.0" cy="256.0" r="11.59" fill="#ad7d90" fill-opacity="0.22"/><circle cx="426.7" cy="256.0" r="10.25" fill="#ad7d90" fill-opacity="0.22"/><circle cx="597.3" cy="256.0" r="11.42" fill="#ad7d90" fill-opacity="0.22"/><circle cx="768.0" cy="256.0" r="12.43" fill="#ad7d90" fill-opacity="0.22"/><circle cx="938.7" cy="256.0" r="11.84" fill="#ad7d90" fill-opacity="0.22"/><circle cx="1109.3" cy="256.0" r="11.23" fill="#ad7d90" fill-opacity="0.22"/><circle cx="1280.0" cy="256.0" r="9.05" fill="#ad7d90" fill-opacity="0.22"/><circle cx="1450.7" cy="256.0" r="9.36" fill="#ad7d90" fill-opacity="0.22"/><circle cx="85.3" cy="426.7" r="9.36" fill="#ad7d90" fill-opacity="0.22"/><circle cx="256.0" cy="426.7" r="12.04" fill="#ad7d90" fill-opacity="0.22"/><circle cx="426.7" cy="426.7" r="10.65" fill="#ad7d90" fill-opacity="0.22"/><circle cx="597.3" cy="426.7" r="9.95" fill="#ad7d90" fill-opacity="0.22"/><circle cx="768.0" cy="426.7" r="10.53" fill="#ad7d90" fill-opacity="0.22"/><circle cx="938.7" cy="426.7" r="10.16" fill="#ad7d90" fill-opacity="0.22"/><circle cx="1109.3" cy="426.7" r="12.31" fill="#ad7d90" fill-opacity="0.22"/><circle cx="1280.0" cy="426.7" r="11.34" fill="#ad7d90" fill-opacity="0.22"/><circle cx="1450.7" cy="426.7" r="11.24" fill="#ad7d90" fill-opacity="0.22"/><circle cx="85.3" cy="597.3" r="12.65" fill="#ad7d90" fill-opacity="0.22"/><circle cx="256.0" cy="597.3" r="9.31" fill="#ad7d90" fill-opacity="0.22"/><circle cx="426.7" cy="597.3" r="9.76" fill="#ad7d90" fill-opacity="0.22"/><circle cx="597.3" cy="597.3" r="10.90" fill="#ad7d90" fill-opacity="0.22"/><circle cx="768.0" cy="597.3" r="9.20" fill="#ad7d90" fill-opacity="0.22"/><circle cx="938.7" cy="597.3" r="8.77" fill="#ad7d90" fill-opacity="0.22"/><circle cx="1109.3" cy="597.3" r="11.91" fill="#ad7d90" fill-opacity="0.22"/><circle cx="1280.0" cy="597.3" r="9.64" fill="#ad7d90" fill-opacity="0.22"/><circle cx="1450.7" cy="597.3" r="8.97" fill="#ad7d90" fill-opacity="0.22"/><circle cx="85.3" cy="768.0" r="10.07" fill="#ad7d90" fill-opacity="0.22"/><circle cx="256.0" cy="768.0" r="9.62" fill="#ad7d90" fill-opacity="0.22"/><circle cx="426.7" cy="768.0" r="8.87" fill="#ad7d90" fill-opacity="0.22"/><circle cx="597.3" cy="768.0" r="12.59" fill="#ad7d90" fill-opacity="0.22"/><circle cx="768.0" cy="768.0" r="12.26" fill="#ad7d90" fill-opacity="0.22"/><circle cx="938.7" cy="768.0" r="9.85" fill="#ad7d90" fill-opacity="0.22"/><circle cx="1109.3" cy="768.0" r="9.49" fill="#ad7d90" fill-opacity="0.22"/><circle cx="1280.0" cy="768.0" r="8.87" fill="#ad7d90" fill-opacity="0.22"/><circle cx="1450.7" cy="768.0" r="12.09" fill="#ad7d90" fill-opacity="0.22"/><circle cx="85.3" cy="938.7" r="10.51" fill="#ad7d90" fill-opacity="0.22"/><circle cx="256.0" cy="938.7" r="11.88" fill="#ad7d90" fill-opacity="0.22"/><circle cx="426.7" cy="938.7" r="12.02" fill="#ad7d90" fill-opacity="0.22"/><circle cx="597.3" cy="938.7" r="10.62" fill="#ad7d90" fill-opacity="0.22"/><circle cx="768.0" cy="938.7" r="9.32" fill="#ad7d90" fill-opacity="0.22"/><circle cx="938.7" cy="938.7" r="9.25" fill="#ad7d90" fill-opacity="0.22"/><circle cx="1109.3" cy="938.7" r="11.45" fill="#ad7d90" fill-opacity="0.22"/><circle cx="1280.0" cy="938.7" r="10.90" fill="#ad7d90" fill-opacity="0.22"/><circle cx="1450.7" cy="938.7" r="11.24" fill="#ad7d90" fill-opacity="0.22"/><circle cx="85.3" cy="1109.3" r="9.26" fill="#ad7d90" fill-opacity="0.22"/><circle cx="256.0" cy="1109.3" r="9.14" fill="#ad7d90" fill-opacity="0.22"/><circle cx="426.7" cy="1109.3" r="9.74" fill="#ad7d90" fill-opacity="0.22"/><circle cx="597.3" cy="1109.3" r="9.41" fill="#ad7d90" fill-opacity="0.22"/><circle cx="768.0" cy="1109.3" r="12.68" fill="#ad7d90" fill-opacity="0.22"/><circle cx="938.7" cy="1109.3" r="12.56" fill="#ad7d90" fill-opacity="0.22"/><circle cx="1109.3" cy="1109.3" r="11.84" fill="#ad7d90" fill-opacity="0.22"/><circle cx="1280.0" cy="1109.3" r="9.05" fill="#ad7d90" fill-opacity="0.22"/><circle cx="1450.7" cy="1109.3" r="8.89" fill="#ad7d90" fill-opacity="0.22"/><circle cx="85.3" cy="1280.0" r="11.73" fill="#ad7d90" fill-opacity="0.22"/><circle cx="256.0" cy="1280.0" r="10.09" fill="#ad7d90" fill-opacity="0.22"/><circle cx="426.7" cy="1280.0" r="9.92" fill="#ad7d90" fill-opacity="0.22"/><circle cx="597.3" cy="1280.0" r="9.23" fill="#ad7d90" fill-opacity="0.22"/><circle cx="768.0" cy="1280.0" r="9.17" fill="#ad7d90" fill-opacity="0.22"/><circle cx="938.7" cy="1280.0" r="8.86" fill="#ad7d90" fill-opacity="0.22"/><circle cx="1109.3" cy="1280.0" r="10.56" fill="#ad7d90" fill-opacity="0.22"/><circle cx="1280.0" cy="1280.0" r="12.65" fill="#ad7d90" fill-opacity="0.22"/><circle cx="1450.7" cy="1280.0" r="8.94" fill="#ad7d90" fill-opacity="0.22"/>
    <path d="M133.1,262.3 Q129.7,281.8 118.6,278.8 Q114.3,268.1 133.1,262.3 Z M133.1,262.3 Q113.6,265.1 113.0,253.6 Q121.8,246.2 133.1,262.3 Z M133.1,262.3 Q124.4,244.6 135.2,240.5 Q145.0,246.5 133.1,262.3 Z M133.1,262.3 Q147.3,248.6 154.5,257.5 Q151.8,268.7 133.1,262.3 Z M133.1,262.3 Q150.6,271.6 144.3,281.2 Q132.8,282.0 133.1,262.3 Z" fill="#ff7aa8" fill-opacity="0.32"/><circle cx="133.1" cy="262.3" r="3.9" fill="#ffd28a" fill-opacity="0.29"/><path d="M1334.6,149.7 Q1351.9,159.8 1345.1,169.3 Q1333.5,169.7 1334.6,149.7 Z M1334.6,149.7 Q1330.4,169.3 1319.2,165.9 Q1315.2,154.9 1334.6,149.7 Z M1334.6,149.7 Q1314.6,151.8 1314.5,140.1 Q1323.7,132.9 1334.6,149.7 Z M1334.6,149.7 Q1326.4,131.5 1337.5,127.7 Q1347.2,134.2 1334.6,149.7 Z M1334.6,149.7 Q1349.4,136.4 1356.4,145.7 Q1353.2,156.9 1334.6,149.7 Z" fill="#ff7aa8" fill-opacity="0.29"/><circle cx="1334.6" cy="149.7" r="4.0" fill="#ffd28a" fill-opacity="0.26"/><path d="M156.9,883.7 Q155.2,863.5 166.9,863.6 Q174.0,873.0 156.9,883.7 Z M156.9,883.7 Q175.5,875.8 179.0,887.1 Q172.3,896.7 156.9,883.7 Z M156.9,883.7 Q170.0,898.9 160.5,905.8 Q149.2,902.3 156.9,883.7 Z M156.9,883.7 Q146.4,900.9 136.9,893.9 Q136.7,882.2 156.9,883.7 Z M156.9,883.7 Q137.2,879.0 140.9,867.9 Q152.1,864.1 156.9,883.7 Z" fill="#ff7aa8" fill-opacity="0.23"/><circle cx="156.9" cy="883.7" r="4.0" fill="#ffd28a" fill-opacity="0.21"/><path d="M1303.4,768.1 Q1285.2,790.3 1273.4,778.5 Q1275.5,762.0 1303.4,768.1 Z M1303.4,768.1 Q1276.8,757.7 1284.3,742.7 Q1300.7,739.6 1303.4,768.1 Z M1303.4,768.1 Q1305.1,739.5 1321.7,742.1 Q1329.7,756.7 1303.4,768.1 Z M1303.4,768.1 Q1331.1,760.9 1333.9,777.4 Q1322.4,789.6 1303.4,768.1 Z M1303.4,768.1 Q1318.8,792.3 1304.0,799.9 Q1288.9,792.8 1303.4,768.1 Z" fill="#ff7aa8" fill-opacity="0.26"/><circle cx="1303.4" cy="768.1" r="5.7" fill="#ffd28a" fill-opacity="0.23"/><path d="M79.8,190.7 Q71.9,207.4 62.6,202.0 Q61.3,191.2 79.8,190.7 Z M79.8,190.7 Q61.4,188.4 63.8,177.8 Q73.6,173.3 79.8,190.7 Z M79.8,190.7 Q76.3,172.5 87.1,171.5 Q94.4,179.4 79.8,190.7 Z M79.8,190.7 Q96.0,181.8 100.3,191.7 Q95.1,201.1 79.8,190.7 Z M79.8,190.7 Q93.3,203.4 85.2,210.5 Q74.6,208.4 79.8,190.7 Z" fill="#ff7aa8" fill-opacity="0.23"/><circle cx="79.8" cy="190.7" r="3.7" fill="#ffd28a" fill-opacity="0.21"/><path d="M1140.5,243.9 Q1136.3,226.7 1146.6,225.2 Q1154.0,232.4 1140.5,243.9 Z M1140.5,243.9 Q1155.6,234.7 1160.2,243.9 Q1155.6,253.2 1140.5,243.9 Z M1140.5,243.9 Q1154.0,255.4 1146.6,262.6 Q1136.4,261.1 1140.5,243.9 Z M1140.5,243.9 Q1133.7,260.3 1124.6,255.5 Q1122.8,245.3 1140.5,243.9 Z M1140.5,243.9 Q1122.8,242.6 1124.6,232.4 Q1133.7,227.6 1140.5,243.9 Z" fill="#ff7aa8" fill-opacity="0.16"/><circle cx="1140.5" cy="243.9" r="3.5" fill="#ffd28a" fill-opacity="0.14"/><path d="M449.5,786.1 Q431.8,793.4 428.5,782.7 Q435.1,773.6 449.5,786.1 Z M449.5,786.1 Q437.2,771.5 446.3,765.1 Q457.0,768.5 449.5,786.1 Z M449.5,786.1 Q459.6,769.9 468.6,776.6 Q468.6,787.8 449.5,786.1 Z M449.5,786.1 Q468.1,790.7 464.5,801.3 Q453.9,804.8 449.5,786.1 Z M449.5,786.1 Q450.9,805.2 439.7,805.0 Q433.1,796.0 449.5,786.1 Z" fill="#ff7aa8" fill-opacity="0.28"/><circle cx="449.5" cy="786.1" r="3.8" fill="#ffd28a" fill-opacity="0.26"/><path d="M1524.4,987.8 Q1514.4,1002.4 1506.5,995.8 Q1506.9,985.5 1524.4,987.8 Z M1524.4,987.8 Q1507.5,982.8 1511.3,973.2 Q1521.2,970.5 1524.4,987.8 Z M1524.4,987.8 Q1524.0,970.2 1534.2,970.9 Q1539.9,979.4 1524.4,987.8 Z M1524.4,987.8 Q1541.0,982.0 1543.6,991.9 Q1537.2,1000.0 1524.4,987.8 Z M1524.4,987.8 Q1535.1,1001.9 1526.4,1007.3 Q1516.8,1003.8 1524.4,987.8 Z" fill="#ff7aa8" fill-opacity="0.18"/><circle cx="1524.4" cy="987.8" r="3.5" fill="#ffd28a" fill-opacity="0.16"/><path d="M275.0,110.8 Q253.9,115.1 252.5,102.6 Q261.6,93.9 275.0,110.8 Z M275.0,110.8 Q264.4,92.0 275.8,86.9 Q286.9,92.8 275.0,110.8 Z M275.0,110.8 Q289.5,94.9 298.0,104.2 Q295.7,116.5 275.0,110.8 Z M275.0,110.8 Q294.6,119.7 288.4,130.6 Q275.9,132.3 275.0,110.8 Z M275.0,110.8 Q272.5,132.2 260.2,129.7 Q254.8,118.3 275.0,110.8 Z" fill="#ff7aa8" fill-opacity="0.34"/><circle cx="275.0" cy="110.8" r="4.3" fill="#ffd28a" fill-opacity="0.30"/><path d="M1269.5,243.0 Q1251.6,274.1 1234.5,262.1 Q1233.7,241.2 1269.5,243.0 Z M1269.5,243.0 Q1234.4,235.6 1240.6,215.6 Q1260.2,208.4 1269.5,243.0 Z M1269.5,243.0 Q1265.7,207.4 1286.6,207.0 Q1299.6,223.5 1269.5,243.0 Z M1269.5,243.0 Q1302.3,228.4 1309.0,248.2 Q1297.4,265.6 1269.5,243.0 Z M1269.5,243.0 Q1293.5,269.7 1276.8,282.2 Q1256.7,276.5 1269.5,243.0 Z" fill="#ff7aa8" fill-opacity="0.19"/><circle cx="1269.5" cy="243.0" r="7.2" fill="#ffd28a" fill-opacity="0.17"/><path d="M251.2,775.6 Q287.2,786.9 278.7,807.2 Q257.4,812.8 251.2,775.6 Z M251.2,775.6 Q251.6,813.3 229.6,811.5 Q217.8,793.0 251.2,775.6 Z M251.2,775.6 Q215.5,787.6 210.4,766.2 Q224.3,749.1 251.2,775.6 Z M251.2,775.6 Q228.8,745.3 247.6,733.8 Q268.1,741.8 251.2,775.6 Z M251.2,775.6 Q273.1,744.9 289.8,759.2 Q288.5,781.2 251.2,775.6 Z" fill="#ff7aa8" fill-opacity="0.19"/><circle cx="251.2" cy="775.6" r="7.5" fill="#ffd28a" fill-opacity="0.17"/><path d="M1523.3,729.4 Q1542.8,721.2 1546.5,733.0 Q1539.4,743.0 1523.3,729.4 Z M1523.3,729.4 Q1537.1,745.4 1527.1,752.5 Q1515.3,748.9 1523.3,729.4 Z M1523.3,729.4 Q1512.3,747.4 1502.4,740.1 Q1502.2,727.8 1523.3,729.4 Z M1523.3,729.4 Q1502.8,724.5 1506.7,712.8 Q1518.3,708.8 1523.3,729.4 Z M1523.3,729.4 Q1521.6,708.3 1533.9,708.4 Q1541.3,718.3 1523.3,729.4 Z" fill="#ff7aa8" fill-opacity="0.24"/><circle cx="1523.3" cy="729.4" r="4.2" fill="#ffd28a" fill-opacity="0.22"/>
    <rect width="1536" height="1024" fill="url(#kHilite)"/>
    <rect width="1536" height="1024" fill="url(#kCalm)"/>
  
</svg>
