<?xml version="1.0" encoding="UTF-8"?>
<svg xmlns="http://www.w3.org/2000/svg" width="1536" height="1024" viewBox="0 0 1536 1024">
<defs>
    <radialGradient id="ccBase" cx="50%" cy="50%" r="80%">
      <stop offset="0%" stop-color="#1c2238"/>
      <stop offset="100%" stop-color="#121624"/>
    </radialGradient>
  </defs>

    <rect width="1536" height="1024" fill="url(#ccBase)"/>
    <rect x="4.6" y="9.3" width="60.6" height="45.4" rx="22.5" fill="#2c3450" fill-opacity="0.75"/><rect x="74.5" y="4.2" width="60.4" height="55.6" rx="27.4" fill="#2c3450" fill-opacity="0.68"/><rect x="143.4" y="4.2" width="62.2" height="55.7" rx="26.7" fill="#2c3450" fill-opacity="0.62"/><rect x="211.7" y="6.9" width="65.4" height="50.1" rx="18.4" fill="#2c3450" fill-opacity="0.74"/><rect x="285.6" y="8.1" width="57.2" height="47.7" rx="15.7" fill="#2c3450" fill-opacity="0.82"/><rect x="355.7" y="5.2" width="56.6" height="53.6" rx="23.9" fill="#2c3450" fill-opacity="0.81"/><rect x="425.1" y="6.3" width="57.4" height="51.5" rx="19.1" fill="#2c3450" fill-opacity="0.81"/><rect x="490.3" y="5.4" width="66.7" height="53.3" rx="26.3" fill="#2c3450" fill-opacity="0.84"/><rect x="561.0" y="4.9" width="64.9" height="54.3" rx="25.8" fill="#525970" fill-opacity="0.81"/><rect x="630.1" y="6.2" width="66.3" height="51.6" rx="18.6" fill="#2c3450" fill-opacity="0.63"/><rect x="699.9" y="7.6" width="66.5" height="48.8" rx="23.1" fill="#2c3450" fill-opacity="0.64"/><rect x="770.2" y="3.1" width="65.4" height="57.9" rx="18.7" fill="#2c3450" fill-opacity="0.79"/><rect x="844.7" y="3.7" width="56.0" height="56.5" rx="18.4" fill="#2c3450" fill-opacity="0.78"/><rect x="911.0" y="5.3" width="63.0" height="53.4" rx="19.3" fill="#2c3450" fill-opacity="0.62"/><rect x="983.3" y="3.6" width="58.1" height="56.8" rx="27.4" fill="#2c3450" fill-opacity="0.73"/><rect x="1050.1" y="6.5" width="64.1" height="50.9" rx="22.9" fill="#2c3450" fill-opacity="0.82"/><rect x="1118.9" y="4.7" width="66.2" height="54.6" rx="21.6" fill="#2c3450" fill-opacity="0.63"/><rect x="1191.1" y="5.9" width="61.4" height="52.2" rx="23.0" fill="#2c3450" fill-opacity="0.61"/><rect x="1263.3" y="3.5" width="56.6" height="56.9" rx="20.0" fill="#2c3450" fill-opacity="0.81"/><rect x="1332.1" y="4.7" width="58.8" height="54.6" rx="26.2" fill="#2c3450" fill-opacity="0.79"/><rect x="1401.3" y="5.7" width="59.9" height="52.7" rx="21.1" fill="#2c3450" fill-opacity="0.74"/><rect x="1469.1" y="4.7" width="64.0" height="54.6" rx="19.4" fill="#2c3450" fill-opacity="0.77"/><rect x="40.5" y="72.7" width="58.6" height="46.6" rx="19.9" fill="#2c3450" fill-opacity="0.75"/><rect x="106.5" y="71.7" width="66.2" height="48.5" rx="16.3" fill="#2c3450" fill-opacity="0.84"/><rect x="176.3" y="67.9" width="66.3" height="56.3" rx="25.7" fill="#2c3450" fill-opacity="0.67"/><rect x="248.2" y="71.9" width="62.2" height="48.3" rx="17.8" fill="#2c3450" fill-opacity="0.70"/><rect x="318.9" y="69.3" width="60.4" height="53.4" rx="21.8" fill="#525970" fill-opacity="0.74"/><rect x="390.5" y="69.4" width="56.8" height="53.1" rx="26.4" fill="#2c3450" fill-opacity="0.64"/><rect x="459.6" y="71.6" width="58.3" height="48.8" rx="19.7" fill="#2c3450" fill-opacity="0.66"/><rect x="529.7" y="66.8" width="57.7" height="58.5" rx="19.0" fill="#2c3450" fill-opacity="0.75"/><rect x="600.9" y="70.9" width="54.9" height="50.2" rx="21.7" fill="#2c3450" fill-opacity="0.82"/><rect x="667.1" y="73.4" width="62.2" height="45.2" rx="19.2" fill="#2c3450" fill-opacity="0.81"/><rect x="737.6" y="67.1" width="60.9" height="57.8" rx="26.6" fill="#2c3450" fill-opacity="0.77"/><rect x="809.9" y="73.4" width="55.9" height="45.1" rx="21.0" fill="#2c3450" fill-opacity="0.77"/><rect x="879.9" y="68.5" width="55.4" height="54.9" rx="21.8" fill="#525970" fill-opacity="0.74"/><rect x="949.8" y="66.6" width="55.4" height="58.8" rx="22.8" fill="#2c3450" fill-opacity="0.68"/><rect x="1017.5" y="67.1" width="59.5" height="57.8" rx="22.3" fill="#2c3450" fill-opacity="0.82"/><rect x="1085.7" y="66.8" width="62.7" height="58.4" rx="23.0" fill="#2c3450" fill-opacity="0.63"/><rect x="1157.3" y="73.5" width="59.2" height="45.1" rx="16.3" fill="#2c3450" fill-opacity="0.73"/><rect x="1224.6" y="71.2" width="64.2" height="49.6" rx="20.5" fill="#525970" fill-opacity="0.74"/><rect x="1298.9" y="73.3" width="55.3" height="45.3" rx="20.6" fill="#2c3450" fill-opacity="0.81"/><rect x="1366.0" y="73.5" width="60.7" height="44.9" rx="18.6" fill="#2c3450" fill-opacity="0.74"/><rect x="1438.3" y="70.4" width="55.9" height="51.1" rx="23.0" fill="#2c3450" fill-opacity="0.74"/><rect x="1502.5" y="66.6" width="67.0" height="58.8" rx="26.1" fill="#2c3450" fill-opacity="0.78"/><rect x="4.7" y="134.7" width="60.4" height="50.5" rx="16.3" fill="#2c3450" fill-opacity="0.65"/><rect x="75.2" y="134.5" width="59.0" height="51.0" rx="18.8" fill="#2c3450" fill-opacity="0.72"/><rect x="142.3" y="131.0" width="64.6" height="57.9" rx="23.2" fill="#2c3450" fill-opacity="0.71"/><rect x="213.3" y="134.1" width="62.2" height="51.8" rx="22.4" fill="#2c3450" fill-opacity="0.82"/><rect x="282.2" y="130.6" width="64.0" height="58.8" rx="21.1" fill="#2c3450" fill-opacity="0.71"/><rect x="353.3" y="131.7" width="61.4" height="56.6" rx="23.4" fill="#2c3450" fill-opacity="0.65"/><rect x="420.5" y="135.2" width="66.7" height="49.7" rx="22.6" fill="#2c3450" fill-opacity="0.67"/><rect x="494.1" y="134.9" width="59.1" height="50.2" rx="23.9" fill="#2c3450" fill-opacity="0.81"/><rect x="564.4" y="130.9" width="58.2" height="58.2" rx="24.6" fill="#2c3450" fill-opacity="0.73"/><rect x="631.4" y="135.4" width="63.7" height="49.2" rx="15.8" fill="#2c3450" fill-opacity="0.61"/><rect x="702.0" y="130.9" width="62.1" height="58.1" rx="23.4" fill="#2c3450" fill-opacity="0.76"/><rect x="770.0" y="132.6" width="65.8" height="54.8" rx="25.5" fill="#2c3450" fill-opacity="0.75"/><rect x="840.3" y="131.4" width="64.8" height="57.3" rx="25.7" fill="#2c3450" fill-opacity="0.84"/><rect x="911.8" y="134.7" width="61.4" height="50.6" rx="18.9" fill="#2c3450" fill-opacity="0.75"/><rect x="979.2" y="134.6" width="66.4" height="50.9" rx="23.2" fill="#2c3450" fill-opacity="0.67"/><rect x="1050.5" y="131.9" width="63.3" height="56.2" rx="21.5" fill="#2c3450" fill-opacity="0.64"/><rect x="1120.4" y="132.7" width="63.1" height="54.7" rx="21.8" fill="#2c3450" fill-opacity="0.68"/><rect x="1188.8" y="130.7" width="66.0" height="58.7" rx="22.5" fill="#2c3450" fill-opacity="0.69"/><rect x="1261.0" y="137.2" width="61.2" height="45.7" rx="19.6" fill="#2c3450" fill-opacity="0.77"/><rect x="1329.9" y="130.9" width="63.2" height="58.2" rx="19.0" fill="#2c3450" fill-opacity="0.62"/><rect x="1400.2" y="135.3" width="62.2" height="49.5" rx="17.1" fill="#2c3450" fill-opacity="0.63"/><rect x="1470.9" y="131.4" width="60.3" height="57.3" rx="28.1" fill="#2c3450" fill-opacity="0.82"/><rect x="36.4" y="199.2" width="66.9" height="49.5" rx="24.4" fill="#2c3450" fill-opacity="0.63"/><rect x="111.3" y="194.8" width="56.6" height="58.5" rx="24.3" fill="#2c3450" fill-opacity="0.70"/><rect x="181.7" y="197.2" width="55.5" height="53.5" rx="21.0" fill="#2c3450" fill-opacity="0.75"/><rect x="249.5" y="196.8" width="59.6" height="54.4" rx="22.7" fill="#2c3450" fill-opacity="0.72"/><rect x="316.1" y="195.6" width="66.0" height="56.8" rx="21.7" fill="#2c3450" fill-opacity="0.60"/><rect x="387.6" y="196.0" width="62.5" height="56.1" rx="19.9" fill="#2c3450" fill-opacity="0.75"/><rect x="455.9" y="196.0" width="65.7" height="56.0" rx="25.6" fill="#2c3450" fill-opacity="0.81"/><rect x="528.3" y="196.2" width="60.6" height="55.5" rx="22.9" fill="#2c3450" fill-opacity="0.81"/><rect x="598.1" y="200.7" width="60.5" height="46.6" rx="17.8" fill="#2c3450" fill-opacity="0.73"/><rect x="669.6" y="198.4" width="57.1" height="51.3" rx="22.5" fill="#525970" fill-opacity="0.64"/><rect x="736.9" y="200.7" width="62.1" height="46.6" rx="18.7" fill="#2c3450" fill-opacity="0.66"/><rect x="808.1" y="196.0" width="59.4" height="56.0" rx="22.6" fill="#2c3450" fill-opacity="0.69"/><rect x="875.3" y="197.7" width="64.8" height="52.7" rx="26.0" fill="#2c3450" fill-opacity="0.83"/><rect x="949.0" y="200.3" width="56.9" height="47.4" rx="22.5" fill="#2c3450" fill-opacity="0.73"/><rect x="1014.1" y="199.0" width="66.4" height="50.1" rx="21.8" fill="#2c3450" fill-opacity="0.64"/><rect x="1088.7" y="196.8" width="56.8" height="54.4" rx="24.2" fill="#525970" fill-opacity="0.63"/><rect x="1155.7" y="197.1" width="62.3" height="53.8" rx="17.8" fill="#2c3450" fill-opacity="0.74"/><rect x="1226.8" y="197.1" width="59.9" height="53.8" rx="25.2" fill="#2c3450" fill-opacity="0.71"/><rect x="1295.7" y="199.1" width="61.7" height="49.8" rx="18.6" fill="#2c3450" fill-opacity="0.70"/><rect x="1365.6" y="194.9" width="61.5" height="58.2" rx="25.8" fill="#2c3450" fill-opacity="0.61"/><rect x="1438.6" y="198.4" width="55.2" height="51.2" rx="20.7" fill="#2c3450" fill-opacity="0.78"/><rect x="1503.3" y="197.1" width="65.3" height="53.8" rx="26.7" fill="#2c3450" fill-opacity="0.84"/><rect x="3.1" y="259.0" width="63.7" height="57.9" rx="23.1" fill="#2c3450" fill-opacity="0.64"/><rect x="73.8" y="258.6" width="61.8" height="58.8" rx="25.3" fill="#2c3450" fill-opacity="0.77"/><rect x="146.4" y="259.8" width="56.2" height="56.3" rx="27.0" fill="#2c3450" fill-opacity="0.73"/><rect x="215.1" y="263.5" width="58.6" height="48.9" rx="20.7" fill="#2c3450" fill-opacity="0.70"/><rect x="281.0" y="261.3" width="66.4" height="53.3" rx="19.4" fill="#2c3450" fill-opacity="0.82"/><rect x="355.5" y="260.0" width="56.9" height="56.1" rx="20.2" fill="#2c3450" fill-opacity="0.66"/><rect x="420.8" y="258.7" width="66.1" height="58.5" rx="26.6" fill="#2c3450" fill-opacity="0.75"/><rect x="491.9" y="260.0" width="63.4" height="56.0" rx="19.3" fill="#2c3450" fill-opacity="0.64"/><rect x="561.1" y="262.6" width="64.7" height="50.8" rx="18.5" fill="#2c3450" fill-opacity="0.80"/><rect x="635.5" y="259.5" width="55.5" height="57.1" rx="21.9" fill="#2c3450" fill-opacity="0.61"/><rect x="705.2" y="258.6" width="55.7" height="58.7" rx="21.5" fill="#2c3450" fill-opacity="0.73"/><rect x="772.0" y="264.0" width="61.7" height="48.0" rx="18.0" fill="#2c3450" fill-opacity="0.64"/><rect x="843.3" y="263.8" width="58.8" height="48.3" rx="22.9" fill="#2c3450" fill-opacity="0.76"/><rect x="912.2" y="265.4" width="60.7" height="45.1" rx="17.3" fill="#2c3450" fill-opacity="0.63"/><rect x="979.3" y="264.7" width="66.1" height="46.7" rx="15.7" fill="#2c3450" fill-opacity="0.82"/><rect x="1049.6" y="265.1" width="65.2" height="45.9" rx="20.8" fill="#2c3450" fill-opacity="0.79"/><rect x="1119.1" y="265.6" width="65.8" height="44.8" rx="20.8" fill="#2c3450" fill-opacity="0.85"/><rect x="1194.3" y="258.6" width="55.0" height="58.8" rx="24.5" fill="#2c3450" fill-opacity="0.81"/><rect x="1260.9" y="260.8" width="61.6" height="54.4" rx="23.3" fill="#2c3450" fill-opacity="0.75"/><rect x="1330.2" y="261.4" width="62.5" height="53.1" rx="22.8" fill="#2c3450" fill-opacity="0.83"/><rect x="1399.9" y="263.3" width="62.8" height="49.4" rx="17.6" fill="#2c3450" fill-opacity="0.70"/><rect x="1468.6" y="259.3" width="65.0" height="57.4" rx="23.2" fill="#2c3450" fill-opacity="0.71"/><rect x="38.8" y="328.3" width="62.0" height="47.4" rx="18.6" fill="#2c3450" fill-opacity="0.79"/><rect x="107.7" y="323.4" width="63.9" height="57.2" rx="19.8" fill="#2c3450" fill-opacity="0.73"/><rect x="176.9" y="327.9" width="65.1" height="48.3" rx="20.0" fill="#2c3450" fill-opacity="0.65"/><rect x="249.3" y="324.4" width="59.9" height="55.2" rx="20.0" fill="#2c3450" fill-opacity="0.82"/><rect x="315.8" y="327.6" width="66.6" height="48.9" rx="18.4" fill="#2c3450" fill-opacity="0.68"/><rect x="390.3" y="325.5" width="57.2" height="53.0" rx="18.2" fill="#525970" fill-opacity="0.76"/><rect x="459.6" y="324.4" width="58.2" height="55.1" rx="25.4" fill="#2c3450" fill-opacity="0.74"/><rect x="531.2" y="328.5" width="54.8" height="46.9" rx="19.3" fill="#525970" fill-opacity="0.80"/><rect x="597.6" y="328.1" width="61.5" height="47.8" rx="17.6" fill="#2c3450" fill-opacity="0.75"/><rect x="668.2" y="323.5" width="60.0" height="57.0" rx="26.6" fill="#2c3450" fill-opacity="0.64"/><rect x="740.2" y="329.3" width="55.5" height="45.4" rx="16.6" fill="#2c3450" fill-opacity="0.71"/><rect x="809.7" y="323.7" width="56.2" height="56.6" rx="22.1" fill="#2c3450" fill-opacity="0.84"/><rect x="879.1" y="325.4" width="57.1" height="53.2" rx="23.8" fill="#2c3450" fill-opacity="0.67"/><rect x="947.0" y="324.2" width="61.0" height="55.6" rx="20.3" fill="#2c3450" fill-opacity="0.81"/><rect x="1017.2" y="324.4" width="60.2" height="55.2" rx="19.9" fill="#2c3450" fill-opacity="0.76"/><rect x="1087.6" y="324.2" width="59.0" height="55.5" rx="18.2" fill="#2c3450" fill-opacity="0.69"/><rect x="1154.7" y="322.9" width="64.5" height="58.3" rx="22.2" fill="#2c3450" fill-opacity="0.83"/><rect x="1224.9" y="323.9" width="63.6" height="56.2" rx="22.0" fill="#2c3450" fill-opacity="0.81"/><rect x="1293.5" y="324.1" width="66.1" height="55.8" rx="20.7" fill="#2c3450" fill-opacity="0.75"/><rect x="1366.1" y="322.8" width="60.4" height="58.4" rx="29.1" fill="#2c3450" fill-opacity="0.79"/><rect x="1435.8" y="325.7" width="60.8" height="52.6" rx="17.3" fill="#2c3450" fill-opacity="0.71"/><rect x="1507.4" y="327.5" width="57.2" height="49.0" rx="20.0" fill="#2c3450" fill-opacity="0.69"/><rect x="2.6" y="389.2" width="64.6" height="53.6" rx="23.4" fill="#2c3450" fill-opacity="0.73"/><rect x="76.5" y="393.1" width="56.4" height="45.8" rx="19.2" fill="#2c3450" fill-opacity="0.76"/><rect x="141.7" y="393.5" width="65.7" height="45.0" rx="20.5" fill="#2c3450" fill-opacity="0.82"/><rect x="214.5" y="389.7" width="59.7" height="52.6" rx="19.8" fill="#2c3450" fill-opacity="0.66"/><rect x="285.2" y="390.5" width="57.9" height="51.0" rx="22.6" fill="#2c3450" fill-opacity="0.67"/><rect x="354.2" y="389.9" width="59.7" height="52.2" rx="21.7" fill="#2c3450" fill-opacity="0.67"/><rect x="421.2" y="390.1" width="65.2" height="51.9" rx="23.5" fill="#2c3450" fill-opacity="0.62"/><rect x="494.4" y="390.2" width="58.5" height="51.5" rx="21.0" fill="#2c3450" fill-opacity="0.83"/><rect x="561.5" y="391.1" width="63.8" height="49.8" rx="23.3" fill="#2c3450" fill-opacity="0.75"/><rect x="632.0" y="391.3" width="62.5" height="49.4" rx="22.8" fill="#525970" fill-opacity="0.80"/><rect x="701.2" y="390.0" width="63.8" height="52.1" rx="21.1" fill="#525970" fill-opacity="0.73"/><rect x="771.8" y="387.0" width="62.1" height="57.9" rx="24.8" fill="#2c3450" fill-opacity="0.80"/><rect x="840.3" y="391.1" width="64.9" height="49.9" rx="20.6" fill="#2c3450" fill-opacity="0.79"/><rect x="913.4" y="386.9" width="58.3" height="58.1" rx="28.0" fill="#2c3450" fill-opacity="0.64"/><rect x="982.7" y="389.1" width="59.2" height="53.8" rx="18.0" fill="#2c3450" fill-opacity="0.63"/><rect x="1051.0" y="392.9" width="62.3" height="46.3" rx="18.5" fill="#2c3450" fill-opacity="0.73"/><rect x="1124.7" y="387.9" width="54.7" height="56.2" rx="19.8" fill="#2c3450" fill-opacity="0.64"/><rect x="1193.9" y="390.1" width="55.9" height="51.8" rx="25.1" fill="#2c3450" fill-opacity="0.80"/><rect x="1263.1" y="386.9" width="57.0" height="58.1" rx="27.7" fill="#2c3450" fill-opacity="0.68"/><rect x="1332.0" y="392.6" width="59.0" height="46.8" rx="19.1" fill="#2c3450" fill-opacity="0.73"/><rect x="1401.1" y="387.2" width="60.3" height="57.7" rx="24.5" fill="#2c3450" fill-opacity="0.84"/><rect x="1469.9" y="391.8" width="62.4" height="48.4" rx="23.3" fill="#2c3450" fill-opacity="0.77"/><rect x="38.5" y="452.8" width="62.6" height="54.3" rx="23.7" fill="#2c3450" fill-opacity="0.65"/><rect x="111.3" y="451.8" width="56.6" height="56.3" rx="21.3" fill="#2c3450" fill-opacity="0.73"/><rect x="179.7" y="452.6" width="59.5" height="54.7" rx="24.6" fill="#2c3450" fill-opacity="0.78"/><rect x="251.1" y="454.6" width="56.3" height="50.7" rx="24.2" fill="#525970" fill-opacity="0.63"/><rect x="321.8" y="455.1" width="54.6" height="49.8" rx="21.3" fill="#2c3450" fill-opacity="0.83"/><rect x="387.8" y="452.3" width="62.2" height="55.5" rx="24.5" fill="#2c3450" fill-opacity="0.78"/><rect x="459.4" y="454.8" width="58.7" height="50.3" rx="22.5" fill="#2c3450" fill-opacity="0.71"/><rect x="527.2" y="454.8" width="62.6" height="50.4" rx="21.5" fill="#2c3450" fill-opacity="0.66"/><rect x="600.6" y="451.0" width="55.6" height="58.0" rx="18.0" fill="#525970" fill-opacity="0.61"/><rect x="670.9" y="453.1" width="54.6" height="53.8" rx="21.6" fill="#2c3450" fill-opacity="0.77"/><rect x="735.4" y="455.2" width="65.2" height="49.7" rx="17.5" fill="#2c3450" fill-opacity="0.63"/><rect x="809.0" y="455.9" width="57.7" height="48.2" rx="16.0" fill="#525970" fill-opacity="0.78"/><rect x="875.7" y="455.3" width="64.0" height="49.5" rx="18.1" fill="#2c3450" fill-opacity="0.82"/><rect x="948.3" y="455.4" width="58.3" height="49.1" rx="19.9" fill="#2c3450" fill-opacity="0.72"/><rect x="1014.7" y="451.9" width="65.2" height="56.1" rx="23.0" fill="#2c3450" fill-opacity="0.68"/><rect x="1085.3" y="453.3" width="63.7" height="53.4" rx="21.4" fill="#2c3450" fill-opacity="0.65"/><rect x="1157.0" y="454.8" width="59.8" height="50.3" rx="17.8" fill="#2c3450" fill-opacity="0.71"/><rect x="1225.9" y="451.7" width="61.6" height="56.6" rx="20.5" fill="#2c3450" fill-opacity="0.81"/><rect x="1295.1" y="451.8" width="63.0" height="56.3" rx="22.2" fill="#2c3450" fill-opacity="0.81"/><rect x="1368.7" y="453.5" width="55.4" height="53.0" rx="21.2" fill="#2c3450" fill-opacity="0.69"/><rect x="1437.2" y="452.5" width="57.9" height="55.0" rx="26.7" fill="#2c3450" fill-opacity="0.71"/><rect x="1505.4" y="457.0" width="61.2" height="45.9" rx="21.7" fill="#2c3450" fill-opacity="0.62"/><rect x="6.9" y="516.9" width="56.0" height="54.2" rx="19.1" fill="#2c3450" fill-opacity="0.73"/><rect x="75.7" y="518.8" width="58.1" height="50.4" rx="18.6" fill="#2c3450" fill-opacity="0.69"/><rect x="147.2" y="518.6" width="54.7" height="50.8" rx="25.2" fill="#2c3450" fill-opacity="0.73"/><rect x="212.0" y="520.0" width="64.7" height="48.0" rx="18.7" fill="#2c3450" fill-opacity="0.64"/><rect x="283.2" y="518.5" width="61.9" height="51.0" rx="17.4" fill="#2c3450" fill-opacity="0.64"/><rect x="356.3" y="520.5" width="55.4" height="47.0" rx="22.9" fill="#2c3450" fill-opacity="0.60"/><rect x="424.5" y="520.6" width="58.7" height="46.7" rx="15.1" fill="#2c3450" fill-opacity="0.65"/><rect x="491.3" y="519.1" width="64.6" height="49.8" rx="23.6" fill="#2c3450" fill-opacity="0.61"/><rect x="565.0" y="518.2" width="57.0" height="51.6" rx="20.0" fill="#2c3450" fill-opacity="0.81"/><rect x="631.4" y="518.7" width="63.7" height="50.7" rx="22.9" fill="#2c3450" fill-opacity="0.68"/><rect x="704.1" y="514.8" width="58.0" height="58.3" rx="20.2" fill="#2c3450" fill-opacity="0.73"/><rect x="774.6" y="516.9" width="56.7" height="54.2" rx="18.0" fill="#2c3450" fill-opacity="0.81"/><rect x="843.9" y="518.3" width="57.7" height="51.4" rx="17.3" fill="#2c3450" fill-opacity="0.72"/><rect x="915.0" y="518.4" width="55.0" height="51.2" rx="16.9" fill="#2c3450" fill-opacity="0.82"/><rect x="981.5" y="519.4" width="61.8" height="49.2" rx="16.7" fill="#2c3450" fill-opacity="0.67"/><rect x="1051.6" y="517.5" width="61.2" height="52.9" rx="24.7" fill="#2c3450" fill-opacity="0.64"/><rect x="1123.7" y="520.2" width="56.6" height="47.6" rx="23.2" fill="#2c3450" fill-opacity="0.72"/><rect x="1191.9" y="520.2" width="59.8" height="47.5" rx="21.0" fill="#2c3450" fill-opacity="0.81"/><rect x="1259.5" y="519.1" width="64.2" height="49.8" rx="22.3" fill="#2c3450" fill-opacity="0.78"/><rect x="1328.8" y="519.5" width="65.2" height="49.1" rx="17.0" fill="#2c3450" fill-opacity="0.64"/><rect x="1402.5" y="517.2" width="57.6" height="53.6" rx="18.8" fill="#2c3450" fill-opacity="0.66"/><rect x="1467.7" y="514.6" width="66.9" height="58.7" rx="27.1" fill="#2c3450" fill-opacity="0.73"/><rect x="40.7" y="581.4" width="58.2" height="53.2" rx="25.5" fill="#2c3450" fill-opacity="0.74"/><rect x="106.3" y="584.8" width="66.6" height="46.4" rx="19.2" fill="#2c3450" fill-opacity="0.79"/><rect x="177.7" y="585.4" width="63.5" height="45.2" rx="17.1" fill="#2c3450" fill-opacity="0.69"/><rect x="247.5" y="580.1" width="63.6" height="55.8" rx="18.1" fill="#2c3450" fill-opacity="0.72"/><rect x="320.9" y="582.5" width="56.4" height="51.1" rx="22.6" fill="#2c3450" fill-opacity="0.70"/><rect x="387.7" y="585.5" width="62.3" height="45.0" rx="18.9" fill="#2c3450" fill-opacity="0.69"/><rect x="455.7" y="583.9" width="66.0" height="48.3" rx="23.4" fill="#2c3450" fill-opacity="0.73"/><rect x="525.7" y="584.3" width="65.6" height="47.5" rx="22.1" fill="#525970" fill-opacity="0.79"/><rect x="599.0" y="580.6" width="58.8" height="54.8" rx="24.1" fill="#2c3450" fill-opacity="0.62"/><rect x="666.4" y="580.0" width="63.6" height="56.1" rx="28.0" fill="#2c3450" fill-opacity="0.81"/><rect x="737.6" y="579.2" width="60.7" height="57.6" rx="19.1" fill="#2c3450" fill-opacity="0.73"/><rect x="804.8" y="578.8" width="65.9" height="58.4" rx="25.8" fill="#2c3450" fill-opacity="0.60"/><rect x="874.9" y="584.4" width="65.5" height="47.2" rx="20.2" fill="#2c3450" fill-opacity="0.69"/><rect x="946.7" y="581.3" width="61.5" height="53.5" rx="20.4" fill="#2c3450" fill-opacity="0.66"/><rect x="1014.2" y="581.7" width="66.1" height="52.6" rx="23.6" fill="#2c3450" fill-opacity="0.62"/><rect x="1085.4" y="583.5" width="63.3" height="49.0" rx="22.4" fill="#2c3450" fill-opacity="0.62"/><rect x="1156.6" y="580.6" width="60.7" height="54.9" rx="21.7" fill="#2c3450" fill-opacity="0.73"/><rect x="1228.8" y="581.1" width="55.9" height="53.8" rx="23.2" fill="#2c3450" fill-opacity="0.71"/><rect x="1298.1" y="582.0" width="56.9" height="52.0" rx="22.4" fill="#2c3450" fill-opacity="0.61"/><rect x="1365.4" y="581.4" width="62.0" height="53.1" rx="18.7" fill="#2c3450" fill-opacity="0.79"/><rect x="1436.7" y="584.4" width="58.9" height="47.2" rx="20.5" fill="#2c3450" fill-opacity="0.73"/><rect x="1503.8" y="584.1" width="64.4" height="47.8" rx="15.6" fill="#2c3450" fill-opacity="0.72"/><rect x="4.1" y="643.8" width="61.7" height="56.3" rx="21.7" fill="#2c3450" fill-opacity="0.80"/><rect x="72.5" y="646.4" width="64.5" height="51.1" rx="21.2" fill="#2c3450" fill-opacity="0.61"/><rect x="142.9" y="642.6" width="63.4" height="58.8" rx="26.3" fill="#2c3450" fill-opacity="0.80"/><rect x="211.5" y="649.1" width="65.8" height="45.7" rx="21.2" fill="#525970" fill-opacity="0.71"/><rect x="283.9" y="644.9" width="60.6" height="54.3" rx="24.5" fill="#2c3450" fill-opacity="0.74"/><rect x="352.5" y="647.1" width="62.9" height="49.8" rx="23.0" fill="#2c3450" fill-opacity="0.62"/><rect x="421.5" y="645.9" width="64.7" height="52.2" rx="18.9" fill="#2c3450" fill-opacity="0.79"/><rect x="493.5" y="645.4" width="60.2" height="53.1" rx="22.4" fill="#2c3450" fill-opacity="0.72"/><rect x="564.6" y="647.3" width="57.7" height="49.5" rx="22.3" fill="#2c3450" fill-opacity="0.77"/><rect x="636.0" y="647.1" width="54.5" height="49.9" rx="24.0" fill="#2c3450" fill-opacity="0.61"/><rect x="704.3" y="648.1" width="57.7" height="47.8" rx="18.8" fill="#2c3450" fill-opacity="0.85"/><rect x="772.2" y="645.8" width="61.4" height="52.3" rx="24.8" fill="#2c3450" fill-opacity="0.66"/><rect x="842.4" y="646.4" width="60.7" height="51.2" rx="21.7" fill="#2c3450" fill-opacity="0.69"/><rect x="912.9" y="643.3" width="59.2" height="57.3" rx="27.2" fill="#2c3450" fill-opacity="0.74"/><rect x="983.2" y="644.2" width="58.4" height="55.5" rx="25.5" fill="#525970" fill-opacity="0.66"/><rect x="1052.2" y="643.8" width="60.0" height="56.5" rx="26.0" fill="#2c3450" fill-opacity="0.80"/><rect x="1120.2" y="648.8" width="63.7" height="46.4" rx="23.2" fill="#2c3450" fill-opacity="0.82"/><rect x="1190.9" y="647.9" width="61.9" height="48.1" rx="20.6" fill="#2c3450" fill-opacity="0.84"/><rect x="1258.9" y="647.8" width="65.4" height="48.3" rx="21.5" fill="#2c3450" fill-opacity="0.61"/><rect x="1334.0" y="646.0" width="55.0" height="52.0" rx="17.9" fill="#2c3450" fill-opacity="0.63"/><rect x="1400.2" y="648.4" width="62.1" height="47.2" rx="22.9" fill="#2c3450" fill-opacity="0.82"/><rect x="1471.7" y="643.9" width="58.7" height="56.3" rx="25.5" fill="#2c3450" fill-opacity="0.62"/><rect x="40.7" y="707.4" width="58.2" height="57.3" rx="27.1" fill="#2c3450" fill-opacity="0.72"/><rect x="110.5" y="713.4" width="58.3" height="45.1" rx="16.4" fill="#2c3450" fill-opacity="0.81"/><rect x="179.4" y="709.1" width="60.2" height="53.8" rx="25.3" fill="#2c3450" fill-opacity="0.85"/><rect x="250.3" y="707.1" width="57.9" height="57.8" rx="21.4" fill="#2c3450" fill-opacity="0.66"/><rect x="316.1" y="711.4" width="65.9" height="49.2" rx="17.3" fill="#2c3450" fill-opacity="0.82"/><rect x="390.0" y="707.9" width="57.7" height="56.2" rx="25.1" fill="#2c3450" fill-opacity="0.74"/><rect x="460.5" y="707.0" width="56.5" height="58.1" rx="19.5" fill="#2c3450" fill-opacity="0.64"/><rect x="528.5" y="709.1" width="60.1" height="53.7" rx="19.4" fill="#2c3450" fill-opacity="0.81"/><rect x="600.4" y="707.8" width="55.8" height="56.4" rx="24.0" fill="#2c3450" fill-opacity="0.68"/><rect x="665.3" y="709.0" width="65.7" height="54.1" rx="18.0" fill="#2c3450" fill-opacity="0.80"/><rect x="736.3" y="711.1" width="63.3" height="49.8" rx="18.1" fill="#2c3450" fill-opacity="0.82"/><rect x="807.9" y="706.9" width="59.8" height="58.3" rx="22.6" fill="#2c3450" fill-opacity="0.78"/><rect x="875.6" y="706.9" width="64.0" height="58.2" rx="26.9" fill="#2c3450" fill-opacity="0.84"/><rect x="948.1" y="712.8" width="58.7" height="46.5" rx="22.5" fill="#2c3450" fill-opacity="0.83"/><rect x="1015.6" y="712.8" width="63.3" height="46.4" rx="21.4" fill="#2c3450" fill-opacity="0.82"/><rect x="1085.7" y="708.0" width="62.7" height="55.9" rx="19.2" fill="#2c3450" fill-opacity="0.83"/><rect x="1157.0" y="712.7" width="59.8" height="46.6" rx="19.9" fill="#2c3450" fill-opacity="0.80"/><rect x="1225.9" y="710.9" width="61.6" height="50.2" rx="16.9" fill="#2c3450" fill-opacity="0.75"/><rect x="1298.9" y="707.8" width="55.2" height="56.5" rx="21.7" fill="#2c3450" fill-opacity="0.79"/><rect x="1363.4" y="713.3" width="66.0" height="45.4" rx="18.1" fill="#2c3450" fill-opacity="0.63"/><rect x="1433.2" y="712.9" width="65.9" height="46.1" rx="18.9" fill="#2c3450" fill-opacity="0.66"/><rect x="1504.0" y="709.8" width="64.1" height="52.5" rx="20.1" fill="#2c3450" fill-opacity="0.63"/><rect x="4.9" y="775.5" width="59.9" height="49.0" rx="23.2" fill="#2c3450" fill-opacity="0.71"/><rect x="72.1" y="772.0" width="65.3" height="56.1" rx="23.4" fill="#2c3450" fill-opacity="0.63"/><rect x="143.7" y="771.5" width="61.7" height="57.0" rx="22.5" fill="#2c3450" fill-opacity="0.63"/><rect x="216.7" y="774.1" width="55.3" height="51.8" rx="22.7" fill="#2c3450" fill-opacity="0.70"/><rect x="280.8" y="771.2" width="66.7" height="57.7" rx="22.0" fill="#2c3450" fill-opacity="0.67"/><rect x="350.9" y="774.9" width="66.3" height="50.2" rx="18.2" fill="#2c3450" fill-opacity="0.66"/><rect x="425.3" y="770.8" width="57.0" height="58.3" rx="21.9" fill="#2c3450" fill-opacity="0.71"/><rect x="493.2" y="771.3" width="60.8" height="57.4" rx="18.6" fill="#2c3450" fill-opacity="0.66"/><rect x="561.8" y="770.7" width="63.3" height="58.6" rx="19.2" fill="#2c3450" fill-opacity="0.81"/><rect x="635.6" y="770.8" width="55.4" height="58.5" rx="26.3" fill="#2c3450" fill-opacity="0.62"/><rect x="705.2" y="770.7" width="55.8" height="58.5" rx="21.8" fill="#2c3450" fill-opacity="0.74"/><rect x="775.0" y="770.7" width="55.8" height="58.5" rx="22.7" fill="#2c3450" fill-opacity="0.71"/><rect x="844.9" y="773.7" width="55.6" height="52.6" rx="21.5" fill="#2c3450" fill-opacity="0.81"/><rect x="911.8" y="777.2" width="61.5" height="45.7" rx="19.0" fill="#2c3450" fill-opacity="0.81"/><rect x="979.3" y="771.3" width="66.2" height="57.5" rx="21.6" fill="#2c3450" fill-opacity="0.63"/><rect x="1050.3" y="771.7" width="63.8" height="56.5" rx="20.9" fill="#2c3450" fill-opacity="0.66"/><rect x="1122.3" y="776.0" width="59.4" height="48.1" rx="20.8" fill="#2c3450" fill-opacity="0.76"/><rect x="1194.5" y="773.5" width="54.6" height="53.0" rx="22.8" fill="#2c3450" fill-opacity="0.63"/><rect x="1259.1" y="775.9" width="65.1" height="48.1" rx="20.8" fill="#525970" fill-opacity="0.66"/><rect x="1332.3" y="776.4" width="58.3" height="47.3" rx="22.9" fill="#2c3450" fill-opacity="0.84"/><rect x="1403.2" y="777.0" width="56.1" height="46.1" rx="20.4" fill="#2c3450" fill-opacity="0.70"/><rect x="1472.9" y="776.3" width="56.4" height="47.4" rx="20.3" fill="#2c3450" fill-opacity="0.75"/><rect x="41.1" y="837.1" width="57.5" height="53.8" rx="21.6" fill="#525970" fill-opacity="0.69"/><rect x="111.4" y="836.6" width="56.4" height="54.8" rx="18.5" fill="#2c3450" fill-opacity="0.60"/><rect x="178.8" y="836.8" width="61.4" height="54.5" rx="25.3" fill="#2c3450" fill-opacity="0.64"/><rect x="246.6" y="841.3" width="65.3" height="45.4" rx="19.9" fill="#2c3450" fill-opacity="0.80"/><rect x="320.0" y="835.8" width="58.2" height="56.4" rx="25.0" fill="#2c3450" fill-opacity="0.62"/><rect x="390.5" y="837.1" width="56.8" height="53.9" rx="22.1" fill="#2c3450" fill-opacity="0.64"/><rect x="459.6" y="841.2" width="58.3" height="45.7" rx="17.3" fill="#2c3450" fill-opacity="0.70"/><rect x="530.5" y="837.2" width="56.1" height="53.6" rx="26.1" fill="#2c3450" fill-opacity="0.68"/><rect x="597.5" y="837.0" width="61.7" height="54.1" rx="26.4" fill="#2c3450" fill-opacity="0.61"/><rect x="667.7" y="837.3" width="61.0" height="53.4" rx="20.1" fill="#2c3450" fill-opacity="0.64"/><rect x="737.2" y="837.5" width="61.6" height="53.0" rx="24.1" fill="#2c3450" fill-opacity="0.84"/><rect x="807.9" y="834.7" width="59.9" height="58.5" rx="25.8" fill="#2c3450" fill-opacity="0.83"/><rect x="875.3" y="837.5" width="64.6" height="53.0" rx="18.0" fill="#2c3450" fill-opacity="0.81"/><rect x="944.8" y="840.5" width="65.3" height="46.9" rx="22.2" fill="#2c3450" fill-opacity="0.83"/><rect x="1019.1" y="835.0" width="56.4" height="58.0" rx="23.7" fill="#525970" fill-opacity="0.75"/><rect x="1089.5" y="838.7" width="55.2" height="50.7" rx="21.4" fill="#525970" fill-opacity="0.84"/><rect x="1155.8" y="836.0" width="62.2" height="56.1" rx="20.3" fill="#2c3450" fill-opacity="0.66"/><rect x="1228.2" y="835.4" width="57.0" height="57.2" rx="18.4" fill="#2c3450" fill-opacity="0.75"/><rect x="1295.9" y="841.4" width="61.3" height="45.2" rx="19.5" fill="#2c3450" fill-opacity="0.77"/><rect x="1368.1" y="835.9" width="56.6" height="56.2" rx="27.9" fill="#2c3450" fill-opacity="0.83"/><rect x="1436.9" y="839.0" width="58.7" height="50.0" rx="21.2" fill="#525970" fill-opacity="0.72"/><rect x="1507.9" y="837.9" width="56.3" height="52.1" rx="21.7" fill="#525970" fill-opacity="0.61"/><rect x="6.4" y="900.1" width="57.1" height="55.7" rx="20.6" fill="#2c3450" fill-opacity="0.82"/><rect x="71.8" y="904.0" width="65.8" height="48.0" rx="18.4" fill="#2c3450" fill-opacity="0.82"/><rect x="144.6" y="905.2" width="59.8" height="45.6" rx="16.5" fill="#2c3450" fill-opacity="0.62"/><rect x="211.4" y="900.7" width="65.9" height="54.7" rx="27.2" fill="#2c3450" fill-opacity="0.63"/><rect x="283.2" y="904.1" width="61.9" height="47.8" rx="19.2" fill="#2c3450" fill-opacity="0.69"/><rect x="351.0" y="903.8" width="66.0" height="48.4" rx="23.5" fill="#2c3450" fill-opacity="0.62"/><rect x="426.3" y="900.5" width="55.0" height="55.0" rx="20.1" fill="#2c3450" fill-opacity="0.81"/><rect x="494.6" y="903.1" width="58.2" height="49.9" rx="18.3" fill="#2c3450" fill-opacity="0.67"/><rect x="561.8" y="900.0" width="63.3" height="56.0" rx="23.2" fill="#2c3450" fill-opacity="0.68"/><rect x="632.5" y="905.2" width="61.5" height="45.7" rx="20.3" fill="#2c3450" fill-opacity="0.78"/><rect x="700.5" y="904.4" width="65.3" height="47.2" rx="16.6" fill="#2c3450" fill-opacity="0.73"/><rect x="772.7" y="901.0" width="60.4" height="54.0" rx="26.8" fill="#2c3450" fill-opacity="0.81"/><rect x="839.7" y="900.1" width="66.0" height="55.7" rx="26.2" fill="#2c3450" fill-opacity="0.82"/><rect x="914.4" y="899.0" width="56.3" height="58.1" rx="19.8" fill="#2c3450" fill-opacity="0.64"/><rect x="983.5" y="899.6" width="57.6" height="56.8" rx="24.6" fill="#2c3450" fill-opacity="0.81"/><rect x="1052.1" y="903.2" width="60.2" height="49.7" rx="22.6" fill="#525970" fill-opacity="0.72"/><rect x="1123.8" y="903.2" width="56.3" height="49.7" rx="19.3" fill="#2c3450" fill-opacity="0.70"/><rect x="1193.2" y="904.8" width="57.2" height="46.4" rx="21.7" fill="#2c3450" fill-opacity="0.72"/><rect x="1260.2" y="899.4" width="62.9" height="57.1" rx="24.2" fill="#2c3450" fill-opacity="0.76"/><rect x="1330.8" y="902.9" width="61.3" height="50.2" rx="19.5" fill="#2c3450" fill-opacity="0.69"/><rect x="1402.9" y="901.9" width="56.7" height="52.2" rx="20.7" fill="#2c3450" fill-opacity="0.85"/><rect x="1470.9" y="905.4" width="60.3" height="45.2" rx="21.3" fill="#2c3450" fill-opacity="0.72"/><rect x="40.2" y="967.1" width="59.2" height="49.8" rx="23.7" fill="#2c3450" fill-opacity="0.83"/><rect x="111.7" y="964.7" width="56.0" height="54.6" rx="23.2" fill="#2c3450" fill-opacity="0.70"/><rect x="181.8" y="963.0" width="55.3" height="58.0" rx="21.3" fill="#2c3450" fill-opacity="0.61"/><rect x="248.3" y="964.0" width="62.0" height="56.0" rx="20.7" fill="#2c3450" fill-opacity="0.67"/><rect x="320.2" y="962.9" width="57.8" height="58.2" rx="28.3" fill="#2c3450" fill-opacity="0.70"/><rect x="388.6" y="965.4" width="60.6" height="53.2" rx="17.9" fill="#2c3450" fill-opacity="0.81"/><rect x="455.3" y="966.3" width="66.9" height="51.4" rx="20.0" fill="#2c3450" fill-opacity="0.80"/><rect x="527.4" y="964.4" width="62.3" height="55.1" rx="26.8" fill="#2c3450" fill-opacity="0.69"/><rect x="598.7" y="967.9" width="59.4" height="48.2" rx="16.4" fill="#525970" fill-opacity="0.63"/><rect x="666.2" y="968.4" width="64.0" height="47.3" rx="20.0" fill="#2c3450" fill-opacity="0.66"/><rect x="740.5" y="967.3" width="54.9" height="49.5" rx="20.7" fill="#2c3450" fill-opacity="0.73"/><rect x="807.7" y="965.4" width="60.3" height="53.2" rx="25.1" fill="#2c3450" fill-opacity="0.63"/><rect x="875.2" y="966.9" width="65.0" height="50.1" rx="20.1" fill="#2c3450" fill-opacity="0.73"/><rect x="944.3" y="969.3" width="66.3" height="45.3" rx="16.0" fill="#2c3450" fill-opacity="0.68"/><rect x="1017.3" y="965.2" width="59.9" height="53.7" rx="23.7" fill="#2c3450" fill-opacity="0.74"/><rect x="1089.8" y="968.0" width="54.6" height="48.0" rx="19.7" fill="#2c3450" fill-opacity="0.79"/><rect x="1156.6" y="963.9" width="60.7" height="56.2" rx="23.5" fill="#2c3450" fill-opacity="0.78"/><rect x="1227.4" y="968.1" width="58.7" height="47.7" rx="19.6" fill="#2c3450" fill-opacity="0.83"/><rect x="1298.7" y="969.0" width="55.6" height="46.0" rx="18.0" fill="#2c3450" fill-opacity="0.67"/><rect x="1363.5" y="967.6" width="65.6" height="48.8" rx="19.9" fill="#2c3450" fill-opacity="0.62"/><rect x="1434.1" y="964.3" width="64.1" height="55.3" rx="24.6" fill="#2c3450" fill-opacity="0.74"/><rect x="1504.5" y="967.9" width="63.0" height="48.3" rx="18.6" fill="#2c3450" fill-opacity="0.73"/>
    
    <g transform="translate(61.4 0) rotate(-14 768.0 512.0)">
      <rect x="-1024" y="-204.8" width="64" height="1433.6" fill="#e8d5a8" fill-opacity="0.18"/><rect x="-960" y="-204.8" width="64" height="1433.6" fill="#7a1d34" fill-opacity="0.20"/><rect x="-896" y="-204.8" width="64" height="1433.6" fill="#e8d5a8" fill-opacity="0.18"/><rect x="-832" y="-204.8" width="64" height="1433.6" fill="#7a1d34" fill-opacity="0.20"/><rect x="-768" y="-204.8" width="64" height="1433.6" fill="#e8d5a8" fill-opacity="0.18"/><rect x="-704" y="-204.8" width="64" height="1433.6" fill="#7a1d34" fill-opacity="0.20"/><rect x="-640" y="-204.8" width="64" height="1433.6" fill="#e8d5a8" fill-opacity="0.18"/><rect x="-576" y="-204.8" width="64" height="1433.6" fill="#7a1d34" fill-opacity="0.20"/><rect x="-512" y="-204.8" width="64" height="1433.6" fill="#e8d5a8" fill-opacity="0.18"/><rect x="-448" y="-204.8" width="64" height="1433.6" fill="#7a1d34" fill-opacity="0.20"/><rect x="-384" y="-204.8" width="64" height="1433.6" fill="#e8d5a8" fill-opacity="0.18"/><rect x="-320" y="-204.8" width="64" height="1433.6" fill="#7a1d34" fill-opacity="0.20"/><rect x="-256" y="-204.8" width="64" height="1433.6" fill="#e8d5a8" fill-opacity="0.18"/><rect x="-192" y="-204.8" width="64" height="1433.6" fill="#7a1d34" fill-opacity="0.20"/><rect x="-128" y="-204.8" width="64" height="1433.6" fill="#e8d5a8" fill-opacity="0.18"/><rect x="-64" y="-204.8" width="64" height="1433.6" fill="#7a1d34" fill-opacity="0.20"/><rect x="0" y="-204.8" width="64" height="1433.6" fill="#e8d5a8" fill-opacity="0.18"/><rect x="64" y="-204.8" width="64" height="1433.6" fill="#7a1d34" fill-opacity="0.20"/><rect x="128" y="-204.8" width="64" height="1433.6" fill="#e8d5a8" fill-opacity="0.18"/><rect x="192" y="-204.8" width="64" height="1433.6" fill="#7a1d34" fill-opacity="0.20"/><rect x="256" y="-204.8" width="64" height="1433.6" fill="#e8d5a8" fill-opacity="0.18"/><rect x="320" y="-204.8" width="64" height="1433.6" fill="#7a1d34" fill-opacity="0.20"/><rect x="384" y="-204.8" width="64" height="1433.6" fill="#e8d5a8" fill-opacity="0.18"/><rect x="448" y="-204.8" width="64" height="1433.6" fill="#7a1d34" fill-opacity="0.20"/><rect x="512" y="-204.8" width="64" height="1433.6" fill="#e8d5a8" fill-opacity="0.18"/><rect x="576" y="-204.8" width="64" height="1433.6" fill="#7a1d34" fill-opacity="0.20"/><rect x="640" y="-204.8" width="64" height="1433.6" fill="#e8d5a8" fill-opacity="0.18"/><rect x="704" y="-204.8" width="64" height="1433.6" fill="#7a1d34" fill-opacity="0.20"/><rect x="768" y="-204.8" width="64" height="1433.6" fill="#e8d5a8" fill-opacity="0.18"/><rect x="832" y="-204.8" width="64" height="1433.6" fill="#7a1d34" fill-opacity="0.20"/><rect x="896" y="-204.8" width="64" height="1433.6" fill="#e8d5a8" fill-opacity="0.18"/><rect x="960" y="-204.8" width="64" height="1433.6" fill="#7a1d34" fill-opacity="0.20"/><rect x="1024" y="-204.8" width="64" height="1433.6" fill="#e8d5a8" fill-opacity="0.18"/><rect x="1088" y="-204.8" width="64" height="1433.6" fill="#7a1d34" fill-opacity="0.20"/><rect x="1152" y="-204.8" width="64" height="1433.6" fill="#e8d5a8" fill-opacity="0.18"/><rect x="1216" y="-204.8" width="64" height="1433.6" fill="#7a1d34" fill-opacity="0.20"/><rect x="1280" y="-204.8" width="64" height="1433.6" fill="#e8d5a8" fill-opacity="0.18"/><rect x="1344" y="-204.8" width="64" height="1433.6" fill="#7a1d34" fill-opacity="0.20"/><rect x="1408" y="-204.8" width="64" height="1433.6" fill="#e8d5a8" fill-opacity="0.18"/><rect x="1472" y="-204.8" width="64" height="1433.6" fill="#7a1d34" fill-opacity="0.20"/><rect x="1536" y="-204.8" width="64" height="1433.6" fill="#e8d5a8" fill-opacity="0.18"/><rect x="1600" y="-204.8" width="64" height="1433.6" fill="#7a1d34" fill-opacity="0.20"/><rect x="1664" y="-204.8" width="64" height="1433.6" fill="#e8d5a8" fill-opacity="0.18"/><rect x="1728" y="-204.8" width="64" height="1433.6" fill="#7a1d34" fill-opacity="0.20"/><rect x="1792" y="-204.8" width="64" height="1433.6" fill="#e8d5a8" fill-opacity="0.18"/><rect x="1856" y="-204.8" width="64" height="1433.6" fill="#7a1d34" fill-opacity="0.20"/><rect x="1920" y="-204.8" width="64" height="1433.6" fill="#e8d5a8" fill-opacity="0.18"/><rect x="1984" y="-204.8" width="64" height="1433.6" fill="#7a1d34" fill-opacity="0.20"/><rect x="2048" y="-204.8" width="64" height="1433.6" fill="#e8d5a8" fill-opacity="0.18"/><rect x="2112" y="-204.8" width="64" height="1433.6" fill="#7a1d34" fill-opacity="0.20"/><rect x="2176" y="-204.8" width="64" height="1433.6" fill="#e8d5a8" fill-opacity="0.18"/><rect x="2240" y="-204.8" width="64" height="1433.6" fill="#7a1d34" fill-opacity="0.20"/><rect x="2304" y="-204.8" width="64" height="1433.6" fill="#e8d5a8" fill-opacity="0.18"/><rect x="2368" y="-204.8" width="64" height="1433.6" fill="#7a1d34" fill-opacity="0.20"/><rect x="2432" y="-204.8" width="64" height="1433.6" fill="#e8d5a8" fill-opacity="0.18"/><rect x="2496" y="-204.8" width="64" height="1433.6" fill="#7a1d34" fill-opacity="0.20"/><rect x="2560" y="-204.8" width="64" height="1433.6" fill="#e8d5a8" fill-opacity="0.18"/><rect x="2624" y="-204.8" width="64" height="1433.6" fill="#7a1d34" fill-opacity="0.20"/><rect x="2688" y="-204.8" width="64" height="1433.6" fill="#e8d5a8" fill-opacity="0.18"/><rect x="2752" y="-204.8" width="64" height="1433.6" fill="#7a1d34" fill-opacity="0.20"/><rect x="2816" y="-204.8" width="64" height="1433.6" fill="#e8d5a8" fill-opacity="0.18"/><rect x="2880" y="-204.8" width="64" height="1433.6" fill="#7a1d34" fill-opacity="0.20"/><rect x="2944" y="-204.8" width="64" height="1433.6" fill="#e8d5a8" fill-opacity="0.18"/><rect x="3008" y="-204.8" width="64" height="1433.6" fill="#7a1d34" fill-opacity="0.20"/><rect x="3072" y="-204.8" width="64" height="1433.6" fill="#e8d5a8" fill-opacity="0.18"/><rect x="3136" y="-204.8" width="64" height="1433.6" fill="#7a1d34" fill-opacity="0.20"/><rect x="3200" y="-204.8" width="64" height="1433.6" fill="#e8d5a8" fill-opacity="0.18"/><rect x="3264" y="-204.8" width="64" height="1433.6" fill="#7a1d34" fill-opacity="0.20"/><rect x="3328" y="-204.8" width="64" height="1433.6" fill="#e8d5a8" fill-opacity="0.18"/><rect x="3392" y="-204.8" width="64" height="1433.6" fill="#7a1d34" fill-opacity="0.20"/><rect x="3456" y="-204.8" width="64" height="1433.6" fill="#e8d5a8" fill-opacity="0.18"/><rect x="3520" y="-204.8" width="64" height="1433.6" fill="#7a1d34" fill-opacity="0.20"/><rect x="3584" y="-204.8" width="64" height="1433.6" fill="#e8d5a8" fill-opacity="0.18"/><rect x="3648" y="-204.8" width="64" height="1433.6" fill="#7a1d34" fill-opacity="0.20"/><rect x="3712" y="-204.8" width="64" height="1433.6" fill="#e8d5a8" fill-opacity="0.18"/><rect x="3776" y="-204.8" width="64" height="1433.6" fill="#7a1d34" fill-opacity="0.20"/>
    </g>
  
    <ellipse cx="420.8" cy="584.7" rx="17.1" ry="7.2" transform="rotate(108.2 420.8 584.7)" fill="#e8d5a8" fill-opacity="0.32"/><ellipse cx="453.5" cy="609.9" rx="15.8" ry="6.6" transform="rotate(114.2 453.5 609.9)" fill="#e8d5a8" fill-opacity="0.32"/><ellipse cx="527.8" cy="696.1" rx="20.7" ry="8.7" transform="rotate(46.6 527.8 696.1)" fill="#e8d5a8" fill-opacity="0.32"/><ellipse cx="693.0" cy="970.5" rx="21.4" ry="9.0" transform="rotate(40.3 693.0 970.5)" fill="#e8d5a8" fill-opacity="0.32"/><ellipse cx="108.9" cy="620.5" rx="14.8" ry="6.2" transform="rotate(103.3 108.9 620.5)" fill="#e8d5a8" fill-opacity="0.32"/><ellipse cx="487.7" cy="714.6" rx="11.3" ry="4.7" transform="rotate(166.9 487.7 714.6)" fill="#e8d5a8" fill-opacity="0.32"/><ellipse cx="660.1" cy="595.9" rx="9.4" ry="4.0" transform="rotate(26.2 660.1 595.9)" fill="#e8d5a8" fill-opacity="0.32"/><ellipse cx="1505.8" cy="828.3" rx="12.0" ry="5.0" transform="rotate(130.3 1505.8 828.3)" fill="#e8d5a8" fill-opacity="0.32"/><ellipse cx="1435.8" cy="705.6" rx="13.2" ry="5.5" transform="rotate(8.8 1435.8 705.6)" fill="#e8d5a8" fill-opacity="0.32"/><ellipse cx="156.1" cy="893.4" rx="21.8" ry="9.2" transform="rotate(173.5 156.1 893.4)" fill="#e8d5a8" fill-opacity="0.32"/><ellipse cx="1017.5" cy="604.9" rx="11.9" ry="5.0" transform="rotate(125.9 1017.5 604.9)" fill="#e8d5a8" fill-opacity="0.32"/><ellipse cx="1481.9" cy="940.9" rx="16.4" ry="6.9" transform="rotate(150.0 1481.9 940.9)" fill="#e8d5a8" fill-opacity="0.32"/><ellipse cx="102.7" cy="601.1" rx="17.3" ry="7.2" transform="rotate(60.5 102.7 601.1)" fill="#e8d5a8" fill-opacity="0.32"/><ellipse cx="753.5" cy="885.5" rx="18.1" ry="7.6" transform="rotate(31.4 753.5 885.5)" fill="#e8d5a8" fill-opacity="0.32"/>
  
</svg>
