<?xml version="1.0" encoding="UTF-8"?>
<svg xmlns="http://www.w3.org/2000/svg" width="1536" height="1024" viewBox="0 0 1536 1024">
<defs>
    <linearGradient id="ngBase" x1="0" y1="0" x2="0" y2="1">
      <stop offset="0%" stop-color="#030208"/>
      <stop offset="50%" stop-color="#05040e"/>
      <stop offset="100%" stop-color="#0a0820"/>
    </linearGradient>
    <radialGradient id="ngGlow" cx="50%" cy="42%" r="55%">
      <stop offset="0%" stop-color="#ff2bd6" stop-opacity="0.18"/>
      <stop offset="100%" stop-color="#ff2bd6" stop-opacity="0"/>
    </radialGradient>
    <radialGradient id="ngCalm" cx="50%" cy="58%" r="38%">
      <stop offset="0%" stop-color="#05040e" stop-opacity="0.7"/>
      <stop offset="100%" stop-color="#05040e" stop-opacity="0"/>
    </radialGradient>
  </defs>

    <rect width="1536" height="1024" fill="url(#ngBase)"/>
    <rect width="1536" height="1024" fill="url(#ngGlow)"/>
    <line x1="768" y1="430" x2="-1382.4" y2="1024" stroke="#27e3ff" stroke-opacity="0.18" stroke-width="1.1"/><line x1="768" y1="430" x2="-1228.8" y2="1024" stroke="#27e3ff" stroke-opacity="0.18" stroke-width="1.1"/><line x1="768" y1="430" x2="-1075.2" y2="1024" stroke="#27e3ff" stroke-opacity="0.18" stroke-width="1.1"/><line x1="768" y1="430" x2="-921.6" y2="1024" stroke="#27e3ff" stroke-opacity="0.18" stroke-width="1.1"/><line x1="768" y1="430" x2="-768.0" y2="1024" stroke="#27e3ff" stroke-opacity="0.18" stroke-width="1.1"/><line x1="768" y1="430" x2="-614.4" y2="1024" stroke="#27e3ff" stroke-opacity="0.18" stroke-width="1.1"/><line x1="768" y1="430" x2="-460.8" y2="1024" stroke="#27e3ff" stroke-opacity="0.18" stroke-width="1.1"/><line x1="768" y1="430" x2="-307.2" y2="1024" stroke="#27e3ff" stroke-opacity="0.18" stroke-width="1.1"/><line x1="768" y1="430" x2="-153.6" y2="1024" stroke="#27e3ff" stroke-opacity="0.18" stroke-width="1.1"/><line x1="768" y1="430" x2="0.0" y2="1024" stroke="#27e3ff" stroke-opacity="0.18" stroke-width="1.1"/><line x1="768" y1="430" x2="153.6" y2="1024" stroke="#27e3ff" stroke-opacity="0.18" stroke-width="1.1"/><line x1="768" y1="430" x2="307.2" y2="1024" stroke="#27e3ff" stroke-opacity="0.18" stroke-width="1.1"/><line x1="768" y1="430" x2="460.8" y2="1024" stroke="#27e3ff" stroke-opacity="0.18" stroke-width="1.1"/><line x1="768" y1="430" x2="614.4" y2="1024" stroke="#27e3ff" stroke-opacity="0.18" stroke-width="1.1"/><line x1="768" y1="430" x2="768.0" y2="1024" stroke="#27e3ff" stroke-opacity="0.18" stroke-width="1.1"/><line x1="768" y1="430" x2="921.6" y2="1024" stroke="#27e3ff" stroke-opacity="0.18" stroke-width="1.1"/><line x1="768" y1="430" x2="1075.2" y2="1024" stroke="#27e3ff" stroke-opacity="0.18" stroke-width="1.1"/><line x1="768" y1="430" x2="1228.8" y2="1024" stroke="#27e3ff" stroke-opacity="0.18" stroke-width="1.1"/><line x1="768" y1="430" x2="1382.4" y2="1024" stroke="#27e3ff" stroke-opacity="0.18" stroke-width="1.1"/><line x1="768" y1="430" x2="1536.0" y2="1024" stroke="#27e3ff" stroke-opacity="0.18" stroke-width="1.1"/><line x1="768" y1="430" x2="1689.6" y2="1024" stroke="#27e3ff" stroke-opacity="0.18" stroke-width="1.1"/><line x1="768" y1="430" x2="1843.2" y2="1024" stroke="#27e3ff" stroke-opacity="0.18" stroke-width="1.1"/><line x1="768" y1="430" x2="1996.8" y2="1024" stroke="#27e3ff" stroke-opacity="0.18" stroke-width="1.1"/><line x1="768" y1="430" x2="2150.4" y2="1024" stroke="#27e3ff" stroke-opacity="0.18" stroke-width="1.1"/><line x1="768" y1="430" x2="2304.0" y2="1024" stroke="#27e3ff" stroke-opacity="0.18" stroke-width="1.1"/><line x1="768" y1="430" x2="2457.6" y2="1024" stroke="#27e3ff" stroke-opacity="0.18" stroke-width="1.1"/><line x1="768" y1="430" x2="2611.2" y2="1024" stroke="#27e3ff" stroke-opacity="0.18" stroke-width="1.1"/><line x1="768" y1="430" x2="2764.8" y2="1024" stroke="#27e3ff" stroke-opacity="0.18" stroke-width="1.1"/><line x1="768" y1="430" x2="2918.4" y2="1024" stroke="#27e3ff" stroke-opacity="0.18" stroke-width="1.1"/>
    <line x1="0" y1="430.0" x2="1536" y2="430.0" stroke="#ff2bd6" stroke-opacity="0.12" stroke-width="1.00"/><line x1="0" y1="441.9" x2="1536" y2="441.9" stroke="#ff2bd6" stroke-opacity="0.15" stroke-width="1.12"/><line x1="0" y1="468.5" x2="1536" y2="468.5" stroke="#ff2bd6" stroke-opacity="0.18" stroke-width="1.24"/><line x1="0" y1="506.7" x2="1536" y2="506.7" stroke="#ff2bd6" stroke-opacity="0.22" stroke-width="1.36"/><line x1="0" y1="555.1" x2="1536" y2="555.1" stroke="#ff2bd6" stroke-opacity="0.25" stroke-width="1.48"/><line x1="0" y1="612.8" x2="1536" y2="612.8" stroke="#ff2bd6" stroke-opacity="0.28" stroke-width="1.60"/><line x1="0" y1="679.3" x2="1536" y2="679.3" stroke="#ff2bd6" stroke-opacity="0.31" stroke-width="1.72"/><line x1="0" y1="753.9" x2="1536" y2="753.9" stroke="#ff2bd6" stroke-opacity="0.34" stroke-width="1.84"/><line x1="0" y1="836.5" x2="1536" y2="836.5" stroke="#ff2bd6" stroke-opacity="0.38" stroke-width="1.96"/><line x1="0" y1="926.6" x2="1536" y2="926.6" stroke="#ff2bd6" stroke-opacity="0.41" stroke-width="2.08"/>
    <circle cx="696.7" cy="151.8" r="1.46" fill="#ff2bd6" fill-opacity="0.62"/><circle cx="573.6" cy="330.5" r="2.95" fill="#ff2bd6" fill-opacity="0.45"/><circle cx="1477.2" cy="184.9" r="2.06" fill="#27e3ff" fill-opacity="0.66"/><circle cx="953.7" cy="421.8" r="1.40" fill="#27e3ff" fill-opacity="0.48"/><circle cx="570.7" cy="365.4" r="2.31" fill="#ff2bd6" fill-opacity="0.58"/><circle cx="414.5" cy="231.8" r="2.23" fill="#27e3ff" fill-opacity="0.67"/><circle cx="382.4" cy="393.6" r="1.46" fill="#27e3ff" fill-opacity="0.57"/><circle cx="1326.8" cy="252.8" r="1.66" fill="#27e3ff" fill-opacity="0.37"/><circle cx="86.6" cy="59.5" r="3.00" fill="#ff2bd6" fill-opacity="0.54"/><circle cx="220.2" cy="267.4" r="1.55" fill="#ff2bd6" fill-opacity="0.50"/><circle cx="950.3" cy="272.6" r="2.65" fill="#27e3ff" fill-opacity="0.56"/><circle cx="149.9" cy="292.8" r="1.49" fill="#27e3ff" fill-opacity="0.63"/><circle cx="798.3" cy="51.3" r="1.48" fill="#27e3ff" fill-opacity="0.47"/><circle cx="1424.7" cy="44.6" r="1.76" fill="#27e3ff" fill-opacity="0.58"/><circle cx="560.2" cy="211.9" r="1.22" fill="#27e3ff" fill-opacity="0.52"/><circle cx="780.0" cy="296.8" r="2.78" fill="#27e3ff" fill-opacity="0.33"/><circle cx="329.0" cy="399.7" r="1.85" fill="#ff2bd6" fill-opacity="0.58"/><circle cx="421.7" cy="113.6" r="1.27" fill="#ff2bd6" fill-opacity="0.64"/><circle cx="1112.1" cy="22.9" r="2.56" fill="#27e3ff" fill-opacity="0.62"/><circle cx="401.1" cy="61.9" r="2.94" fill="#27e3ff" fill-opacity="0.59"/><circle cx="622.4" cy="432.3" r="1.46" fill="#27e3ff" fill-opacity="0.62"/><circle cx="710.6" cy="364.8" r="1.39" fill="#ff2bd6" fill-opacity="0.45"/><circle cx="1097.8" cy="96.1" r="1.41" fill="#ff2bd6" fill-opacity="0.55"/><circle cx="289.8" cy="10.1" r="2.87" fill="#ff2bd6" fill-opacity="0.47"/><circle cx="594.1" cy="439.7" r="1.94" fill="#ff2bd6" fill-opacity="0.60"/><circle cx="350.5" cy="329.4" r="2.09" fill="#ff2bd6" fill-opacity="0.49"/><circle cx="1089.0" cy="448.6" r="2.48" fill="#ff2bd6" fill-opacity="0.39"/><circle cx="229.4" cy="138.9" r="2.98" fill="#27e3ff" fill-opacity="0.47"/><circle cx="1175.4" cy="130.8" r="2.88" fill="#27e3ff" fill-opacity="0.35"/><circle cx="407.9" cy="347.0" r="1.34" fill="#27e3ff" fill-opacity="0.37"/><circle cx="445.5" cy="420.0" r="2.75" fill="#ff2bd6" fill-opacity="0.32"/><circle cx="389.5" cy="128.3" r="2.81" fill="#ff2bd6" fill-opacity="0.58"/><circle cx="495.7" cy="30.1" r="1.70" fill="#27e3ff" fill-opacity="0.46"/><circle cx="1381.1" cy="301.7" r="1.73" fill="#ff2bd6" fill-opacity="0.49"/><circle cx="1384.5" cy="373.1" r="2.26" fill="#27e3ff" fill-opacity="0.63"/><circle cx="374.9" cy="394.2" r="2.41" fill="#27e3ff" fill-opacity="0.51"/>
    <rect x="0" y="428" width="1536" height="2" fill="#ff2bd6" fill-opacity="0.35"/>
    <rect width="1536" height="1024" fill="url(#ngCalm)"/>
  
</svg>
