<?xml version="1.0" encoding="UTF-8"?>
<svg xmlns="http://www.w3.org/2000/svg" width="1536" height="1024" viewBox="0 0 1536 1024">
<defs>
    <linearGradient id="bwBase" x1="0" y1="0" x2="0" y2="1">
      <stop offset="0%" stop-color="#1b0907"/>
      <stop offset="100%" stop-color="#1e0a08"/>
    </linearGradient>
    <radialGradient id="bwSheen" cx="48%" cy="20%" r="55%">
      <stop offset="0%" stop-color="#e6cf9c" stop-opacity="0.10"/>
      <stop offset="100%" stop-color="#e6cf9c" stop-opacity="0"/>
    </radialGradient>
    <radialGradient id="bwCalm" cx="50%" cy="55%" r="36%">
      <stop offset="0%" stop-color="#1e0a08" stop-opacity="0.55"/>
      <stop offset="100%" stop-color="#1e0a08" stop-opacity="0"/>
    </radialGradient>
  </defs>

    <rect width="1536" height="1024" fill="url(#bwBase)"/>
    <rect x="-217.0" y="3.0" width="205.8" height="58.8" rx="6" fill="#7a2f24" fill-opacity="0.74"/><rect x="3.0" y="3.0" width="206.8" height="59.3" rx="6" fill="#8e4e45" fill-opacity="0.77"/><rect x="223.0" y="3.0" width="204.6" height="57.2" rx="6" fill="#8e4e45" fill-opacity="0.76"/><rect x="443.0" y="3.0" width="210.3" height="59.8" rx="6" fill="#8e4e45" fill-opacity="0.63"/><rect x="663.0" y="3.0" width="204.1" height="57.4" rx="6" fill="#7a2f24" fill-opacity="0.76"/><rect x="883.0" y="3.0" width="207.4" height="58.3" rx="6" fill="#8e4e45" fill-opacity="0.72"/><rect x="1103.0" y="3.0" width="205.5" height="60.0" rx="6" fill="#8e4e45" fill-opacity="0.74"/><rect x="1323.0" y="3.0" width="204.2" height="59.9" rx="6" fill="#8e4e45" fill-opacity="0.64"/><rect x="1543.0" y="3.0" width="206.5" height="59.1" rx="6" fill="#8e4e45" fill-opacity="0.68"/><rect x="1763.0" y="3.0" width="210.0" height="58.3" rx="6" fill="#8e4e45" fill-opacity="0.75"/><rect x="-107.0" y="75.0" width="208.3" height="56.6" rx="6" fill="#7a2f24" fill-opacity="0.69"/><rect x="113.0" y="75.0" width="207.9" height="57.9" rx="6" fill="#7a2f24" fill-opacity="0.73"/><rect x="333.0" y="75.0" width="207.1" height="60.2" rx="6" fill="#8e4e45" fill-opacity="0.76"/><rect x="553.0" y="75.0" width="204.1" height="61.2" rx="6" fill="#e6cf9c" fill-opacity="0.71"/><rect x="773.0" y="75.0" width="208.3" height="56.8" rx="6" fill="#7a2f24" fill-opacity="0.63"/><rect x="993.0" y="75.0" width="210.9" height="60.5" rx="6" fill="#7a2f24" fill-opacity="0.66"/><rect x="1213.0" y="75.0" width="207.3" height="56.5" rx="6" fill="#7a2f24" fill-opacity="0.64"/><rect x="1433.0" y="75.0" width="206.7" height="58.4" rx="6" fill="#8e4e45" fill-opacity="0.67"/><rect x="1653.0" y="75.0" width="209.1" height="60.8" rx="6" fill="#8e4e45" fill-opacity="0.63"/><rect x="1873.0" y="75.0" width="208.3" height="57.3" rx="6" fill="#7a2f24" fill-opacity="0.74"/><rect x="-217.0" y="147.0" width="209.9" height="60.7" rx="6" fill="#8e4e45" fill-opacity="0.73"/><rect x="3.0" y="147.0" width="208.3" height="56.8" rx="6" fill="#8e4e45" fill-opacity="0.77"/><rect x="223.0" y="147.0" width="210.4" height="61.4" rx="6" fill="#8e4e45" fill-opacity="0.76"/><rect x="443.0" y="147.0" width="204.2" height="61.5" rx="6" fill="#7a2f24" fill-opacity="0.77"/><rect x="663.0" y="147.0" width="209.2" height="57.1" rx="6" fill="#7a2f24" fill-opacity="0.69"/><rect x="883.0" y="147.0" width="206.0" height="61.6" rx="6" fill="#8e4e45" fill-opacity="0.65"/><rect x="1103.0" y="147.0" width="206.5" height="61.3" rx="6" fill="#8e4e45" fill-opacity="0.75"/><rect x="1323.0" y="147.0" width="207.2" height="60.4" rx="6" fill="#8e4e45" fill-opacity="0.76"/><rect x="1543.0" y="147.0" width="209.0" height="61.1" rx="6" fill="#7a2f24" fill-opacity="0.66"/><rect x="1763.0" y="147.0" width="207.3" height="59.2" rx="6" fill="#7a2f24" fill-opacity="0.66"/><rect x="-107.0" y="219.0" width="207.6" height="57.2" rx="6" fill="#8e4e45" fill-opacity="0.74"/><rect x="113.0" y="219.0" width="209.3" height="59.7" rx="6" fill="#8e4e45" fill-opacity="0.74"/><rect x="333.0" y="219.0" width="208.1" height="57.5" rx="6" fill="#7a2f24" fill-opacity="0.72"/><rect x="553.0" y="219.0" width="210.3" height="60.1" rx="6" fill="#7a2f24" fill-opacity="0.66"/><rect x="773.0" y="219.0" width="209.0" height="56.1" rx="6" fill="#8e4e45" fill-opacity="0.72"/><rect x="993.0" y="219.0" width="210.4" height="59.9" rx="6" fill="#7a2f24" fill-opacity="0.73"/><rect x="1213.0" y="219.0" width="206.5" height="58.7" rx="6" fill="#8e4e45" fill-opacity="0.76"/><rect x="1433.0" y="219.0" width="210.5" height="58.9" rx="6" fill="#8e4e45" fill-opacity="0.62"/><rect x="1653.0" y="219.0" width="207.6" height="58.8" rx="6" fill="#8e4e45" fill-opacity="0.68"/><rect x="1873.0" y="219.0" width="209.5" height="56.4" rx="6" fill="#7a2f24" fill-opacity="0.64"/><rect x="-217.0" y="291.0" width="204.8" height="60.3" rx="6" fill="#8e4e45" fill-opacity="0.67"/><rect x="3.0" y="291.0" width="210.4" height="57.5" rx="6" fill="#8e4e45" fill-opacity="0.67"/><rect x="223.0" y="291.0" width="208.4" height="61.8" rx="6" fill="#7a2f24" fill-opacity="0.71"/><rect x="443.0" y="291.0" width="205.5" height="61.3" rx="6" fill="#8e4e45" fill-opacity="0.71"/><rect x="663.0" y="291.0" width="210.0" height="59.5" rx="6" fill="#7a2f24" fill-opacity="0.66"/><rect x="883.0" y="291.0" width="209.2" height="56.2" rx="6" fill="#7a2f24" fill-opacity="0.74"/><rect x="1103.0" y="291.0" width="206.4" height="59.7" rx="6" fill="#8e4e45" fill-opacity="0.66"/><rect x="1323.0" y="291.0" width="207.4" height="60.1" rx="6" fill="#7a2f24" fill-opacity="0.65"/><rect x="1543.0" y="291.0" width="206.7" height="58.6" rx="6" fill="#7a2f24" fill-opacity="0.75"/><rect x="1763.0" y="291.0" width="207.2" height="61.0" rx="6" fill="#7a2f24" fill-opacity="0.65"/><rect x="-107.0" y="363.0" width="208.8" height="61.1" rx="6" fill="#8e4e45" fill-opacity="0.73"/><rect x="113.0" y="363.0" width="204.8" height="61.2" rx="6" fill="#8e4e45" fill-opacity="0.68"/><rect x="333.0" y="363.0" width="205.5" height="56.3" rx="6" fill="#8e4e45" fill-opacity="0.76"/><rect x="553.0" y="363.0" width="208.5" height="56.4" rx="6" fill="#7a2f24" fill-opacity="0.74"/><rect x="773.0" y="363.0" width="204.5" height="56.2" rx="6" fill="#7a2f24" fill-opacity="0.63"/><rect x="993.0" y="363.0" width="204.2" height="59.0" rx="6" fill="#8e4e45" fill-opacity="0.72"/><rect x="1213.0" y="363.0" width="206.4" height="62.0" rx="6" fill="#e6cf9c" fill-opacity="0.75"/><rect x="1433.0" y="363.0" width="207.2" height="57.7" rx="6" fill="#8e4e45" fill-opacity="0.74"/><rect x="1653.0" y="363.0" width="210.3" height="59.6" rx="6" fill="#7a2f24" fill-opacity="0.63"/><rect x="1873.0" y="363.0" width="210.4" height="57.0" rx="6" fill="#7a2f24" fill-opacity="0.73"/><rect x="-217.0" y="435.0" width="211.9" height="59.4" rx="6" fill="#8e4e45" fill-opacity="0.73"/><rect x="3.0" y="435.0" width="211.6" height="60.5" rx="6" fill="#8e4e45" fill-opacity="0.78"/><rect x="223.0" y="435.0" width="206.8" height="57.1" rx="6" fill="#8e4e45" fill-opacity="0.75"/><rect x="443.0" y="435.0" width="211.8" height="60.2" rx="6" fill="#7a2f24" fill-opacity="0.67"/><rect x="663.0" y="435.0" width="205.5" height="57.3" rx="6" fill="#8e4e45" fill-opacity="0.68"/><rect x="883.0" y="435.0" width="205.0" height="60.0" rx="6" fill="#7a2f24" fill-opacity="0.62"/><rect x="1103.0" y="435.0" width="209.1" height="61.2" rx="6" fill="#7a2f24" fill-opacity="0.64"/><rect x="1323.0" y="435.0" width="209.9" height="59.4" rx="6" fill="#8e4e45" fill-opacity="0.65"/><rect x="1543.0" y="435.0" width="207.6" height="57.3" rx="6" fill="#8e4e45" fill-opacity="0.70"/><rect x="1763.0" y="435.0" width="211.9" height="56.5" rx="6" fill="#8e4e45" fill-opacity="0.71"/><rect x="-107.0" y="507.0" width="211.6" height="61.5" rx="6" fill="#8e4e45" fill-opacity="0.70"/><rect x="113.0" y="507.0" width="206.3" height="57.9" rx="6" fill="#7a2f24" fill-opacity="0.62"/><rect x="333.0" y="507.0" width="207.1" height="59.5" rx="6" fill="#7a2f24" fill-opacity="0.75"/><rect x="553.0" y="507.0" width="205.3" height="57.9" rx="6" fill="#7a2f24" fill-opacity="0.68"/><rect x="773.0" y="507.0" width="208.3" height="58.2" rx="6" fill="#7a2f24" fill-opacity="0.62"/><rect x="993.0" y="507.0" width="206.8" height="58.9" rx="6" fill="#8e4e45" fill-opacity="0.72"/><rect x="1213.0" y="507.0" width="204.1" height="60.2" rx="6" fill="#8e4e45" fill-opacity="0.72"/><rect x="1433.0" y="507.0" width="205.1" height="59.8" rx="6" fill="#8e4e45" fill-opacity="0.69"/><rect x="1653.0" y="507.0" width="204.8" height="56.8" rx="6" fill="#7a2f24" fill-opacity="0.63"/><rect x="1873.0" y="507.0" width="211.1" height="59.3" rx="6" fill="#8e4e45" fill-opacity="0.71"/><rect x="-217.0" y="579.0" width="205.8" height="60.5" rx="6" fill="#7a2f24" fill-opacity="0.70"/><rect x="3.0" y="579.0" width="211.7" height="56.8" rx="6" fill="#7a2f24" fill-opacity="0.75"/><rect x="223.0" y="579.0" width="207.5" height="56.4" rx="6" fill="#7a2f24" fill-opacity="0.71"/><rect x="443.0" y="579.0" width="207.9" height="59.3" rx="6" fill="#8e4e45" fill-opacity="0.68"/><rect x="663.0" y="579.0" width="207.9" height="58.3" rx="6" fill="#7a2f24" fill-opacity="0.62"/><rect x="883.0" y="579.0" width="211.8" height="61.2" rx="6" fill="#8e4e45" fill-opacity="0.63"/><rect x="1103.0" y="579.0" width="206.1" height="56.0" rx="6" fill="#8e4e45" fill-opacity="0.77"/><rect x="1323.0" y="579.0" width="211.2" height="59.7" rx="6" fill="#8e4e45" fill-opacity="0.72"/><rect x="1543.0" y="579.0" width="210.6" height="59.1" rx="6" fill="#e6cf9c" fill-opacity="0.67"/><rect x="1763.0" y="579.0" width="211.1" height="57.0" rx="6" fill="#8e4e45" fill-opacity="0.68"/><rect x="-107.0" y="651.0" width="204.6" height="57.4" rx="6" fill="#8e4e45" fill-opacity="0.66"/><rect x="113.0" y="651.0" width="205.7" height="60.4" rx="6" fill="#8e4e45" fill-opacity="0.70"/><rect x="333.0" y="651.0" width="205.2" height="57.5" rx="6" fill="#e6cf9c" fill-opacity="0.76"/><rect x="553.0" y="651.0" width="207.2" height="58.1" rx="6" fill="#7a2f24" fill-opacity="0.76"/><rect x="773.0" y="651.0" width="205.9" height="58.4" rx="6" fill="#7a2f24" fill-opacity="0.72"/><rect x="993.0" y="651.0" width="205.0" height="61.7" rx="6" fill="#7a2f24" fill-opacity="0.69"/><rect x="1213.0" y="651.0" width="205.3" height="61.8" rx="6" fill="#7a2f24" fill-opacity="0.64"/><rect x="1433.0" y="651.0" width="205.0" height="60.8" rx="6" fill="#8e4e45" fill-opacity="0.66"/><rect x="1653.0" y="651.0" width="206.7" height="57.7" rx="6" fill="#8e4e45" fill-opacity="0.66"/><rect x="1873.0" y="651.0" width="209.1" height="59.1" rx="6" fill="#8e4e45" fill-opacity="0.76"/><rect x="-217.0" y="723.0" width="208.7" height="60.3" rx="6" fill="#7a2f24" fill-opacity="0.62"/><rect x="3.0" y="723.0" width="210.1" height="56.5" rx="6" fill="#7a2f24" fill-opacity="0.65"/><rect x="223.0" y="723.0" width="206.2" height="60.2" rx="6" fill="#7a2f24" fill-opacity="0.65"/><rect x="443.0" y="723.0" width="207.7" height="57.1" rx="6" fill="#8e4e45" fill-opacity="0.68"/><rect x="663.0" y="723.0" width="211.8" height="60.7" rx="6" fill="#7a2f24" fill-opacity="0.63"/><rect x="883.0" y="723.0" width="210.9" height="58.2" rx="6" fill="#8e4e45" fill-opacity="0.72"/><rect x="1103.0" y="723.0" width="211.1" height="58.4" rx="6" fill="#7a2f24" fill-opacity="0.76"/><rect x="1323.0" y="723.0" width="204.8" height="60.2" rx="6" fill="#8e4e45" fill-opacity="0.64"/><rect x="1543.0" y="723.0" width="210.4" height="60.8" rx="6" fill="#7a2f24" fill-opacity="0.66"/><rect x="1763.0" y="723.0" width="207.9" height="58.6" rx="6" fill="#8e4e45" fill-opacity="0.74"/><rect x="-107.0" y="795.0" width="207.3" height="59.9" rx="6" fill="#8e4e45" fill-opacity="0.74"/><rect x="113.0" y="795.0" width="205.9" height="58.3" rx="6" fill="#8e4e45" fill-opacity="0.63"/><rect x="333.0" y="795.0" width="206.4" height="58.9" rx="6" fill="#7a2f24" fill-opacity="0.64"/><rect x="553.0" y="795.0" width="209.2" height="59.5" rx="6" fill="#8e4e45" fill-opacity="0.66"/><rect x="773.0" y="795.0" width="211.5" height="57.9" rx="6" fill="#7a2f24" fill-opacity="0.62"/><rect x="993.0" y="795.0" width="205.6" height="60.5" rx="6" fill="#8e4e45" fill-opacity="0.76"/><rect x="1213.0" y="795.0" width="208.4" height="59.6" rx="6" fill="#8e4e45" fill-opacity="0.65"/><rect x="1433.0" y="795.0" width="210.4" height="60.9" rx="6" fill="#8e4e45" fill-opacity="0.65"/><rect x="1653.0" y="795.0" width="206.2" height="59.0" rx="6" fill="#8e4e45" fill-opacity="0.70"/><rect x="1873.0" y="795.0" width="207.5" height="60.0" rx="6" fill="#8e4e45" fill-opacity="0.70"/><rect x="-217.0" y="867.0" width="207.1" height="58.1" rx="6" fill="#8e4e45" fill-opacity="0.76"/><rect x="3.0" y="867.0" width="207.8" height="57.0" rx="6" fill="#e6cf9c" fill-opacity="0.76"/><rect x="223.0" y="867.0" width="207.9" height="56.8" rx="6" fill="#7a2f24" fill-opacity="0.72"/><rect x="443.0" y="867.0" width="207.9" height="56.1" rx="6" fill="#8e4e45" fill-opacity="0.76"/><rect x="663.0" y="867.0" width="211.9" height="57.4" rx="6" fill="#7a2f24" fill-opacity="0.74"/><rect x="883.0" y="867.0" width="206.6" height="59.6" rx="6" fill="#8e4e45" fill-opacity="0.74"/><rect x="1103.0" y="867.0" width="207.0" height="60.2" rx="6" fill="#8e4e45" fill-opacity="0.76"/><rect x="1323.0" y="867.0" width="209.3" height="60.7" rx="6" fill="#7a2f24" fill-opacity="0.66"/><rect x="1543.0" y="867.0" width="212.0" height="61.5" rx="6" fill="#8e4e45" fill-opacity="0.75"/><rect x="1763.0" y="867.0" width="205.5" height="58.6" rx="6" fill="#7a2f24" fill-opacity="0.77"/><rect x="-107.0" y="939.0" width="208.7" height="60.6" rx="6" fill="#8e4e45" fill-opacity="0.72"/><rect x="113.0" y="939.0" width="209.0" height="60.3" rx="6" fill="#7a2f24" fill-opacity="0.69"/><rect x="333.0" y="939.0" width="209.0" height="58.0" rx="6" fill="#7a2f24" fill-opacity="0.74"/><rect x="553.0" y="939.0" width="206.5" height="57.8" rx="6" fill="#8e4e45" fill-opacity="0.71"/><rect x="773.0" y="939.0" width="204.5" height="57.0" rx="6" fill="#7a2f24" fill-opacity="0.66"/><rect x="993.0" y="939.0" width="205.0" height="57.0" rx="6" fill="#8e4e45" fill-opacity="0.74"/><rect x="1213.0" y="939.0" width="208.4" height="61.8" rx="6" fill="#7a2f24" fill-opacity="0.76"/><rect x="1433.0" y="939.0" width="209.1" height="57.9" rx="6" fill="#8e4e45" fill-opacity="0.76"/><rect x="1653.0" y="939.0" width="206.9" height="59.2" rx="6" fill="#7a2f24" fill-opacity="0.69"/><rect x="1873.0" y="939.0" width="210.3" height="59.1" rx="6" fill="#8e4e45" fill-opacity="0.70"/><rect x="-217.0" y="1011.0" width="210.0" height="56.1" rx="6" fill="#8e4e45" fill-opacity="0.70"/><rect x="3.0" y="1011.0" width="209.3" height="56.1" rx="6" fill="#7a2f24" fill-opacity="0.78"/><rect x="223.0" y="1011.0" width="209.3" height="56.7" rx="6" fill="#8e4e45" fill-opacity="0.76"/><rect x="443.0" y="1011.0" width="205.1" height="61.4" rx="6" fill="#7a2f24" fill-opacity="0.64"/><rect x="663.0" y="1011.0" width="206.9" height="61.0" rx="6" fill="#8e4e45" fill-opacity="0.78"/><rect x="883.0" y="1011.0" width="209.1" height="61.4" rx="6" fill="#7a2f24" fill-opacity="0.64"/><rect x="1103.0" y="1011.0" width="207.3" height="57.0" rx="6" fill="#7a2f24" fill-opacity="0.76"/><rect x="1323.0" y="1011.0" width="204.3" height="57.8" rx="6" fill="#7a2f24" fill-opacity="0.64"/><rect x="1543.0" y="1011.0" width="207.8" height="59.7" rx="6" fill="#8e4e45" fill-opacity="0.66"/><rect x="1763.0" y="1011.0" width="210.1" height="57.0" rx="6" fill="#e6cf9c" fill-opacity="0.71"/><rect x="-107.0" y="1083.0" width="204.1" height="61.3" rx="6" fill="#7a2f24" fill-opacity="0.66"/><rect x="113.0" y="1083.0" width="207.7" height="59.8" rx="6" fill="#8e4e45" fill-opacity="0.75"/><rect x="333.0" y="1083.0" width="208.5" height="57.5" rx="6" fill="#7a2f24" fill-opacity="0.68"/><rect x="553.0" y="1083.0" width="210.4" height="57.4" rx="6" fill="#7a2f24" fill-opacity="0.64"/><rect x="773.0" y="1083.0" width="207.2" height="61.0" rx="6" fill="#8e4e45" fill-opacity="0.64"/><rect x="993.0" y="1083.0" width="210.7" height="58.3" rx="6" fill="#8e4e45" fill-opacity="0.68"/><rect x="1213.0" y="1083.0" width="209.2" height="58.7" rx="6" fill="#8e4e45" fill-opacity="0.62"/><rect x="1433.0" y="1083.0" width="208.9" height="58.0" rx="6" fill="#7a2f24" fill-opacity="0.72"/><rect x="1653.0" y="1083.0" width="209.0" height="58.8" rx="6" fill="#8e4e45" fill-opacity="0.68"/><rect x="1873.0" y="1083.0" width="209.3" height="61.4" rx="6" fill="#8e4e45" fill-opacity="0.72"/><rect x="-217.0" y="1155.0" width="207.2" height="61.4" rx="6" fill="#7a2f24" fill-opacity="0.75"/><rect x="3.0" y="1155.0" width="210.1" height="56.3" rx="6" fill="#7a2f24" fill-opacity="0.66"/><rect x="223.0" y="1155.0" width="210.0" height="59.4" rx="6" fill="#8e4e45" fill-opacity="0.64"/><rect x="443.0" y="1155.0" width="206.9" height="60.9" rx="6" fill="#7a2f24" fill-opacity="0.64"/><rect x="663.0" y="1155.0" width="210.9" height="57.6" rx="6" fill="#8e4e45" fill-opacity="0.63"/><rect x="883.0" y="1155.0" width="208.8" height="58.6" rx="6" fill="#8e4e45" fill-opacity="0.64"/><rect x="1103.0" y="1155.0" width="209.1" height="59.6" rx="6" fill="#8e4e45" fill-opacity="0.65"/><rect x="1323.0" y="1155.0" width="206.5" height="58.7" rx="6" fill="#7a2f24" fill-opacity="0.63"/><rect x="1543.0" y="1155.0" width="207.5" height="57.7" rx="6" fill="#7a2f24" fill-opacity="0.63"/><rect x="1763.0" y="1155.0" width="204.6" height="59.5" rx="6" fill="#8e4e45" fill-opacity="0.66"/>
    <rect width="1536" height="1024" fill="url(#bwSheen)"/>
    <rect width="1536" height="1024" fill="url(#bwCalm)"/>
  
</svg>
