<?xml version="1.0" encoding="iso-8859-1"?>
<!-- Uploaded to: SVG Repo, www.svgrepo.com, Generator: SVG Repo Mixer Tools -->
<svg height="800px" width="800px" version="1.1" id="Layer_1" xmlns="http://www.w3.org/2000/svg" xmlns:xlink="http://www.w3.org/1999/xlink" 
	 viewBox="0 0 503.849 503.849" xml:space="preserve">
<path style="fill:#FDC794;" d="M433.033,347.621c14.372-14.372,14.372-36.828,0-51.2s-36.828-14.372-51.2,0l31.439-31.439
	c14.372-14.372,14.372-36.828,0-51.2s-36.828-14.372-51.2,0l25.151-25.151c14.372-14.372,14.372-36.828,0-51.2
	s-36.828-14.372-51.2,0l-25.151,25.151L414.17,61.979c14.372-14.372,14.372-36.828,0-51.2s-36.828-14.372-51.2,0L197.693,176.056
	l5.389-28.744c8.982-35.032-10.779-75.453-38.625-88.926c-3.593-0.898-7.186-1.796-10.779-2.695
	c-13.474-2.695-17.067,5.389-18.863,6.288c-2.695,1.796-2.695,75.453-19.761,133.839c0,0-11.677,48.505-12.575,88.926
	l-18.863,18.863c-31.439,31.439-31.439,82.639,0,114.077l63.775,63.775c25.151,25.151,70.961,29.642,100.604,10.779
	c7.186-4.491,17.965-9.881,26.049-10.779c11.677-0.898,35.032-9.881,57.488-31.439L433.033,347.621z"/>
<g>
	<path style="fill:#F9A671;" d="M185.118,202.105c-2.695-2.695-3.593-6.288-1.796-8.982l6.288-19.761
		c1.796-4.491,6.288-7.186,11.677-5.389c4.491,1.796,7.186,6.288,5.389,11.677l-6.288,18.863c-1.796,4.491-6.288,7.186-11.677,5.389
		C187.812,203.902,186.016,203.004,185.118,202.105"/>
	<path style="fill:#F9A671;" d="M230.03,246.119c-3.593-3.593-3.593-8.982,0-12.575l107.789-107.789
		c3.593-3.593,8.982-3.593,12.575,0c3.593,3.593,3.593,8.982,0,12.575L242.605,246.119
		C239.012,249.712,233.623,249.712,230.03,246.119"/>
	<path style="fill:#F9A671;" d="M286.619,291.032c-3.593-3.593-3.593-8.982,0-12.575l70.063-70.063
		c3.593-3.593,8.982-3.593,12.575,0c3.593,3.593,3.593,8.982,0,12.575l-70.063,70.063
		C296.5,294.625,290.212,294.625,286.619,291.032"/>
	<path style="fill:#F9A671;" d="M331.532,347.621c-3.593-3.593-3.593-8.982,0-12.575l44.014-44.912
		c3.593-3.593,8.982-3.593,12.575,0c3.593,3.593,3.593,8.982,0,12.575l-44.912,44.912
		C340.514,351.214,335.125,351.214,331.532,347.621"/>
	<path style="fill:#F9A671;" d="M230.03,462.596c-2.695-2.695-3.593-7.186-1.796-10.779c2.695-4.491,8.084-5.389,12.575-3.593
		l4.491,2.695c17.965,10.779,27.846,16.168,38.625,10.779c4.491-1.797,9.881,0,11.677,4.491c1.797,4.491,0,9.881-4.491,11.677
		c-19.761,9.881-36.828,0-55.691-10.779l-4.491-2.695C230.928,463.495,230.03,462.596,230.03,462.596"/>
	<path style="fill:#F9A671;" d="M108.767,341.333c-1.796-1.797-2.695-3.593-2.695-5.389c-0.898-6.288-1.796-12.575-2.695-18.863
		c-1.796-8.084-2.695-16.168-3.593-26.049c0-5.389,3.593-8.982,8.982-8.982s8.982,3.593,8.982,8.982
		c0,8.084,1.796,16.168,3.593,23.354c0.898,6.288,2.695,12.575,2.695,20.66c0.898,4.491-2.695,8.982-8.084,9.881
		C113.258,344.028,110.563,343.13,108.767,341.333"/>
</g>
</svg>