<?xml version="1.0" encoding="UTF-8"?>
<svg xmlns="http://www.w3.org/2000/svg" width="1536" height="1024" viewBox="0 0 1536 1024">
<defs>
    <linearGradient id="ngBase" x1="0" y1="0" x2="0" y2="1">
      <stop offset="0%" stop-color="#030208"/>
      <stop offset="50%" stop-color="#05040e"/>
      <stop offset="100%" stop-color="#0a0820"/>
    </linearGradient>
    <radialGradient id="ngGlow" cx="50%" cy="42%" r="55%">
      <stop offset="0%" stop-color="#ff2bd6" stop-opacity="0.35"/>
      <stop offset="100%" stop-color="#ff2bd6" stop-opacity="0"/>
    </radialGradient>
  </defs>

    <rect width="1536" height="1024" fill="url(#ngBase)"/>
    <rect width="1536" height="1024" fill="url(#ngGlow)"/>
    <line x1="768" y1="430" x2="-1382.4" y2="1024" stroke="#27e3ff" stroke-opacity="0.35" stroke-width="1.4"/><line x1="768" y1="430" x2="-1292.8" y2="1024" stroke="#27e3ff" stroke-opacity="0.35" stroke-width="1.4"/><line x1="768" y1="430" x2="-1203.2" y2="1024" stroke="#27e3ff" stroke-opacity="0.35" stroke-width="1.4"/><line x1="768" y1="430" x2="-1113.6" y2="1024" stroke="#27e3ff" stroke-opacity="0.35" stroke-width="1.4"/><line x1="768" y1="430" x2="-1024.0" y2="1024" stroke="#27e3ff" stroke-opacity="0.35" stroke-width="1.4"/><line x1="768" y1="430" x2="-934.4" y2="1024" stroke="#27e3ff" stroke-opacity="0.35" stroke-width="1.4"/><line x1="768" y1="430" x2="-844.8" y2="1024" stroke="#27e3ff" stroke-opacity="0.35" stroke-width="1.4"/><line x1="768" y1="430" x2="-755.2" y2="1024" stroke="#27e3ff" stroke-opacity="0.35" stroke-width="1.4"/><line x1="768" y1="430" x2="-665.6" y2="1024" stroke="#27e3ff" stroke-opacity="0.35" stroke-width="1.4"/><line x1="768" y1="430" x2="-576.0" y2="1024" stroke="#27e3ff" stroke-opacity="0.35" stroke-width="1.4"/><line x1="768" y1="430" x2="-486.4" y2="1024" stroke="#27e3ff" stroke-opacity="0.35" stroke-width="1.4"/><line x1="768" y1="430" x2="-396.8" y2="1024" stroke="#27e3ff" stroke-opacity="0.35" stroke-width="1.4"/><line x1="768" y1="430" x2="-307.2" y2="1024" stroke="#27e3ff" stroke-opacity="0.35" stroke-width="1.4"/><line x1="768" y1="430" x2="-217.6" y2="1024" stroke="#27e3ff" stroke-opacity="0.35" stroke-width="1.4"/><line x1="768" y1="430" x2="-128.0" y2="1024" stroke="#27e3ff" stroke-opacity="0.35" stroke-width="1.4"/><line x1="768" y1="430" x2="-38.4" y2="1024" stroke="#27e3ff" stroke-opacity="0.35" stroke-width="1.4"/><line x1="768" y1="430" x2="51.2" y2="1024" stroke="#27e3ff" stroke-opacity="0.35" stroke-width="1.4"/><line x1="768" y1="430" x2="140.8" y2="1024" stroke="#27e3ff" stroke-opacity="0.35" stroke-width="1.4"/><line x1="768" y1="430" x2="230.4" y2="1024" stroke="#27e3ff" stroke-opacity="0.35" stroke-width="1.4"/><line x1="768" y1="430" x2="320.0" y2="1024" stroke="#27e3ff" stroke-opacity="0.35" stroke-width="1.4"/><line x1="768" y1="430" x2="409.6" y2="1024" stroke="#27e3ff" stroke-opacity="0.35" stroke-width="1.4"/><line x1="768" y1="430" x2="499.2" y2="1024" stroke="#27e3ff" stroke-opacity="0.35" stroke-width="1.4"/><line x1="768" y1="430" x2="588.8" y2="1024" stroke="#27e3ff" stroke-opacity="0.35" stroke-width="1.4"/><line x1="768" y1="430" x2="678.4" y2="1024" stroke="#27e3ff" stroke-opacity="0.35" stroke-width="1.4"/><line x1="768" y1="430" x2="768.0" y2="1024" stroke="#27e3ff" stroke-opacity="0.35" stroke-width="1.4"/><line x1="768" y1="430" x2="857.6" y2="1024" stroke="#27e3ff" stroke-opacity="0.35" stroke-width="1.4"/><line x1="768" y1="430" x2="947.2" y2="1024" stroke="#27e3ff" stroke-opacity="0.35" stroke-width="1.4"/><line x1="768" y1="430" x2="1036.8" y2="1024" stroke="#27e3ff" stroke-opacity="0.35" stroke-width="1.4"/><line x1="768" y1="430" x2="1126.4" y2="1024" stroke="#27e3ff" stroke-opacity="0.35" stroke-width="1.4"/><line x1="768" y1="430" x2="1216.0" y2="1024" stroke="#27e3ff" stroke-opacity="0.35" stroke-width="1.4"/><line x1="768" y1="430" x2="1305.6" y2="1024" stroke="#27e3ff" stroke-opacity="0.35" stroke-width="1.4"/><line x1="768" y1="430" x2="1395.2" y2="1024" stroke="#27e3ff" stroke-opacity="0.35" stroke-width="1.4"/><line x1="768" y1="430" x2="1484.8" y2="1024" stroke="#27e3ff" stroke-opacity="0.35" stroke-width="1.4"/><line x1="768" y1="430" x2="1574.4" y2="1024" stroke="#27e3ff" stroke-opacity="0.35" stroke-width="1.4"/><line x1="768" y1="430" x2="1664.0" y2="1024" stroke="#27e3ff" stroke-opacity="0.35" stroke-width="1.4"/><line x1="768" y1="430" x2="1753.6" y2="1024" stroke="#27e3ff" stroke-opacity="0.35" stroke-width="1.4"/><line x1="768" y1="430" x2="1843.2" y2="1024" stroke="#27e3ff" stroke-opacity="0.35" stroke-width="1.4"/><line x1="768" y1="430" x2="1932.8" y2="1024" stroke="#27e3ff" stroke-opacity="0.35" stroke-width="1.4"/><line x1="768" y1="430" x2="2022.4" y2="1024" stroke="#27e3ff" stroke-opacity="0.35" stroke-width="1.4"/><line x1="768" y1="430" x2="2112.0" y2="1024" stroke="#27e3ff" stroke-opacity="0.35" stroke-width="1.4"/><line x1="768" y1="430" x2="2201.6" y2="1024" stroke="#27e3ff" stroke-opacity="0.35" stroke-width="1.4"/><line x1="768" y1="430" x2="2291.2" y2="1024" stroke="#27e3ff" stroke-opacity="0.35" stroke-width="1.4"/><line x1="768" y1="430" x2="2380.8" y2="1024" stroke="#27e3ff" stroke-opacity="0.35" stroke-width="1.4"/><line x1="768" y1="430" x2="2470.4" y2="1024" stroke="#27e3ff" stroke-opacity="0.35" stroke-width="1.4"/><line x1="768" y1="430" x2="2560.0" y2="1024" stroke="#27e3ff" stroke-opacity="0.35" stroke-width="1.4"/><line x1="768" y1="430" x2="2649.6" y2="1024" stroke="#27e3ff" stroke-opacity="0.35" stroke-width="1.4"/><line x1="768" y1="430" x2="2739.2" y2="1024" stroke="#27e3ff" stroke-opacity="0.35" stroke-width="1.4"/><line x1="768" y1="430" x2="2828.8" y2="1024" stroke="#27e3ff" stroke-opacity="0.35" stroke-width="1.4"/><line x1="768" y1="430" x2="2918.4" y2="1024" stroke="#27e3ff" stroke-opacity="0.35" stroke-width="1.4"/>
    <line x1="0" y1="430.0" x2="1536" y2="430.0" stroke="#ff2bd6" stroke-opacity="0.18" stroke-width="1.20"/><line x1="0" y1="434.4" x2="1536" y2="434.4" stroke="#ff2bd6" stroke-opacity="0.21" stroke-width="1.29"/><line x1="0" y1="444.2" x2="1536" y2="444.2" stroke="#ff2bd6" stroke-opacity="0.24" stroke-width="1.38"/><line x1="0" y1="458.2" x2="1536" y2="458.2" stroke="#ff2bd6" stroke-opacity="0.27" stroke-width="1.47"/><line x1="0" y1="476.1" x2="1536" y2="476.1" stroke="#ff2bd6" stroke-opacity="0.30" stroke-width="1.56"/><line x1="0" y1="497.3" x2="1536" y2="497.3" stroke="#ff2bd6" stroke-opacity="0.33" stroke-width="1.64"/><line x1="0" y1="521.8" x2="1536" y2="521.8" stroke="#ff2bd6" stroke-opacity="0.36" stroke-width="1.73"/><line x1="0" y1="549.3" x2="1536" y2="549.3" stroke="#ff2bd6" stroke-opacity="0.39" stroke-width="1.82"/><line x1="0" y1="579.6" x2="1536" y2="579.6" stroke="#ff2bd6" stroke-opacity="0.42" stroke-width="1.91"/><line x1="0" y1="612.8" x2="1536" y2="612.8" stroke="#ff2bd6" stroke-opacity="0.46" stroke-width="2.00"/><line x1="0" y1="648.7" x2="1536" y2="648.7" stroke="#ff2bd6" stroke-opacity="0.49" stroke-width="2.09"/><line x1="0" y1="687.2" x2="1536" y2="687.2" stroke="#ff2bd6" stroke-opacity="0.52" stroke-width="2.18"/><line x1="0" y1="728.1" x2="1536" y2="728.1" stroke="#ff2bd6" stroke-opacity="0.55" stroke-width="2.27"/><line x1="0" y1="771.6" x2="1536" y2="771.6" stroke="#ff2bd6" stroke-opacity="0.58" stroke-width="2.36"/><line x1="0" y1="817.5" x2="1536" y2="817.5" stroke="#ff2bd6" stroke-opacity="0.61" stroke-width="2.44"/><line x1="0" y1="865.7" x2="1536" y2="865.7" stroke="#ff2bd6" stroke-opacity="0.64" stroke-width="2.53"/><line x1="0" y1="916.2" x2="1536" y2="916.2" stroke="#ff2bd6" stroke-opacity="0.67" stroke-width="2.62"/><line x1="0" y1="969.0" x2="1536" y2="969.0" stroke="#ff2bd6" stroke-opacity="0.70" stroke-width="2.71"/>
    <rect x="0" y="0" width="1536" height="2" fill="#178899" fill-opacity="0.05"/><rect x="0" y="6" width="1536" height="2" fill="#178899" fill-opacity="0.05"/><rect x="0" y="12" width="1536" height="2" fill="#178899" fill-opacity="0.05"/><rect x="0" y="18" width="1536" height="2" fill="#178899" fill-opacity="0.05"/><rect x="0" y="24" width="1536" height="2" fill="#178899" fill-opacity="0.05"/><rect x="0" y="30" width="1536" height="2" fill="#178899" fill-opacity="0.05"/><rect x="0" y="36" width="1536" height="2" fill="#178899" fill-opacity="0.05"/><rect x="0" y="42" width="1536" height="2" fill="#178899" fill-opacity="0.05"/><rect x="0" y="48" width="1536" height="2" fill="#178899" fill-opacity="0.05"/><rect x="0" y="54" width="1536" height="2" fill="#178899" fill-opacity="0.05"/><rect x="0" y="60" width="1536" height="2" fill="#178899" fill-opacity="0.05"/><rect x="0" y="66" width="1536" height="2" fill="#178899" fill-opacity="0.05"/><rect x="0" y="72" width="1536" height="2" fill="#178899" fill-opacity="0.05"/><rect x="0" y="78" width="1536" height="2" fill="#178899" fill-opacity="0.05"/><rect x="0" y="84" width="1536" height="2" fill="#178899" fill-opacity="0.05"/><rect x="0" y="90" width="1536" height="2" fill="#178899" fill-opacity="0.05"/><rect x="0" y="96" width="1536" height="2" fill="#178899" fill-opacity="0.05"/><rect x="0" y="102" width="1536" height="2" fill="#178899" fill-opacity="0.05"/><rect x="0" y="108" width="1536" height="2" fill="#178899" fill-opacity="0.05"/><rect x="0" y="114" width="1536" height="2" fill="#178899" fill-opacity="0.05"/><rect x="0" y="120" width="1536" height="2" fill="#178899" fill-opacity="0.05"/><rect x="0" y="126" width="1536" height="2" fill="#178899" fill-opacity="0.05"/><rect x="0" y="132" width="1536" height="2" fill="#178899" fill-opacity="0.05"/><rect x="0" y="138" width="1536" height="2" fill="#178899" fill-opacity="0.05"/><rect x="0" y="144" width="1536" height="2" fill="#178899" fill-opacity="0.05"/><rect x="0" y="150" width="1536" height="2" fill="#178899" fill-opacity="0.05"/><rect x="0" y="156" width="1536" height="2" fill="#178899" fill-opacity="0.05"/><rect x="0" y="162" width="1536" height="2" fill="#178899" fill-opacity="0.05"/><rect x="0" y="168" width="1536" height="2" fill="#178899" fill-opacity="0.05"/><rect x="0" y="174" width="1536" height="2" fill="#178899" fill-opacity="0.05"/><rect x="0" y="180" width="1536" height="2" fill="#178899" fill-opacity="0.05"/><rect x="0" y="186" width="1536" height="2" fill="#178899" fill-opacity="0.05"/><rect x="0" y="192" width="1536" height="2" fill="#178899" fill-opacity="0.05"/><rect x="0" y="198" width="1536" height="2" fill="#178899" fill-opacity="0.05"/><rect x="0" y="204" width="1536" height="2" fill="#178899" fill-opacity="0.05"/><rect x="0" y="210" width="1536" height="2" fill="#178899" fill-opacity="0.05"/><rect x="0" y="216" width="1536" height="2" fill="#178899" fill-opacity="0.05"/><rect x="0" y="222" width="1536" height="2" fill="#178899" fill-opacity="0.05"/><rect x="0" y="228" width="1536" height="2" fill="#178899" fill-opacity="0.05"/><rect x="0" y="234" width="1536" height="2" fill="#178899" fill-opacity="0.05"/><rect x="0" y="240" width="1536" height="2" fill="#178899" fill-opacity="0.05"/><rect x="0" y="246" width="1536" height="2" fill="#178899" fill-opacity="0.05"/><rect x="0" y="252" width="1536" height="2" fill="#178899" fill-opacity="0.05"/><rect x="0" y="258" width="1536" height="2" fill="#178899" fill-opacity="0.05"/><rect x="0" y="264" width="1536" height="2" fill="#178899" fill-opacity="0.05"/><rect x="0" y="270" width="1536" height="2" fill="#178899" fill-opacity="0.05"/><rect x="0" y="276" width="1536" height="2" fill="#178899" fill-opacity="0.05"/><rect x="0" y="282" width="1536" height="2" fill="#178899" fill-opacity="0.05"/><rect x="0" y="288" width="1536" height="2" fill="#178899" fill-opacity="0.05"/><rect x="0" y="294" width="1536" height="2" fill="#178899" fill-opacity="0.05"/><rect x="0" y="300" width="1536" height="2" fill="#178899" fill-opacity="0.05"/><rect x="0" y="306" width="1536" height="2" fill="#178899" fill-opacity="0.05"/><rect x="0" y="312" width="1536" height="2" fill="#178899" fill-opacity="0.05"/><rect x="0" y="318" width="1536" height="2" fill="#178899" fill-opacity="0.05"/><rect x="0" y="324" width="1536" height="2" fill="#178899" fill-opacity="0.05"/><rect x="0" y="330" width="1536" height="2" fill="#178899" fill-opacity="0.05"/><rect x="0" y="336" width="1536" height="2" fill="#178899" fill-opacity="0.05"/><rect x="0" y="342" width="1536" height="2" fill="#178899" fill-opacity="0.05"/><rect x="0" y="348" width="1536" height="2" fill="#178899" fill-opacity="0.05"/><rect x="0" y="354" width="1536" height="2" fill="#178899" fill-opacity="0.05"/><rect x="0" y="360" width="1536" height="2" fill="#178899" fill-opacity="0.05"/><rect x="0" y="366" width="1536" height="2" fill="#178899" fill-opacity="0.05"/><rect x="0" y="372" width="1536" height="2" fill="#178899" fill-opacity="0.05"/><rect x="0" y="378" width="1536" height="2" fill="#178899" fill-opacity="0.05"/><rect x="0" y="384" width="1536" height="2" fill="#178899" fill-opacity="0.05"/><rect x="0" y="390" width="1536" height="2" fill="#178899" fill-opacity="0.05"/><rect x="0" y="396" width="1536" height="2" fill="#178899" fill-opacity="0.05"/><rect x="0" y="402" width="1536" height="2" fill="#178899" fill-opacity="0.05"/><rect x="0" y="408" width="1536" height="2" fill="#178899" fill-opacity="0.05"/><rect x="0" y="414" width="1536" height="2" fill="#178899" fill-opacity="0.05"/><rect x="0" y="420" width="1536" height="2" fill="#178899" fill-opacity="0.05"/><rect x="0" y="426" width="1536" height="2" fill="#178899" fill-opacity="0.05"/><rect x="0" y="432" width="1536" height="2" fill="#178899" fill-opacity="0.05"/><rect x="0" y="438" width="1536" height="2" fill="#178899" fill-opacity="0.05"/><rect x="0" y="444" width="1536" height="2" fill="#178899" fill-opacity="0.05"/><rect x="0" y="450" width="1536" height="2" fill="#178899" fill-opacity="0.05"/><rect x="0" y="456" width="1536" height="2" fill="#178899" fill-opacity="0.05"/><rect x="0" y="462" width="1536" height="2" fill="#178899" fill-opacity="0.05"/><rect x="0" y="468" width="1536" height="2" fill="#178899" fill-opacity="0.05"/><rect x="0" y="474" width="1536" height="2" fill="#178899" fill-opacity="0.05"/><rect x="0" y="480" width="1536" height="2" fill="#178899" fill-opacity="0.05"/><rect x="0" y="486" width="1536" height="2" fill="#178899" fill-opacity="0.05"/><rect x="0" y="492" width="1536" height="2" fill="#178899" fill-opacity="0.05"/><rect x="0" y="498" width="1536" height="2" fill="#178899" fill-opacity="0.05"/><rect x="0" y="504" width="1536" height="2" fill="#178899" fill-opacity="0.05"/><rect x="0" y="510" width="1536" height="2" fill="#178899" fill-opacity="0.05"/><rect x="0" y="516" width="1536" height="2" fill="#178899" fill-opacity="0.05"/><rect x="0" y="522" width="1536" height="2" fill="#178899" fill-opacity="0.05"/><rect x="0" y="528" width="1536" height="2" fill="#178899" fill-opacity="0.05"/><rect x="0" y="534" width="1536" height="2" fill="#178899" fill-opacity="0.05"/><rect x="0" y="540" width="1536" height="2" fill="#178899" fill-opacity="0.05"/><rect x="0" y="546" width="1536" height="2" fill="#178899" fill-opacity="0.05"/><rect x="0" y="552" width="1536" height="2" fill="#178899" fill-opacity="0.05"/><rect x="0" y="558" width="1536" height="2" fill="#178899" fill-opacity="0.05"/><rect x="0" y="564" width="1536" height="2" fill="#178899" fill-opacity="0.05"/><rect x="0" y="570" width="1536" height="2" fill="#178899" fill-opacity="0.05"/><rect x="0" y="576" width="1536" height="2" fill="#178899" fill-opacity="0.05"/><rect x="0" y="582" width="1536" height="2" fill="#178899" fill-opacity="0.05"/><rect x="0" y="588" width="1536" height="2" fill="#178899" fill-opacity="0.05"/><rect x="0" y="594" width="1536" height="2" fill="#178899" fill-opacity="0.05"/><rect x="0" y="600" width="1536" height="2" fill="#178899" fill-opacity="0.05"/><rect x="0" y="606" width="1536" height="2" fill="#178899" fill-opacity="0.05"/><rect x="0" y="612" width="1536" height="2" fill="#178899" fill-opacity="0.05"/><rect x="0" y="618" width="1536" height="2" fill="#178899" fill-opacity="0.05"/><rect x="0" y="624" width="1536" height="2" fill="#178899" fill-opacity="0.05"/><rect x="0" y="630" width="1536" height="2" fill="#178899" fill-opacity="0.05"/><rect x="0" y="636" width="1536" height="2" fill="#178899" fill-opacity="0.05"/><rect x="0" y="642" width="1536" height="2" fill="#178899" fill-opacity="0.05"/><rect x="0" y="648" width="1536" height="2" fill="#178899" fill-opacity="0.05"/><rect x="0" y="654" width="1536" height="2" fill="#178899" fill-opacity="0.05"/><rect x="0" y="660" width="1536" height="2" fill="#178899" fill-opacity="0.05"/><rect x="0" y="666" width="1536" height="2" fill="#178899" fill-opacity="0.05"/><rect x="0" y="672" width="1536" height="2" fill="#178899" fill-opacity="0.05"/><rect x="0" y="678" width="1536" height="2" fill="#178899" fill-opacity="0.05"/><rect x="0" y="684" width="1536" height="2" fill="#178899" fill-opacity="0.05"/><rect x="0" y="690" width="1536" height="2" fill="#178899" fill-opacity="0.05"/><rect x="0" y="696" width="1536" height="2" fill="#178899" fill-opacity="0.05"/><rect x="0" y="702" width="1536" height="2" fill="#178899" fill-opacity="0.05"/><rect x="0" y="708" width="1536" height="2" fill="#178899" fill-opacity="0.05"/><rect x="0" y="714" width="1536" height="2" fill="#178899" fill-opacity="0.05"/><rect x="0" y="720" width="1536" height="2" fill="#178899" fill-opacity="0.05"/><rect x="0" y="726" width="1536" height="2" fill="#178899" fill-opacity="0.05"/><rect x="0" y="732" width="1536" height="2" fill="#178899" fill-opacity="0.05"/><rect x="0" y="738" width="1536" height="2" fill="#178899" fill-opacity="0.05"/><rect x="0" y="744" width="1536" height="2" fill="#178899" fill-opacity="0.05"/><rect x="0" y="750" width="1536" height="2" fill="#178899" fill-opacity="0.05"/><rect x="0" y="756" width="1536" height="2" fill="#178899" fill-opacity="0.05"/><rect x="0" y="762" width="1536" height="2" fill="#178899" fill-opacity="0.05"/><rect x="0" y="768" width="1536" height="2" fill="#178899" fill-opacity="0.05"/><rect x="0" y="774" width="1536" height="2" fill="#178899" fill-opacity="0.05"/><rect x="0" y="780" width="1536" height="2" fill="#178899" fill-opacity="0.05"/><rect x="0" y="786" width="1536" height="2" fill="#178899" fill-opacity="0.05"/><rect x="0" y="792" width="1536" height="2" fill="#178899" fill-opacity="0.05"/><rect x="0" y="798" width="1536" height="2" fill="#178899" fill-opacity="0.05"/><rect x="0" y="804" width="1536" height="2" fill="#178899" fill-opacity="0.05"/><rect x="0" y="810" width="1536" height="2" fill="#178899" fill-opacity="0.05"/><rect x="0" y="816" width="1536" height="2" fill="#178899" fill-opacity="0.05"/><rect x="0" y="822" width="1536" height="2" fill="#178899" fill-opacity="0.05"/><rect x="0" y="828" width="1536" height="2" fill="#178899" fill-opacity="0.05"/><rect x="0" y="834" width="1536" height="2" fill="#178899" fill-opacity="0.05"/><rect x="0" y="840" width="1536" height="2" fill="#178899" fill-opacity="0.05"/><rect x="0" y="846" width="1536" height="2" fill="#178899" fill-opacity="0.05"/><rect x="0" y="852" width="1536" height="2" fill="#178899" fill-opacity="0.05"/><rect x="0" y="858" width="1536" height="2" fill="#178899" fill-opacity="0.05"/><rect x="0" y="864" width="1536" height="2" fill="#178899" fill-opacity="0.05"/><rect x="0" y="870" width="1536" height="2" fill="#178899" fill-opacity="0.05"/><rect x="0" y="876" width="1536" height="2" fill="#178899" fill-opacity="0.05"/><rect x="0" y="882" width="1536" height="2" fill="#178899" fill-opacity="0.05"/><rect x="0" y="888" width="1536" height="2" fill="#178899" fill-opacity="0.05"/><rect x="0" y="894" width="1536" height="2" fill="#178899" fill-opacity="0.05"/><rect x="0" y="900" width="1536" height="2" fill="#178899" fill-opacity="0.05"/><rect x="0" y="906" width="1536" height="2" fill="#178899" fill-opacity="0.05"/><rect x="0" y="912" width="1536" height="2" fill="#178899" fill-opacity="0.05"/><rect x="0" y="918" width="1536" height="2" fill="#178899" fill-opacity="0.05"/><rect x="0" y="924" width="1536" height="2" fill="#178899" fill-opacity="0.05"/><rect x="0" y="930" width="1536" height="2" fill="#178899" fill-opacity="0.05"/><rect x="0" y="936" width="1536" height="2" fill="#178899" fill-opacity="0.05"/><rect x="0" y="942" width="1536" height="2" fill="#178899" fill-opacity="0.05"/><rect x="0" y="948" width="1536" height="2" fill="#178899" fill-opacity="0.05"/><rect x="0" y="954" width="1536" height="2" fill="#178899" fill-opacity="0.05"/><rect x="0" y="960" width="1536" height="2" fill="#178899" fill-opacity="0.05"/><rect x="0" y="966" width="1536" height="2" fill="#178899" fill-opacity="0.05"/><rect x="0" y="972" width="1536" height="2" fill="#178899" fill-opacity="0.05"/><rect x="0" y="978" width="1536" height="2" fill="#178899" fill-opacity="0.05"/><rect x="0" y="984" width="1536" height="2" fill="#178899" fill-opacity="0.05"/><rect x="0" y="990" width="1536" height="2" fill="#178899" fill-opacity="0.05"/><rect x="0" y="996" width="1536" height="2" fill="#178899" fill-opacity="0.05"/><rect x="0" y="1002" width="1536" height="2" fill="#178899" fill-opacity="0.05"/><rect x="0" y="1008" width="1536" height="2" fill="#178899" fill-opacity="0.05"/><rect x="0" y="1014" width="1536" height="2" fill="#178899" fill-opacity="0.05"/><rect x="0" y="1020" width="1536" height="2" fill="#178899" fill-opacity="0.05"/>
    <circle cx="696.7" cy="151.8" r="1.71" fill="#ff2bd6" fill-opacity="0.92"/><circle cx="573.6" cy="330.5" r="3.54" fill="#ff2bd6" fill-opacity="0.66"/><circle cx="1477.2" cy="184.9" r="2.45" fill="#27e3ff" fill-opacity="0.99"/><circle cx="953.7" cy="421.8" r="1.64" fill="#27e3ff" fill-opacity="0.71"/><circle cx="570.7" cy="365.4" r="2.76" fill="#ff2bd6" fill-opacity="0.86"/><circle cx="414.5" cy="231.8" r="2.66" fill="#27e3ff" fill-opacity="1.00"/><circle cx="382.4" cy="393.6" r="1.72" fill="#27e3ff" fill-opacity="0.85"/><circle cx="1326.8" cy="252.8" r="1.96" fill="#27e3ff" fill-opacity="0.53"/><circle cx="86.6" cy="59.5" r="3.60" fill="#ff2bd6" fill-opacity="0.80"/><circle cx="220.2" cy="267.4" r="1.82" fill="#ff2bd6" fill-opacity="0.73"/><circle cx="950.3" cy="272.6" r="3.17" fill="#27e3ff" fill-opacity="0.83"/><circle cx="149.9" cy="292.8" r="1.75" fill="#27e3ff" fill-opacity="0.93"/><circle cx="798.3" cy="51.3" r="1.74" fill="#27e3ff" fill-opacity="0.68"/><circle cx="1424.7" cy="44.6" r="2.08" fill="#27e3ff" fill-opacity="0.85"/><circle cx="560.2" cy="211.9" r="1.42" fill="#27e3ff" fill-opacity="0.76"/><circle cx="780.0" cy="296.8" r="3.33" fill="#27e3ff" fill-opacity="0.47"/><circle cx="329.0" cy="399.7" r="2.20" fill="#ff2bd6" fill-opacity="0.86"/><circle cx="421.7" cy="113.6" r="1.48" fill="#ff2bd6" fill-opacity="0.95"/><circle cx="1112.1" cy="22.9" r="3.06" fill="#27e3ff" fill-opacity="0.92"/><circle cx="401.1" cy="61.9" r="3.53" fill="#27e3ff" fill-opacity="0.87"/><circle cx="622.4" cy="432.3" r="1.72" fill="#27e3ff" fill-opacity="0.92"/><circle cx="710.6" cy="364.8" r="1.63" fill="#ff2bd6" fill-opacity="0.65"/><circle cx="1097.8" cy="96.1" r="1.65" fill="#ff2bd6" fill-opacity="0.81"/><circle cx="289.8" cy="10.1" r="3.44" fill="#ff2bd6" fill-opacity="0.69"/><circle cx="594.1" cy="439.7" r="2.31" fill="#ff2bd6" fill-opacity="0.90"/><circle cx="350.5" cy="329.4" r="2.49" fill="#ff2bd6" fill-opacity="0.71"/><circle cx="1089.0" cy="448.6" r="2.96" fill="#ff2bd6" fill-opacity="0.55"/><circle cx="229.4" cy="138.9" r="3.58" fill="#27e3ff" fill-opacity="0.69"/><circle cx="1175.4" cy="130.8" r="3.45" fill="#27e3ff" fill-opacity="0.49"/><circle cx="407.9" cy="347.0" r="1.57" fill="#27e3ff" fill-opacity="0.52"/><circle cx="445.5" cy="420.0" r="3.29" fill="#ff2bd6" fill-opacity="0.45"/><circle cx="389.5" cy="128.3" r="3.36" fill="#ff2bd6" fill-opacity="0.86"/><circle cx="495.7" cy="30.1" r="2.01" fill="#27e3ff" fill-opacity="0.68"/><circle cx="1381.1" cy="301.7" r="2.05" fill="#ff2bd6" fill-opacity="0.72"/><circle cx="1384.5" cy="373.1" r="2.69" fill="#27e3ff" fill-opacity="0.93"/><circle cx="374.9" cy="394.2" r="2.88" fill="#27e3ff" fill-opacity="0.74"/><circle cx="1476.5" cy="269.2" r="3.58" fill="#27e3ff" fill-opacity="0.64"/><circle cx="590.0" cy="290.4" r="3.19" fill="#27e3ff" fill-opacity="0.66"/><circle cx="585.9" cy="221.3" r="1.74" fill="#27e3ff" fill-opacity="0.96"/><circle cx="124.0" cy="164.4" r="1.64" fill="#ff2bd6" fill-opacity="0.89"/><circle cx="772.9" cy="406.3" r="3.25" fill="#27e3ff" fill-opacity="0.64"/><circle cx="865.3" cy="316.4" r="1.51" fill="#ff2bd6" fill-opacity="0.82"/><circle cx="1229.3" cy="207.8" r="1.45" fill="#27e3ff" fill-opacity="0.69"/><circle cx="7.7" cy="83.8" r="3.59" fill="#27e3ff" fill-opacity="0.58"/><circle cx="158.4" cy="292.3" r="3.03" fill="#ff2bd6" fill-opacity="0.92"/><circle cx="252.6" cy="135.1" r="3.19" fill="#ff2bd6" fill-opacity="0.46"/><circle cx="1472.5" cy="419.5" r="1.66" fill="#ff2bd6" fill-opacity="0.87"/><circle cx="1129.9" cy="213.0" r="2.96" fill="#27e3ff" fill-opacity="0.66"/><circle cx="134.9" cy="366.0" r="3.25" fill="#ff2bd6" fill-opacity="0.95"/><circle cx="158.6" cy="51.9" r="1.42" fill="#ff2bd6" fill-opacity="0.76"/><circle cx="896.1" cy="143.1" r="2.78" fill="#ff2bd6" fill-opacity="0.83"/><circle cx="1036.8" cy="403.3" r="3.30" fill="#27e3ff" fill-opacity="0.90"/><circle cx="629.4" cy="166.4" r="2.77" fill="#ff2bd6" fill-opacity="0.94"/><circle cx="581.5" cy="437.4" r="2.25" fill="#27e3ff" fill-opacity="0.64"/><circle cx="528.9" cy="261.0" r="2.87" fill="#ff2bd6" fill-opacity="0.66"/><circle cx="537.7" cy="140.0" r="2.05" fill="#ff2bd6" fill-opacity="0.51"/><circle cx="162.4" cy="154.3" r="2.84" fill="#27e3ff" fill-opacity="0.78"/><circle cx="1270.2" cy="371.2" r="1.62" fill="#ff2bd6" fill-opacity="0.69"/><circle cx="571.6" cy="64.2" r="3.22" fill="#27e3ff" fill-opacity="0.74"/><circle cx="159.2" cy="375.9" r="2.83" fill="#27e3ff" fill-opacity="0.96"/><circle cx="805.4" cy="140.9" r="2.25" fill="#ff2bd6" fill-opacity="0.55"/><circle cx="1411.7" cy="190.4" r="1.57" fill="#27e3ff" fill-opacity="0.90"/><circle cx="28.5" cy="262.3" r="2.99" fill="#27e3ff" fill-opacity="0.48"/><circle cx="332.6" cy="401.5" r="2.87" fill="#27e3ff" fill-opacity="0.67"/><circle cx="628.8" cy="251.7" r="2.21" fill="#ff2bd6" fill-opacity="0.90"/><circle cx="837.6" cy="84.4" r="2.27" fill="#27e3ff" fill-opacity="0.90"/><circle cx="1448.4" cy="356.9" r="1.96" fill="#27e3ff" fill-opacity="0.70"/><circle cx="971.1" cy="238.8" r="3.02" fill="#ff2bd6" fill-opacity="0.49"/><circle cx="142.6" cy="309.9" r="3.17" fill="#ff2bd6" fill-opacity="0.45"/><circle cx="192.6" cy="316.2" r="1.95" fill="#ff2bd6" fill-opacity="0.91"/><circle cx="537.4" cy="350.4" r="2.77" fill="#ff2bd6" fill-opacity="0.50"/><circle cx="1013.2" cy="398.9" r="2.70" fill="#27e3ff" fill-opacity="0.81"/><circle cx="469.7" cy="241.0" r="3.17" fill="#ff2bd6" fill-opacity="0.83"/><circle cx="1411.4" cy="50.3" r="1.48" fill="#27e3ff" fill-opacity="0.56"/><circle cx="560.3" cy="254.5" r="1.56" fill="#27e3ff" fill-opacity="0.69"/><circle cx="1449.9" cy="89.8" r="3.16" fill="#27e3ff" fill-opacity="0.46"/><circle cx="1144.5" cy="220.3" r="3.31" fill="#27e3ff" fill-opacity="0.49"/><circle cx="1491.0" cy="307.0" r="2.76" fill="#27e3ff" fill-opacity="0.62"/><circle cx="907.9" cy="207.1" r="2.36" fill="#27e3ff" fill-opacity="0.82"/><circle cx="825.9" cy="414.7" r="3.44" fill="#ff2bd6" fill-opacity="0.83"/><circle cx="1423.3" cy="138.5" r="3.35" fill="#ff2bd6" fill-opacity="0.57"/><circle cx="802.8" cy="417.5" r="1.64" fill="#27e3ff" fill-opacity="0.87"/><circle cx="73.3" cy="341.4" r="1.67" fill="#27e3ff" fill-opacity="0.75"/><circle cx="942.1" cy="164.1" r="1.50" fill="#ff2bd6" fill-opacity="0.77"/><circle cx="638.6" cy="199.8" r="2.35" fill="#27e3ff" fill-opacity="0.51"/><circle cx="1292.4" cy="310.5" r="2.55" fill="#27e3ff" fill-opacity="0.72"/><circle cx="103.4" cy="94.8" r="1.52" fill="#ff2bd6" fill-opacity="0.71"/><circle cx="1310.8" cy="387.6" r="1.50" fill="#27e3ff" fill-opacity="0.90"/><circle cx="718.4" cy="247.9" r="2.70" fill="#ff2bd6" fill-opacity="0.96"/><circle cx="914.6" cy="340.0" r="2.15" fill="#ff2bd6" fill-opacity="0.67"/>
    <rect x="0" y="428" width="1536" height="3" fill="#ff2bd6" fill-opacity="0.55"/>
  
</svg>
