<?xml version="1.0" encoding="UTF-8"?>
<svg xmlns="http://www.w3.org/2000/svg" width="1536" height="1024" viewBox="0 0 1536 1024">
<defs>
    <radialGradient id="kBase" cx="48%" cy="42%" r="80%">
      <stop offset="0%" stop-color="#ffc5dc"/>
      <stop offset="55%" stop-color="#ffb8d4"/>
      <stop offset="100%" stop-color="#d197ae"/>
    </radialGradient>
    <radialGradient id="kHilite" cx="74%" cy="22%" r="40%">
      <stop offset="0%" stop-color="#ffe2b3" stop-opacity="0.55"/>
      <stop offset="100%" stop-color="#ffd28a" stop-opacity="0"/>
    </radialGradient>
  </defs>

    <rect width="1536" height="1024" fill="url(#kBase)"/>
    <circle cx="54.9" cy="54.9" r="7.89" fill="#ad7d90" fill-opacity="0.42"/><circle cx="164.6" cy="54.9" r="9.27" fill="#ad7d90" fill-opacity="0.42"/><circle cx="274.3" cy="54.9" r="6.97" fill="#ad7d90" fill-opacity="0.42"/><circle cx="384.0" cy="54.9" r="6.63" fill="#ad7d90" fill-opacity="0.42"/><circle cx="493.7" cy="54.9" r="7.52" fill="#ad7d90" fill-opacity="0.42"/><circle cx="603.4" cy="54.9" r="7.23" fill="#ad7d90" fill-opacity="0.42"/><circle cx="713.1" cy="54.9" r="9.18" fill="#ad7d90" fill-opacity="0.42"/><circle cx="822.9" cy="54.9" r="7.23" fill="#ad7d90" fill-opacity="0.42"/><circle cx="932.6" cy="54.9" r="8.49" fill="#ad7d90" fill-opacity="0.42"/><circle cx="1042.3" cy="54.9" r="8.70" fill="#ad7d90" fill-opacity="0.42"/><circle cx="1152.0" cy="54.9" r="8.69" fill="#ad7d90" fill-opacity="0.42"/><circle cx="1261.7" cy="54.9" r="7.69" fill="#ad7d90" fill-opacity="0.42"/><circle cx="1371.4" cy="54.9" r="8.57" fill="#ad7d90" fill-opacity="0.42"/><circle cx="1481.1" cy="54.9" r="9.32" fill="#ad7d90" fill-opacity="0.42"/><circle cx="54.9" cy="164.6" r="8.88" fill="#ad7d90" fill-opacity="0.42"/><circle cx="164.6" cy="164.6" r="8.42" fill="#ad7d90" fill-opacity="0.42"/><circle cx="274.3" cy="164.6" r="6.79" fill="#ad7d90" fill-opacity="0.42"/><circle cx="384.0" cy="164.6" r="7.02" fill="#ad7d90" fill-opacity="0.42"/><circle cx="493.7" cy="164.6" r="7.02" fill="#ad7d90" fill-opacity="0.42"/><circle cx="603.4" cy="164.6" r="9.03" fill="#ad7d90" fill-opacity="0.42"/><circle cx="713.1" cy="164.6" r="7.99" fill="#ad7d90" fill-opacity="0.42"/><circle cx="822.9" cy="164.6" r="7.46" fill="#ad7d90" fill-opacity="0.42"/><circle cx="932.6" cy="164.6" r="7.90" fill="#ad7d90" fill-opacity="0.42"/><circle cx="1042.3" cy="164.6" r="7.62" fill="#ad7d90" fill-opacity="0.42"/><circle cx="1152.0" cy="164.6" r="9.23" fill="#ad7d90" fill-opacity="0.42"/><circle cx="1261.7" cy="164.6" r="8.50" fill="#ad7d90" fill-opacity="0.42"/><circle cx="1371.4" cy="164.6" r="8.43" fill="#ad7d90" fill-opacity="0.42"/><circle cx="1481.1" cy="164.6" r="9.49" fill="#ad7d90" fill-opacity="0.42"/><circle cx="54.9" cy="274.3" r="6.98" fill="#ad7d90" fill-opacity="0.42"/><circle cx="164.6" cy="274.3" r="7.32" fill="#ad7d90" fill-opacity="0.42"/><circle cx="274.3" cy="274.3" r="8.18" fill="#ad7d90" fill-opacity="0.42"/><circle cx="384.0" cy="274.3" r="6.90" fill="#ad7d90" fill-opacity="0.42"/><circle cx="493.7" cy="274.3" r="6.58" fill="#ad7d90" fill-opacity="0.42"/><circle cx="603.4" cy="274.3" r="8.93" fill="#ad7d90" fill-opacity="0.42"/><circle cx="713.1" cy="274.3" r="7.23" fill="#ad7d90" fill-opacity="0.42"/><circle cx="822.9" cy="274.3" r="6.73" fill="#ad7d90" fill-opacity="0.42"/><circle cx="932.6" cy="274.3" r="7.55" fill="#ad7d90" fill-opacity="0.42"/><circle cx="1042.3" cy="274.3" r="7.22" fill="#ad7d90" fill-opacity="0.42"/><circle cx="1152.0" cy="274.3" r="6.66" fill="#ad7d90" fill-opacity="0.42"/><circle cx="1261.7" cy="274.3" r="9.44" fill="#ad7d90" fill-opacity="0.42"/><circle cx="1371.4" cy="274.3" r="9.19" fill="#ad7d90" fill-opacity="0.42"/><circle cx="1481.1" cy="274.3" r="7.39" fill="#ad7d90" fill-opacity="0.42"/><circle cx="54.9" cy="384.0" r="7.12" fill="#ad7d90" fill-opacity="0.42"/><circle cx="164.6" cy="384.0" r="6.66" fill="#ad7d90" fill-opacity="0.42"/><circle cx="274.3" cy="384.0" r="9.07" fill="#ad7d90" fill-opacity="0.42"/><circle cx="384.0" cy="384.0" r="7.88" fill="#ad7d90" fill-opacity="0.42"/><circle cx="493.7" cy="384.0" r="8.91" fill="#ad7d90" fill-opacity="0.42"/><circle cx="603.4" cy="384.0" r="9.01" fill="#ad7d90" fill-opacity="0.42"/><circle cx="713.1" cy="384.0" r="7.96" fill="#ad7d90" fill-opacity="0.42"/><circle cx="822.9" cy="384.0" r="6.99" fill="#ad7d90" fill-opacity="0.42"/><circle cx="932.6" cy="384.0" r="6.94" fill="#ad7d90" fill-opacity="0.42"/><circle cx="1042.3" cy="384.0" r="8.59" fill="#ad7d90" fill-opacity="0.42"/><circle cx="1152.0" cy="384.0" r="8.17" fill="#ad7d90" fill-opacity="0.42"/><circle cx="1261.7" cy="384.0" r="8.43" fill="#ad7d90" fill-opacity="0.42"/><circle cx="1371.4" cy="384.0" r="6.95" fill="#ad7d90" fill-opacity="0.42"/><circle cx="1481.1" cy="384.0" r="6.85" fill="#ad7d90" fill-opacity="0.42"/><circle cx="54.9" cy="493.7" r="7.31" fill="#ad7d90" fill-opacity="0.42"/><circle cx="164.6" cy="493.7" r="7.06" fill="#ad7d90" fill-opacity="0.42"/><circle cx="274.3" cy="493.7" r="9.51" fill="#ad7d90" fill-opacity="0.42"/><circle cx="384.0" cy="493.7" r="9.42" fill="#ad7d90" fill-opacity="0.42"/><circle cx="493.7" cy="493.7" r="8.88" fill="#ad7d90" fill-opacity="0.42"/><circle cx="603.4" cy="493.7" r="6.79" fill="#ad7d90" fill-opacity="0.42"/><circle cx="713.1" cy="493.7" r="6.67" fill="#ad7d90" fill-opacity="0.42"/><circle cx="822.9" cy="493.7" r="8.80" fill="#ad7d90" fill-opacity="0.42"/><circle cx="932.6" cy="493.7" r="7.57" fill="#ad7d90" fill-opacity="0.42"/><circle cx="1042.3" cy="493.7" r="7.44" fill="#ad7d90" fill-opacity="0.42"/><circle cx="1152.0" cy="493.7" r="6.92" fill="#ad7d90" fill-opacity="0.42"/><circle cx="1261.7" cy="493.7" r="6.87" fill="#ad7d90" fill-opacity="0.42"/><circle cx="1371.4" cy="493.7" r="6.64" fill="#ad7d90" fill-opacity="0.42"/><circle cx="1481.1" cy="493.7" r="7.92" fill="#ad7d90" fill-opacity="0.42"/><circle cx="54.9" cy="603.4" r="9.48" fill="#ad7d90" fill-opacity="0.42"/><circle cx="164.6" cy="603.4" r="6.71" fill="#ad7d90" fill-opacity="0.42"/><circle cx="274.3" cy="603.4" r="7.36" fill="#ad7d90" fill-opacity="0.42"/><circle cx="384.0" cy="603.4" r="8.99" fill="#ad7d90" fill-opacity="0.42"/><circle cx="493.7" cy="603.4" r="7.03" fill="#ad7d90" fill-opacity="0.42"/><circle cx="603.4" cy="603.4" r="7.65" fill="#ad7d90" fill-opacity="0.42"/><circle cx="713.1" cy="603.4" r="9.30" fill="#ad7d90" fill-opacity="0.42"/><circle cx="822.9" cy="603.4" r="7.79" fill="#ad7d90" fill-opacity="0.42"/><circle cx="932.6" cy="603.4" r="7.93" fill="#ad7d90" fill-opacity="0.42"/><circle cx="1042.3" cy="603.4" r="7.07" fill="#ad7d90" fill-opacity="0.42"/><circle cx="1152.0" cy="603.4" r="7.05" fill="#ad7d90" fill-opacity="0.42"/><circle cx="1261.7" cy="603.4" r="8.76" fill="#ad7d90" fill-opacity="0.42"/><circle cx="1371.4" cy="603.4" r="7.51" fill="#ad7d90" fill-opacity="0.42"/><circle cx="1481.1" cy="603.4" r="7.84" fill="#ad7d90" fill-opacity="0.42"/><circle cx="54.9" cy="713.1" r="7.09" fill="#ad7d90" fill-opacity="0.42"/><circle cx="164.6" cy="713.1" r="9.06" fill="#ad7d90" fill-opacity="0.42"/><circle cx="274.3" cy="713.1" r="7.78" fill="#ad7d90" fill-opacity="0.42"/><circle cx="384.0" cy="713.1" r="7.98" fill="#ad7d90" fill-opacity="0.42"/><circle cx="493.7" cy="713.1" r="8.93" fill="#ad7d90" fill-opacity="0.42"/><circle cx="603.4" cy="713.1" r="8.30" fill="#ad7d90" fill-opacity="0.42"/><circle cx="713.1" cy="713.1" r="7.90" fill="#ad7d90" fill-opacity="0.42"/><circle cx="822.9" cy="713.1" r="8.17" fill="#ad7d90" fill-opacity="0.42"/><circle cx="932.6" cy="713.1" r="7.03" fill="#ad7d90" fill-opacity="0.42"/><circle cx="1042.3" cy="713.1" r="8.32" fill="#ad7d90" fill-opacity="0.42"/><circle cx="1152.0" cy="713.1" r="6.85" fill="#ad7d90" fill-opacity="0.42"/><circle cx="1261.7" cy="713.1" r="7.78" fill="#ad7d90" fill-opacity="0.42"/><circle cx="1371.4" cy="713.1" r="7.74" fill="#ad7d90" fill-opacity="0.42"/><circle cx="1481.1" cy="713.1" r="9.00" fill="#ad7d90" fill-opacity="0.42"/><circle cx="54.9" cy="822.9" r="8.81" fill="#ad7d90" fill-opacity="0.42"/><circle cx="164.6" cy="822.9" r="6.74" fill="#ad7d90" fill-opacity="0.42"/><circle cx="274.3" cy="822.9" r="8.99" fill="#ad7d90" fill-opacity="0.42"/><circle cx="384.0" cy="822.9" r="6.54" fill="#ad7d90" fill-opacity="0.42"/><circle cx="493.7" cy="822.9" r="9.34" fill="#ad7d90" fill-opacity="0.42"/><circle cx="603.4" cy="822.9" r="8.76" fill="#ad7d90" fill-opacity="0.42"/><circle cx="713.1" cy="822.9" r="6.95" fill="#ad7d90" fill-opacity="0.42"/><circle cx="822.9" cy="822.9" r="8.14" fill="#ad7d90" fill-opacity="0.42"/><circle cx="932.6" cy="822.9" r="8.63" fill="#ad7d90" fill-opacity="0.42"/><circle cx="1042.3" cy="822.9" r="6.60" fill="#ad7d90" fill-opacity="0.42"/><circle cx="1152.0" cy="822.9" r="6.87" fill="#ad7d90" fill-opacity="0.42"/><circle cx="1261.7" cy="822.9" r="6.73" fill="#ad7d90" fill-opacity="0.42"/><circle cx="1371.4" cy="822.9" r="7.86" fill="#ad7d90" fill-opacity="0.42"/><circle cx="1481.1" cy="822.9" r="6.86" fill="#ad7d90" fill-opacity="0.42"/><circle cx="54.9" cy="932.6" r="8.25" fill="#ad7d90" fill-opacity="0.42"/><circle cx="164.6" cy="932.6" r="7.57" fill="#ad7d90" fill-opacity="0.42"/><circle cx="274.3" cy="932.6" r="7.29" fill="#ad7d90" fill-opacity="0.42"/><circle cx="384.0" cy="932.6" r="8.23" fill="#ad7d90" fill-opacity="0.42"/><circle cx="493.7" cy="932.6" r="9.55" fill="#ad7d90" fill-opacity="0.42"/><circle cx="603.4" cy="932.6" r="8.19" fill="#ad7d90" fill-opacity="0.42"/><circle cx="713.1" cy="932.6" r="8.81" fill="#ad7d90" fill-opacity="0.42"/><circle cx="822.9" cy="932.6" r="9.33" fill="#ad7d90" fill-opacity="0.42"/><circle cx="932.6" cy="932.6" r="7.82" fill="#ad7d90" fill-opacity="0.42"/><circle cx="1042.3" cy="932.6" r="6.99" fill="#ad7d90" fill-opacity="0.42"/><circle cx="1152.0" cy="932.6" r="8.10" fill="#ad7d90" fill-opacity="0.42"/><circle cx="1261.7" cy="932.6" r="8.86" fill="#ad7d90" fill-opacity="0.42"/><circle cx="1371.4" cy="932.6" r="9.59" fill="#ad7d90" fill-opacity="0.42"/><circle cx="1481.1" cy="932.6" r="6.95" fill="#ad7d90" fill-opacity="0.42"/><circle cx="54.9" cy="1042.3" r="7.09" fill="#ad7d90" fill-opacity="0.42"/><circle cx="164.6" cy="1042.3" r="6.61" fill="#ad7d90" fill-opacity="0.42"/><circle cx="274.3" cy="1042.3" r="9.29" fill="#ad7d90" fill-opacity="0.42"/><circle cx="384.0" cy="1042.3" r="7.23" fill="#ad7d90" fill-opacity="0.42"/><circle cx="493.7" cy="1042.3" r="6.60" fill="#ad7d90" fill-opacity="0.42"/><circle cx="603.4" cy="1042.3" r="7.97" fill="#ad7d90" fill-opacity="0.42"/><circle cx="713.1" cy="1042.3" r="9.07" fill="#ad7d90" fill-opacity="0.42"/><circle cx="822.9" cy="1042.3" r="9.54" fill="#ad7d90" fill-opacity="0.42"/><circle cx="932.6" cy="1042.3" r="9.13" fill="#ad7d90" fill-opacity="0.42"/><circle cx="1042.3" cy="1042.3" r="7.60" fill="#ad7d90" fill-opacity="0.42"/><circle cx="1152.0" cy="1042.3" r="7.79" fill="#ad7d90" fill-opacity="0.42"/><circle cx="1261.7" cy="1042.3" r="6.72" fill="#ad7d90" fill-opacity="0.42"/><circle cx="1371.4" cy="1042.3" r="9.18" fill="#ad7d90" fill-opacity="0.42"/><circle cx="1481.1" cy="1042.3" r="8.51" fill="#ad7d90" fill-opacity="0.42"/><circle cx="54.9" cy="1152.0" r="8.95" fill="#ad7d90" fill-opacity="0.42"/><circle cx="164.6" cy="1152.0" r="7.99" fill="#ad7d90" fill-opacity="0.42"/><circle cx="274.3" cy="1152.0" r="8.59" fill="#ad7d90" fill-opacity="0.42"/><circle cx="384.0" cy="1152.0" r="8.82" fill="#ad7d90" fill-opacity="0.42"/><circle cx="493.7" cy="1152.0" r="8.72" fill="#ad7d90" fill-opacity="0.42"/><circle cx="603.4" cy="1152.0" r="6.97" fill="#ad7d90" fill-opacity="0.42"/><circle cx="713.1" cy="1152.0" r="8.99" fill="#ad7d90" fill-opacity="0.42"/><circle cx="822.9" cy="1152.0" r="9.31" fill="#ad7d90" fill-opacity="0.42"/><circle cx="932.6" cy="1152.0" r="9.39" fill="#ad7d90" fill-opacity="0.42"/><circle cx="1042.3" cy="1152.0" r="9.17" fill="#ad7d90" fill-opacity="0.42"/><circle cx="1152.0" cy="1152.0" r="8.04" fill="#ad7d90" fill-opacity="0.42"/><circle cx="1261.7" cy="1152.0" r="7.52" fill="#ad7d90" fill-opacity="0.42"/><circle cx="1371.4" cy="1152.0" r="7.95" fill="#ad7d90" fill-opacity="0.42"/><circle cx="1481.1" cy="1152.0" r="8.33" fill="#ad7d90" fill-opacity="0.42"/>
    <path d="M763.6,916.0 Q788.9,923.7 783.1,938.0 Q768.3,942.1 763.6,916.0 Z M763.6,916.0 Q764.1,942.5 748.7,941.4 Q740.2,928.5 763.6,916.0 Z M763.6,916.0 Q738.6,924.7 734.8,909.8 Q744.5,897.7 763.6,916.0 Z M763.6,916.0 Q747.6,894.9 760.6,886.8 Q775.1,892.2 763.6,916.0 Z M763.6,916.0 Q778.7,894.3 790.5,904.2 Q789.8,919.6 763.6,916.0 Z" fill="#ff7aa8" fill-opacity="0.49"/><circle cx="763.6" cy="916.0" r="5.3" fill="#ffd28a" fill-opacity="0.44"/><path d="M620.3,417.6 Q606.4,383.2 627.1,376.9 Q644.6,389.5 620.3,417.6 Z M620.3,417.6 Q648.7,393.7 661.1,411.4 Q654.5,432.1 620.3,417.6 Z M620.3,417.6 Q651.8,437.2 638.7,454.5 Q617.1,454.5 620.3,417.6 Z M620.3,417.6 Q611.4,453.6 590.9,446.5 Q584.1,425.9 620.3,417.6 Z M620.3,417.6 Q583.3,420.2 583.7,398.6 Q601.2,385.8 620.3,417.6 Z" fill="#ff7aa8" fill-opacity="0.43"/><circle cx="620.3" cy="417.6" r="7.4" fill="#ffd28a" fill-opacity="0.39"/><path d="M965.3,12.5 Q958.9,-9.7 972.1,-12.2 Q982.1,-3.2 965.3,12.5 Z M965.3,12.5 Q984.4,-0.4 990.8,11.4 Q985.4,23.7 965.3,12.5 Z M965.3,12.5 Q983.4,26.7 974.2,36.5 Q960.8,35.1 965.3,12.5 Z M965.3,12.5 Q957.4,34.1 945.2,28.4 Q942.4,15.3 965.3,12.5 Z M965.3,12.5 Q942.2,11.7 943.9,-1.7 Q955.5,-8.4 965.3,12.5 Z" fill="#ff7aa8" fill-opacity="0.42"/><circle cx="965.3" cy="12.5" r="4.6" fill="#ffd28a" fill-opacity="0.37"/><path d="M1023.2,949.1 Q1033.3,926.0 1046.2,933.1 Q1048.4,947.7 1023.2,949.1 Z M1023.2,949.1 Q1048.3,951.6 1045.6,966.1 Q1032.4,972.7 1023.2,949.1 Z M1023.2,949.1 Q1028.6,973.8 1014.0,975.6 Q1003.7,965.1 1023.2,949.1 Z M1023.2,949.1 Q1001.4,961.9 995.1,948.5 Q1001.9,935.5 1023.2,949.1 Z M1023.2,949.1 Q1004.3,932.3 1015.1,922.3 Q1029.6,924.7 1023.2,949.1 Z" fill="#ff7aa8" fill-opacity="0.31"/><circle cx="1023.2" cy="949.1" r="5.1" fill="#ffd28a" fill-opacity="0.28"/><path d="M1012.9,390.3 Q1022.0,411.7 1009.0,415.9 Q997.9,408.1 1012.9,390.3 Z M1012.9,390.3 Q995.3,405.5 987.4,394.5 Q991.3,381.5 1012.9,390.3 Z M1012.9,390.3 Q993.0,378.2 1001.0,367.3 Q1014.6,367.0 1012.9,390.3 Z M1012.9,390.3 Q1018.2,367.6 1031.1,371.9 Q1035.5,384.7 1012.9,390.3 Z M1012.9,390.3 Q1036.1,388.3 1036.0,401.9 Q1025.2,410.1 1012.9,390.3 Z" fill="#ff7aa8" fill-opacity="0.34"/><circle cx="1012.9" cy="390.3" r="4.7" fill="#ffd28a" fill-opacity="0.30"/><path d="M485.9,418.7 Q496.3,404.7 503.9,411.5 Q503.1,421.7 485.9,418.7 Z M485.9,418.7 Q502.5,424.3 498.4,433.6 Q488.5,436.0 485.9,418.7 Z M485.9,418.7 Q485.8,436.2 475.6,435.2 Q470.3,426.5 485.9,418.7 Z M485.9,418.7 Q469.3,424.0 467.1,414.0 Q473.7,406.3 485.9,418.7 Z M485.9,418.7 Q475.8,404.5 484.6,399.4 Q494.0,403.3 485.9,418.7 Z" fill="#ff7aa8" fill-opacity="0.30"/><circle cx="485.9" cy="418.7" r="3.5" fill="#ffd28a" fill-opacity="0.27"/><path d="M1493.6,775.9 Q1500.4,793.4 1489.9,796.4 Q1481.1,789.9 1493.6,775.9 Z M1493.6,775.9 Q1479.0,787.8 1472.9,778.7 Q1476.4,768.3 1493.6,775.9 Z M1493.6,775.9 Q1477.8,765.7 1484.6,757.0 Q1495.5,757.1 1493.6,775.9 Z M1493.6,775.9 Q1498.4,757.7 1508.8,761.4 Q1512.0,771.9 1493.6,775.9 Z M1493.6,775.9 Q1512.4,774.8 1512.0,785.8 Q1503.1,792.1 1493.6,775.9 Z" fill="#ff7aa8" fill-opacity="0.26"/><circle cx="1493.6" cy="775.9" r="3.8" fill="#ffd28a" fill-opacity="0.23"/><path d="M890.6,82.2 Q871.0,65.4 881.7,54.9 Q896.6,57.1 890.6,82.2 Z M890.6,82.2 Q900.5,58.3 913.8,65.3 Q916.3,80.1 890.6,82.2 Z M890.6,82.2 Q916.4,84.2 913.8,99.0 Q900.5,106.0 890.6,82.2 Z M890.6,82.2 Q896.7,107.3 881.8,109.5 Q871.0,99.0 890.6,82.2 Z M890.6,82.2 Q868.6,95.7 861.9,82.2 Q868.6,68.7 890.6,82.2 Z" fill="#ff7aa8" fill-opacity="0.33"/><circle cx="890.6" cy="82.2" r="5.2" fill="#ffd28a" fill-opacity="0.30"/><path d="M138.1,692.8 Q156.3,701.2 150.5,711.3 Q138.9,712.8 138.1,692.8 Z M138.1,692.8 Q135.8,712.7 124.3,710.3 Q119.3,699.8 138.1,692.8 Z M138.1,692.8 Q118.5,696.8 117.2,685.1 Q125.7,677.1 138.1,692.8 Z M138.1,692.8 Q128.3,675.4 139.0,670.6 Q149.2,676.2 138.1,692.8 Z M138.1,692.8 Q151.7,678.1 159.5,686.8 Q157.4,698.3 138.1,692.8 Z" fill="#ff7aa8" fill-opacity="0.24"/><circle cx="138.1" cy="692.8" r="4.0" fill="#ffd28a" fill-opacity="0.22"/><path d="M1372.7,552.8 Q1369.4,570.2 1359.4,567.4 Q1355.7,557.7 1372.7,552.8 Z M1372.7,552.8 Q1355.1,555.0 1354.7,544.7 Q1362.7,538.1 1372.7,552.8 Z M1372.7,552.8 Q1365.1,536.7 1374.9,533.2 Q1383.6,538.8 1372.7,552.8 Z M1372.7,552.8 Q1385.6,540.6 1392.0,548.8 Q1389.4,558.8 1372.7,552.8 Z M1372.7,552.8 Q1388.3,561.3 1382.5,569.9 Q1372.1,570.5 1372.7,552.8 Z" fill="#ff7aa8" fill-opacity="0.23"/><circle cx="1372.7" cy="552.8" r="3.6" fill="#ffd28a" fill-opacity="0.21"/><path d="M183.8,189.4 Q165.3,219.9 148.5,207.5 Q148.3,186.7 183.8,189.4 Z M183.8,189.4 Q149.1,181.2 155.8,161.4 Q175.5,154.7 183.8,189.4 Z M183.8,189.4 Q181.0,153.9 201.8,154.1 Q214.3,170.7 183.8,189.4 Z M183.8,189.4 Q216.8,175.7 223.0,195.6 Q211.0,212.6 183.8,189.4 Z M183.8,189.4 Q207.1,216.5 190.1,228.6 Q170.2,222.4 183.8,189.4 Z" fill="#ff7aa8" fill-opacity="0.25"/><circle cx="183.8" cy="189.4" r="7.1" fill="#ffd28a" fill-opacity="0.23"/><path d="M1258.7,981.6 Q1246.5,997.2 1238.1,989.3 Q1239.2,977.8 1258.7,981.6 Z M1258.7,981.6 Q1240.1,974.8 1245.0,964.4 Q1256.3,961.9 1258.7,981.6 Z M1258.7,981.6 Q1259.4,961.8 1270.8,963.2 Q1276.7,973.2 1258.7,981.6 Z M1258.7,981.6 Q1277.7,976.1 1279.9,987.5 Q1272.2,996.1 1258.7,981.6 Z M1258.7,981.6 Q1269.8,998.0 1259.7,1003.6 Q1249.1,998.9 1258.7,981.6 Z" fill="#ff7aa8" fill-opacity="0.35"/><circle cx="1258.7" cy="981.6" r="4.0" fill="#ffd28a" fill-opacity="0.32"/><path d="M928.3,230.5 Q935.1,245.6 926.0,248.8 Q917.9,243.4 928.3,230.5 Z M928.3,230.5 Q916.0,241.6 910.1,233.9 Q912.7,224.6 928.3,230.5 Z M928.3,230.5 Q913.8,222.2 919.4,214.3 Q929.1,213.9 928.3,230.5 Z M928.3,230.5 Q931.6,214.2 940.9,217.0 Q944.3,226.1 928.3,230.5 Z M928.3,230.5 Q944.8,228.6 945.0,238.3 Q937.4,244.4 928.3,230.5 Z" fill="#ff7aa8" fill-opacity="0.29"/><circle cx="928.3" cy="230.5" r="3.3" fill="#ffd28a" fill-opacity="0.26"/><path d="M426.4,547.5 Q437.4,577.1 419.7,581.9 Q405.1,570.7 426.4,547.5 Z M426.4,547.5 Q401.7,567.1 391.6,551.7 Q397.7,534.4 426.4,547.5 Z M426.4,547.5 Q400.1,530.0 411.7,515.7 Q430.1,516.1 426.4,547.5 Z M426.4,547.5 Q434.9,517.1 452.1,523.6 Q457.4,541.3 426.4,547.5 Z M426.4,547.5 Q458.0,546.2 457.1,564.5 Q441.9,575.0 426.4,547.5 Z" fill="#ff7aa8" fill-opacity="0.45"/><circle cx="426.4" cy="547.5" r="6.3" fill="#ffd28a" fill-opacity="0.41"/><path d="M142.4,822.3 Q173.0,804.7 181.6,823.4 Q172.0,841.6 142.4,822.3 Z M142.4,822.3 Q168.6,845.9 153.5,859.9 Q133.3,856.4 142.4,822.3 Z M142.4,822.3 Q128.1,854.5 110.2,844.5 Q107.3,824.2 142.4,822.3 Z M142.4,822.3 Q107.4,818.7 111.4,798.5 Q129.8,789.5 142.4,822.3 Z M142.4,822.3 Q135.1,787.9 155.5,785.5 Q169.8,800.2 142.4,822.3 Z" fill="#ff7aa8" fill-opacity="0.27"/><circle cx="142.4" cy="822.3" r="7.0" fill="#ffd28a" fill-opacity="0.24"/><path d="M910.6,449.3 Q897.1,421.6 913.9,415.2 Q929.2,424.7 910.6,449.3 Z M910.6,449.3 Q932.8,427.9 944.1,441.9 Q939.8,459.4 910.6,449.3 Z M910.6,449.3 Q937.9,463.8 928.0,478.9 Q910.1,480.2 910.6,449.3 Z M910.6,449.3 Q905.3,479.8 887.9,475.0 Q881.1,458.4 910.6,449.3 Z M910.6,449.3 Q880.0,453.6 879.1,435.6 Q892.9,424.0 910.6,449.3 Z" fill="#ff7aa8" fill-opacity="0.33"/><circle cx="910.6" cy="449.3" r="6.2" fill="#ffd28a" fill-opacity="0.29"/><path d="M134.4,174.6 Q163.8,198.5 148.3,214.3 Q126.4,211.6 134.4,174.6 Z M134.4,174.6 Q120.7,209.9 100.9,200.1 Q96.7,178.4 134.4,174.6 Z M134.4,174.6 Q96.5,172.5 99.7,150.6 Q119.1,139.9 134.4,174.6 Z M134.4,174.6 Q124.6,137.9 146.4,134.2 Q162.6,149.3 134.4,174.6 Z M134.4,174.6 Q166.2,154.0 176.4,173.6 Q167.1,193.6 134.4,174.6 Z" fill="#ff7aa8" fill-opacity="0.34"/><circle cx="134.4" cy="174.6" r="7.6" fill="#ffd28a" fill-opacity="0.31"/><path d="M932.2,322.1 Q963.4,334.4 954.6,351.8 Q935.4,355.5 932.2,322.1 Z M932.2,322.1 Q930.2,355.6 910.8,352.6 Q901.4,335.5 932.2,322.1 Z M932.2,322.1 Q899.7,330.5 896.5,311.2 Q909.9,297.0 932.2,322.1 Z M932.2,322.1 Q914.1,293.8 931.5,284.8 Q949.2,293.2 932.2,322.1 Z M932.2,322.1 Q953.5,296.2 967.4,309.9 Q964.9,329.3 932.2,322.1 Z" fill="#ff7aa8" fill-opacity="0.29"/><circle cx="932.2" cy="322.1" r="6.7" fill="#ffd28a" fill-opacity="0.26"/><path d="M113.7,104.3 Q95.6,113.6 91.2,102.6 Q97.2,92.4 113.7,104.3 Z M113.7,104.3 Q99.3,90.0 108.4,82.4 Q119.9,85.0 113.7,104.3 Z M113.7,104.3 Q122.9,86.2 132.9,92.5 Q134.0,104.3 113.7,104.3 Z M113.7,104.3 Q133.8,107.5 130.9,119.0 Q120.0,123.6 113.7,104.3 Z M113.7,104.3 Q116.9,124.4 105.1,125.2 Q97.3,116.3 113.7,104.3 Z" fill="#ff7aa8" fill-opacity="0.37"/><circle cx="113.7" cy="104.3" r="4.1" fill="#ffd28a" fill-opacity="0.33"/><path d="M816.5,927.7 Q833.6,912.6 841.4,923.4 Q837.6,936.1 816.5,927.7 Z M816.5,927.7 Q836.1,939.3 828.3,950.0 Q815.0,950.4 816.5,927.7 Z M816.5,927.7 Q811.5,949.9 798.9,945.8 Q794.5,933.3 816.5,927.7 Z M816.5,927.7 Q793.8,929.8 793.8,916.5 Q804.3,908.4 816.5,927.7 Z M816.5,927.7 Q807.5,906.8 820.1,902.7 Q831.0,910.2 816.5,927.7 Z" fill="#ff7aa8" fill-opacity="0.24"/><circle cx="816.5" cy="927.7" r="4.5" fill="#ffd28a" fill-opacity="0.22"/><path d="M1344.3,758.7 Q1362.6,736.8 1374.3,748.6 Q1372.1,765.0 1344.3,758.7 Z M1344.3,758.7 Q1370.8,769.3 1363.3,784.1 Q1346.9,787.1 1344.3,758.7 Z M1344.3,758.7 Q1342.5,787.1 1326.1,784.5 Q1318.2,769.9 1344.3,758.7 Z M1344.3,758.7 Q1316.8,765.7 1314.1,749.3 Q1325.6,737.3 1344.3,758.7 Z M1344.3,758.7 Q1329.2,734.6 1343.9,727.1 Q1358.9,734.3 1344.3,758.7 Z" fill="#ff7aa8" fill-opacity="0.30"/><circle cx="1344.3" cy="758.7" r="5.7" fill="#ffd28a" fill-opacity="0.27"/><path d="M232.5,736.2 Q243.0,704.2 261.1,712.0 Q265.8,731.1 232.5,736.2 Z M232.5,736.2 Q266.2,736.4 264.3,756.0 Q247.6,766.3 232.5,736.2 Z M232.5,736.2 Q242.8,768.3 223.6,772.6 Q208.5,760.0 232.5,736.2 Z M232.5,736.2 Q205.1,755.9 195.1,739.0 Q202.5,720.8 232.5,736.2 Z M232.5,736.2 Q205.3,716.3 218.3,701.5 Q237.9,702.9 232.5,736.2 Z" fill="#ff7aa8" fill-opacity="0.22"/><circle cx="232.5" cy="736.2" r="6.7" fill="#ffd28a" fill-opacity="0.20"/><path d="M953.3,827.2 Q982.5,816.1 987.4,833.7 Q976.4,848.2 953.3,827.2 Z M953.3,827.2 Q972.9,851.6 957.7,861.6 Q940.5,855.7 953.3,827.2 Z M953.3,827.2 Q936.2,853.4 921.9,842.1 Q922.2,823.9 953.3,827.2 Z M953.3,827.2 Q923.1,819.1 929.5,802.0 Q946.9,796.7 953.3,827.2 Z M953.3,827.2 Q951.7,796.0 969.9,796.8 Q980.4,811.7 953.3,827.2 Z" fill="#ff7aa8" fill-opacity="0.46"/><circle cx="953.3" cy="827.2" r="6.2" fill="#ffd28a" fill-opacity="0.41"/><path d="M689.4,182.8 Q675.0,209.6 660.2,199.8 Q659.0,182.1 689.4,182.8 Z M689.4,182.8 Q659.5,177.3 664.3,160.3 Q680.8,153.7 689.4,182.8 Z M689.4,182.8 Q685.4,152.7 703.1,152.0 Q714.5,165.6 689.4,182.8 Z M689.4,182.8 Q716.8,169.7 723.0,186.3 Q713.6,201.3 689.4,182.8 Z M689.4,182.8 Q710.4,204.9 696.5,215.9 Q679.3,211.5 689.4,182.8 Z" fill="#ff7aa8" fill-opacity="0.48"/><circle cx="689.4" cy="182.8" r="6.1" fill="#ffd28a" fill-opacity="0.43"/><path d="M830.1,161.4 Q840.1,137.6 853.3,144.7 Q855.8,159.5 830.1,161.4 Z M830.1,161.4 Q855.8,163.5 853.2,178.3 Q839.9,185.2 830.1,161.4 Z M830.1,161.4 Q836.1,186.4 821.2,188.5 Q810.5,178.0 830.1,161.4 Z M830.1,161.4 Q808.2,174.7 801.6,161.2 Q808.3,147.8 830.1,161.4 Z M830.1,161.4 Q810.6,144.6 821.4,134.1 Q836.3,136.4 830.1,161.4 Z" fill="#ff7aa8" fill-opacity="0.29"/><circle cx="830.1" cy="161.4" r="5.1" fill="#ffd28a" fill-opacity="0.26"/><path d="M458.9,448.0 Q426.3,427.8 439.8,410.0 Q462.1,409.8 458.9,448.0 Z M458.9,448.0 Q468.1,410.8 489.2,418.1 Q496.3,439.3 458.9,448.0 Z M458.9,448.0 Q497.2,445.2 496.8,467.6 Q478.8,480.8 458.9,448.0 Z M458.9,448.0 Q473.4,483.5 452.1,490.1 Q433.9,477.1 458.9,448.0 Z M458.9,448.0 Q429.7,472.8 416.8,454.5 Q423.6,433.2 458.9,448.0 Z" fill="#ff7aa8" fill-opacity="0.31"/><circle cx="458.9" cy="448.0" r="7.7" fill="#ffd28a" fill-opacity="0.28"/><path d="M552.7,821.0 Q530.1,815.7 534.4,802.9 Q547.2,798.5 552.7,821.0 Z M552.7,821.0 Q550.8,797.9 564.3,798.1 Q572.4,808.9 552.7,821.0 Z M552.7,821.0 Q574.0,812.1 578.1,825.0 Q570.3,836.0 552.7,821.0 Z M552.7,821.0 Q567.8,838.6 556.8,846.4 Q543.9,842.4 552.7,821.0 Z M552.7,821.0 Q540.6,840.8 529.8,832.7 Q529.6,819.2 552.7,821.0 Z" fill="#ff7aa8" fill-opacity="0.48"/><circle cx="552.7" cy="821.0" r="4.6" fill="#ffd28a" fill-opacity="0.43"/><path d="M333.6,372.9 Q359.5,375.3 356.7,390.3 Q343.1,397.1 333.6,372.9 Z M333.6,372.9 Q339.2,398.3 324.2,400.3 Q313.5,389.5 333.6,372.9 Z M333.6,372.9 Q311.1,386.1 304.6,372.4 Q311.6,358.9 333.6,372.9 Z M333.6,372.9 Q314.0,355.6 325.1,345.2 Q340.1,347.7 333.6,372.9 Z M333.6,372.9 Q343.9,349.0 357.3,356.3 Q359.6,371.3 333.6,372.9 Z" fill="#ff7aa8" fill-opacity="0.23"/><circle cx="333.6" cy="372.9" r="5.2" fill="#ffd28a" fill-opacity="0.21"/>
    <rect width="1536" height="1024" fill="url(#kHilite)"/>
  
</svg>
