<?xml version="1.0" encoding="UTF-8"?>
<svg xmlns="http://www.w3.org/2000/svg" width="1536" height="1024" viewBox="0 0 1536 1024">
<defs>
    <radialGradient id="pfBase" cx="50%" cy="50%" r="78%">
      <stop offset="0%" stop-color="#7a1414"/>
      <stop offset="100%" stop-color="#490c0c"/>
    </radialGradient>
    <radialGradient id="pfVignette" cx="50%" cy="50%" r="72%">
      <stop offset="60%" stop-color="#490c0c" stop-opacity="0"/>
      <stop offset="100%" stop-color="#490c0c" stop-opacity="0.55"/>
    </radialGradient>
    <radialGradient id="pfCalm" cx="50%" cy="50%" r="34%">
      <stop offset="0%" stop-color="#490c0c" stop-opacity="0.45"/>
      <stop offset="100%" stop-color="#490c0c" stop-opacity="0"/>
    </radialGradient>
  </defs>

    <rect width="1536" height="1024" fill="url(#pfBase)"/>
    <circle cx="38.0" cy="0.0" r="29.03" fill="#e8b14a" fill-opacity="0.09"/><circle cx="11.7" cy="36.2" r="29.03" fill="#e8b14a" fill-opacity="0.09"/><circle cx="-30.8" cy="22.3" r="29.03" fill="#e8b14a" fill-opacity="0.09"/><circle cx="-30.8" cy="-22.3" r="29.03" fill="#e8b14a" fill-opacity="0.09"/><circle cx="11.7" cy="-36.2" r="29.03" fill="#e8b14a" fill-opacity="0.09"/><circle cx="0.0" cy="0.0" r="38.02" fill="#977330" fill-opacity="0.07"/><circle cx="230.0" cy="0.0" r="29.03" fill="#e8b14a" fill-opacity="0.09"/><circle cx="203.7" cy="36.2" r="29.03" fill="#e8b14a" fill-opacity="0.09"/><circle cx="161.2" cy="22.3" r="29.03" fill="#e8b14a" fill-opacity="0.09"/><circle cx="161.2" cy="-22.3" r="29.03" fill="#e8b14a" fill-opacity="0.09"/><circle cx="203.7" cy="-36.2" r="29.03" fill="#e8b14a" fill-opacity="0.09"/><circle cx="192.0" cy="0.0" r="38.02" fill="#977330" fill-opacity="0.07"/><circle cx="422.0" cy="0.0" r="29.03" fill="#e8b14a" fill-opacity="0.09"/><circle cx="395.7" cy="36.2" r="29.03" fill="#e8b14a" fill-opacity="0.09"/><circle cx="353.2" cy="22.3" r="29.03" fill="#e8b14a" fill-opacity="0.09"/><circle cx="353.2" cy="-22.3" r="29.03" fill="#e8b14a" fill-opacity="0.09"/><circle cx="395.7" cy="-36.2" r="29.03" fill="#e8b14a" fill-opacity="0.09"/><circle cx="384.0" cy="0.0" r="38.02" fill="#977330" fill-opacity="0.07"/><circle cx="614.0" cy="0.0" r="29.03" fill="#e8b14a" fill-opacity="0.09"/><circle cx="587.7" cy="36.2" r="29.03" fill="#e8b14a" fill-opacity="0.09"/><circle cx="545.2" cy="22.3" r="29.03" fill="#e8b14a" fill-opacity="0.09"/><circle cx="545.2" cy="-22.3" r="29.03" fill="#e8b14a" fill-opacity="0.09"/><circle cx="587.7" cy="-36.2" r="29.03" fill="#e8b14a" fill-opacity="0.09"/><circle cx="576.0" cy="0.0" r="38.02" fill="#977330" fill-opacity="0.07"/><circle cx="806.0" cy="0.0" r="29.03" fill="#e8b14a" fill-opacity="0.09"/><circle cx="779.7" cy="36.2" r="29.03" fill="#e8b14a" fill-opacity="0.09"/><circle cx="737.2" cy="22.3" r="29.03" fill="#e8b14a" fill-opacity="0.09"/><circle cx="737.2" cy="-22.3" r="29.03" fill="#e8b14a" fill-opacity="0.09"/><circle cx="779.7" cy="-36.2" r="29.03" fill="#e8b14a" fill-opacity="0.09"/><circle cx="768.0" cy="0.0" r="38.02" fill="#977330" fill-opacity="0.07"/><circle cx="998.0" cy="0.0" r="29.03" fill="#e8b14a" fill-opacity="0.09"/><circle cx="971.7" cy="36.2" r="29.03" fill="#e8b14a" fill-opacity="0.09"/><circle cx="929.2" cy="22.3" r="29.03" fill="#e8b14a" fill-opacity="0.09"/><circle cx="929.2" cy="-22.3" r="29.03" fill="#e8b14a" fill-opacity="0.09"/><circle cx="971.7" cy="-36.2" r="29.03" fill="#e8b14a" fill-opacity="0.09"/><circle cx="960.0" cy="0.0" r="38.02" fill="#977330" fill-opacity="0.07"/><circle cx="1190.0" cy="0.0" r="29.03" fill="#e8b14a" fill-opacity="0.09"/><circle cx="1163.7" cy="36.2" r="29.03" fill="#e8b14a" fill-opacity="0.09"/><circle cx="1121.2" cy="22.3" r="29.03" fill="#e8b14a" fill-opacity="0.09"/><circle cx="1121.2" cy="-22.3" r="29.03" fill="#e8b14a" fill-opacity="0.09"/><circle cx="1163.7" cy="-36.2" r="29.03" fill="#e8b14a" fill-opacity="0.09"/><circle cx="1152.0" cy="0.0" r="38.02" fill="#977330" fill-opacity="0.07"/><circle cx="1382.0" cy="0.0" r="29.03" fill="#e8b14a" fill-opacity="0.09"/><circle cx="1355.7" cy="36.2" r="29.03" fill="#e8b14a" fill-opacity="0.09"/><circle cx="1313.2" cy="22.3" r="29.03" fill="#e8b14a" fill-opacity="0.09"/><circle cx="1313.2" cy="-22.3" r="29.03" fill="#e8b14a" fill-opacity="0.09"/><circle cx="1355.7" cy="-36.2" r="29.03" fill="#e8b14a" fill-opacity="0.09"/><circle cx="1344.0" cy="0.0" r="38.02" fill="#977330" fill-opacity="0.07"/><circle cx="1574.0" cy="0.0" r="29.03" fill="#e8b14a" fill-opacity="0.09"/><circle cx="1547.7" cy="36.2" r="29.03" fill="#e8b14a" fill-opacity="0.09"/><circle cx="1505.2" cy="22.3" r="29.03" fill="#e8b14a" fill-opacity="0.09"/><circle cx="1505.2" cy="-22.3" r="29.03" fill="#e8b14a" fill-opacity="0.09"/><circle cx="1547.7" cy="-36.2" r="29.03" fill="#e8b14a" fill-opacity="0.09"/><circle cx="1536.0" cy="0.0" r="38.02" fill="#977330" fill-opacity="0.07"/><circle cx="134.0" cy="192.0" r="29.03" fill="#e8b14a" fill-opacity="0.09"/><circle cx="107.7" cy="228.2" r="29.03" fill="#e8b14a" fill-opacity="0.09"/><circle cx="65.2" cy="214.3" r="29.03" fill="#e8b14a" fill-opacity="0.09"/><circle cx="65.2" cy="169.7" r="29.03" fill="#e8b14a" fill-opacity="0.09"/><circle cx="107.7" cy="155.8" r="29.03" fill="#e8b14a" fill-opacity="0.09"/><circle cx="96.0" cy="192.0" r="38.02" fill="#977330" fill-opacity="0.07"/><circle cx="326.0" cy="192.0" r="29.03" fill="#e8b14a" fill-opacity="0.09"/><circle cx="299.7" cy="228.2" r="29.03" fill="#e8b14a" fill-opacity="0.09"/><circle cx="257.2" cy="214.3" r="29.03" fill="#e8b14a" fill-opacity="0.09"/><circle cx="257.2" cy="169.7" r="29.03" fill="#e8b14a" fill-opacity="0.09"/><circle cx="299.7" cy="155.8" r="29.03" fill="#e8b14a" fill-opacity="0.09"/><circle cx="288.0" cy="192.0" r="38.02" fill="#977330" fill-opacity="0.07"/><circle cx="518.0" cy="192.0" r="29.03" fill="#e8b14a" fill-opacity="0.09"/><circle cx="491.7" cy="228.2" r="29.03" fill="#e8b14a" fill-opacity="0.09"/><circle cx="449.2" cy="214.3" r="29.03" fill="#e8b14a" fill-opacity="0.09"/><circle cx="449.2" cy="169.7" r="29.03" fill="#e8b14a" fill-opacity="0.09"/><circle cx="491.7" cy="155.8" r="29.03" fill="#e8b14a" fill-opacity="0.09"/><circle cx="480.0" cy="192.0" r="38.02" fill="#977330" fill-opacity="0.07"/><circle cx="710.0" cy="192.0" r="29.03" fill="#e8b14a" fill-opacity="0.09"/><circle cx="683.7" cy="228.2" r="29.03" fill="#e8b14a" fill-opacity="0.09"/><circle cx="641.2" cy="214.3" r="29.03" fill="#e8b14a" fill-opacity="0.09"/><circle cx="641.2" cy="169.7" r="29.03" fill="#e8b14a" fill-opacity="0.09"/><circle cx="683.7" cy="155.8" r="29.03" fill="#e8b14a" fill-opacity="0.09"/><circle cx="672.0" cy="192.0" r="38.02" fill="#977330" fill-opacity="0.07"/><circle cx="902.0" cy="192.0" r="29.03" fill="#e8b14a" fill-opacity="0.09"/><circle cx="875.7" cy="228.2" r="29.03" fill="#e8b14a" fill-opacity="0.09"/><circle cx="833.2" cy="214.3" r="29.03" fill="#e8b14a" fill-opacity="0.09"/><circle cx="833.2" cy="169.7" r="29.03" fill="#e8b14a" fill-opacity="0.09"/><circle cx="875.7" cy="155.8" r="29.03" fill="#e8b14a" fill-opacity="0.09"/><circle cx="864.0" cy="192.0" r="38.02" fill="#977330" fill-opacity="0.07"/><circle cx="1094.0" cy="192.0" r="29.03" fill="#e8b14a" fill-opacity="0.09"/><circle cx="1067.7" cy="228.2" r="29.03" fill="#e8b14a" fill-opacity="0.09"/><circle cx="1025.2" cy="214.3" r="29.03" fill="#e8b14a" fill-opacity="0.09"/><circle cx="1025.2" cy="169.7" r="29.03" fill="#e8b14a" fill-opacity="0.09"/><circle cx="1067.7" cy="155.8" r="29.03" fill="#e8b14a" fill-opacity="0.09"/><circle cx="1056.0" cy="192.0" r="38.02" fill="#977330" fill-opacity="0.07"/><circle cx="1286.0" cy="192.0" r="29.03" fill="#e8b14a" fill-opacity="0.09"/><circle cx="1259.7" cy="228.2" r="29.03" fill="#e8b14a" fill-opacity="0.09"/><circle cx="1217.2" cy="214.3" r="29.03" fill="#e8b14a" fill-opacity="0.09"/><circle cx="1217.2" cy="169.7" r="29.03" fill="#e8b14a" fill-opacity="0.09"/><circle cx="1259.7" cy="155.8" r="29.03" fill="#e8b14a" fill-opacity="0.09"/><circle cx="1248.0" cy="192.0" r="38.02" fill="#977330" fill-opacity="0.07"/><circle cx="1478.0" cy="192.0" r="29.03" fill="#e8b14a" fill-opacity="0.09"/><circle cx="1451.7" cy="228.2" r="29.03" fill="#e8b14a" fill-opacity="0.09"/><circle cx="1409.2" cy="214.3" r="29.03" fill="#e8b14a" fill-opacity="0.09"/><circle cx="1409.2" cy="169.7" r="29.03" fill="#e8b14a" fill-opacity="0.09"/><circle cx="1451.7" cy="155.8" r="29.03" fill="#e8b14a" fill-opacity="0.09"/><circle cx="1440.0" cy="192.0" r="38.02" fill="#977330" fill-opacity="0.07"/><circle cx="1670.0" cy="192.0" r="29.03" fill="#e8b14a" fill-opacity="0.09"/><circle cx="1643.7" cy="228.2" r="29.03" fill="#e8b14a" fill-opacity="0.09"/><circle cx="1601.2" cy="214.3" r="29.03" fill="#e8b14a" fill-opacity="0.09"/><circle cx="1601.2" cy="169.7" r="29.03" fill="#e8b14a" fill-opacity="0.09"/><circle cx="1643.7" cy="155.8" r="29.03" fill="#e8b14a" fill-opacity="0.09"/><circle cx="1632.0" cy="192.0" r="38.02" fill="#977330" fill-opacity="0.07"/><circle cx="38.0" cy="384.0" r="29.03" fill="#e8b14a" fill-opacity="0.09"/><circle cx="11.7" cy="420.2" r="29.03" fill="#e8b14a" fill-opacity="0.09"/><circle cx="-30.8" cy="406.3" r="29.03" fill="#e8b14a" fill-opacity="0.09"/><circle cx="-30.8" cy="361.7" r="29.03" fill="#e8b14a" fill-opacity="0.09"/><circle cx="11.7" cy="347.8" r="29.03" fill="#e8b14a" fill-opacity="0.09"/><circle cx="0.0" cy="384.0" r="38.02" fill="#977330" fill-opacity="0.07"/><circle cx="230.0" cy="384.0" r="29.03" fill="#e8b14a" fill-opacity="0.09"/><circle cx="203.7" cy="420.2" r="29.03" fill="#e8b14a" fill-opacity="0.09"/><circle cx="161.2" cy="406.3" r="29.03" fill="#e8b14a" fill-opacity="0.09"/><circle cx="161.2" cy="361.7" r="29.03" fill="#e8b14a" fill-opacity="0.09"/><circle cx="203.7" cy="347.8" r="29.03" fill="#e8b14a" fill-opacity="0.09"/><circle cx="192.0" cy="384.0" r="38.02" fill="#977330" fill-opacity="0.07"/><circle cx="422.0" cy="384.0" r="29.03" fill="#e8b14a" fill-opacity="0.09"/><circle cx="395.7" cy="420.2" r="29.03" fill="#e8b14a" fill-opacity="0.09"/><circle cx="353.2" cy="406.3" r="29.03" fill="#e8b14a" fill-opacity="0.09"/><circle cx="353.2" cy="361.7" r="29.03" fill="#e8b14a" fill-opacity="0.09"/><circle cx="395.7" cy="347.8" r="29.03" fill="#e8b14a" fill-opacity="0.09"/><circle cx="384.0" cy="384.0" r="38.02" fill="#977330" fill-opacity="0.07"/><circle cx="614.0" cy="384.0" r="29.03" fill="#e8b14a" fill-opacity="0.09"/><circle cx="587.7" cy="420.2" r="29.03" fill="#e8b14a" fill-opacity="0.09"/><circle cx="545.2" cy="406.3" r="29.03" fill="#e8b14a" fill-opacity="0.09"/><circle cx="545.2" cy="361.7" r="29.03" fill="#e8b14a" fill-opacity="0.09"/><circle cx="587.7" cy="347.8" r="29.03" fill="#e8b14a" fill-opacity="0.09"/><circle cx="576.0" cy="384.0" r="38.02" fill="#977330" fill-opacity="0.07"/><circle cx="806.0" cy="384.0" r="29.03" fill="#e8b14a" fill-opacity="0.09"/><circle cx="779.7" cy="420.2" r="29.03" fill="#e8b14a" fill-opacity="0.09"/><circle cx="737.2" cy="406.3" r="29.03" fill="#e8b14a" fill-opacity="0.09"/><circle cx="737.2" cy="361.7" r="29.03" fill="#e8b14a" fill-opacity="0.09"/><circle cx="779.7" cy="347.8" r="29.03" fill="#e8b14a" fill-opacity="0.09"/><circle cx="768.0" cy="384.0" r="38.02" fill="#977330" fill-opacity="0.07"/><circle cx="998.0" cy="384.0" r="29.03" fill="#e8b14a" fill-opacity="0.09"/><circle cx="971.7" cy="420.2" r="29.03" fill="#e8b14a" fill-opacity="0.09"/><circle cx="929.2" cy="406.3" r="29.03" fill="#e8b14a" fill-opacity="0.09"/><circle cx="929.2" cy="361.7" r="29.03" fill="#e8b14a" fill-opacity="0.09"/><circle cx="971.7" cy="347.8" r="29.03" fill="#e8b14a" fill-opacity="0.09"/><circle cx="960.0" cy="384.0" r="38.02" fill="#977330" fill-opacity="0.07"/><circle cx="1190.0" cy="384.0" r="29.03" fill="#e8b14a" fill-opacity="0.09"/><circle cx="1163.7" cy="420.2" r="29.03" fill="#e8b14a" fill-opacity="0.09"/><circle cx="1121.2" cy="406.3" r="29.03" fill="#e8b14a" fill-opacity="0.09"/><circle cx="1121.2" cy="361.7" r="29.03" fill="#e8b14a" fill-opacity="0.09"/><circle cx="1163.7" cy="347.8" r="29.03" fill="#e8b14a" fill-opacity="0.09"/><circle cx="1152.0" cy="384.0" r="38.02" fill="#977330" fill-opacity="0.07"/><circle cx="1382.0" cy="384.0" r="29.03" fill="#e8b14a" fill-opacity="0.09"/><circle cx="1355.7" cy="420.2" r="29.03" fill="#e8b14a" fill-opacity="0.09"/><circle cx="1313.2" cy="406.3" r="29.03" fill="#e8b14a" fill-opacity="0.09"/><circle cx="1313.2" cy="361.7" r="29.03" fill="#e8b14a" fill-opacity="0.09"/><circle cx="1355.7" cy="347.8" r="29.03" fill="#e8b14a" fill-opacity="0.09"/><circle cx="1344.0" cy="384.0" r="38.02" fill="#977330" fill-opacity="0.07"/><circle cx="1574.0" cy="384.0" r="29.03" fill="#e8b14a" fill-opacity="0.09"/><circle cx="1547.7" cy="420.2" r="29.03" fill="#e8b14a" fill-opacity="0.09"/><circle cx="1505.2" cy="406.3" r="29.03" fill="#e8b14a" fill-opacity="0.09"/><circle cx="1505.2" cy="361.7" r="29.03" fill="#e8b14a" fill-opacity="0.09"/><circle cx="1547.7" cy="347.8" r="29.03" fill="#e8b14a" fill-opacity="0.09"/><circle cx="1536.0" cy="384.0" r="38.02" fill="#977330" fill-opacity="0.07"/><circle cx="134.0" cy="576.0" r="29.03" fill="#e8b14a" fill-opacity="0.09"/><circle cx="107.7" cy="612.2" r="29.03" fill="#e8b14a" fill-opacity="0.09"/><circle cx="65.2" cy="598.3" r="29.03" fill="#e8b14a" fill-opacity="0.09"/><circle cx="65.2" cy="553.7" r="29.03" fill="#e8b14a" fill-opacity="0.09"/><circle cx="107.7" cy="539.8" r="29.03" fill="#e8b14a" fill-opacity="0.09"/><circle cx="96.0" cy="576.0" r="38.02" fill="#977330" fill-opacity="0.07"/><circle cx="326.0" cy="576.0" r="29.03" fill="#e8b14a" fill-opacity="0.09"/><circle cx="299.7" cy="612.2" r="29.03" fill="#e8b14a" fill-opacity="0.09"/><circle cx="257.2" cy="598.3" r="29.03" fill="#e8b14a" fill-opacity="0.09"/><circle cx="257.2" cy="553.7" r="29.03" fill="#e8b14a" fill-opacity="0.09"/><circle cx="299.7" cy="539.8" r="29.03" fill="#e8b14a" fill-opacity="0.09"/><circle cx="288.0" cy="576.0" r="38.02" fill="#977330" fill-opacity="0.07"/><circle cx="518.0" cy="576.0" r="29.03" fill="#e8b14a" fill-opacity="0.09"/><circle cx="491.7" cy="612.2" r="29.03" fill="#e8b14a" fill-opacity="0.09"/><circle cx="449.2" cy="598.3" r="29.03" fill="#e8b14a" fill-opacity="0.09"/><circle cx="449.2" cy="553.7" r="29.03" fill="#e8b14a" fill-opacity="0.09"/><circle cx="491.7" cy="539.8" r="29.03" fill="#e8b14a" fill-opacity="0.09"/><circle cx="480.0" cy="576.0" r="38.02" fill="#977330" fill-opacity="0.07"/><circle cx="710.0" cy="576.0" r="29.03" fill="#e8b14a" fill-opacity="0.09"/><circle cx="683.7" cy="612.2" r="29.03" fill="#e8b14a" fill-opacity="0.09"/><circle cx="641.2" cy="598.3" r="29.03" fill="#e8b14a" fill-opacity="0.09"/><circle cx="641.2" cy="553.7" r="29.03" fill="#e8b14a" fill-opacity="0.09"/><circle cx="683.7" cy="539.8" r="29.03" fill="#e8b14a" fill-opacity="0.09"/><circle cx="672.0" cy="576.0" r="38.02" fill="#977330" fill-opacity="0.07"/><circle cx="902.0" cy="576.0" r="29.03" fill="#e8b14a" fill-opacity="0.09"/><circle cx="875.7" cy="612.2" r="29.03" fill="#e8b14a" fill-opacity="0.09"/><circle cx="833.2" cy="598.3" r="29.03" fill="#e8b14a" fill-opacity="0.09"/><circle cx="833.2" cy="553.7" r="29.03" fill="#e8b14a" fill-opacity="0.09"/><circle cx="875.7" cy="539.8" r="29.03" fill="#e8b14a" fill-opacity="0.09"/><circle cx="864.0" cy="576.0" r="38.02" fill="#977330" fill-opacity="0.07"/><circle cx="1094.0" cy="576.0" r="29.03" fill="#e8b14a" fill-opacity="0.09"/><circle cx="1067.7" cy="612.2" r="29.03" fill="#e8b14a" fill-opacity="0.09"/><circle cx="1025.2" cy="598.3" r="29.03" fill="#e8b14a" fill-opacity="0.09"/><circle cx="1025.2" cy="553.7" r="29.03" fill="#e8b14a" fill-opacity="0.09"/><circle cx="1067.7" cy="539.8" r="29.03" fill="#e8b14a" fill-opacity="0.09"/><circle cx="1056.0" cy="576.0" r="38.02" fill="#977330" fill-opacity="0.07"/><circle cx="1286.0" cy="576.0" r="29.03" fill="#e8b14a" fill-opacity="0.09"/><circle cx="1259.7" cy="612.2" r="29.03" fill="#e8b14a" fill-opacity="0.09"/><circle cx="1217.2" cy="598.3" r="29.03" fill="#e8b14a" fill-opacity="0.09"/><circle cx="1217.2" cy="553.7" r="29.03" fill="#e8b14a" fill-opacity="0.09"/><circle cx="1259.7" cy="539.8" r="29.03" fill="#e8b14a" fill-opacity="0.09"/><circle cx="1248.0" cy="576.0" r="38.02" fill="#977330" fill-opacity="0.07"/><circle cx="1478.0" cy="576.0" r="29.03" fill="#e8b14a" fill-opacity="0.09"/><circle cx="1451.7" cy="612.2" r="29.03" fill="#e8b14a" fill-opacity="0.09"/><circle cx="1409.2" cy="598.3" r="29.03" fill="#e8b14a" fill-opacity="0.09"/><circle cx="1409.2" cy="553.7" r="29.03" fill="#e8b14a" fill-opacity="0.09"/><circle cx="1451.7" cy="539.8" r="29.03" fill="#e8b14a" fill-opacity="0.09"/><circle cx="1440.0" cy="576.0" r="38.02" fill="#977330" fill-opacity="0.07"/><circle cx="1670.0" cy="576.0" r="29.03" fill="#e8b14a" fill-opacity="0.09"/><circle cx="1643.7" cy="612.2" r="29.03" fill="#e8b14a" fill-opacity="0.09"/><circle cx="1601.2" cy="598.3" r="29.03" fill="#e8b14a" fill-opacity="0.09"/><circle cx="1601.2" cy="553.7" r="29.03" fill="#e8b14a" fill-opacity="0.09"/><circle cx="1643.7" cy="539.8" r="29.03" fill="#e8b14a" fill-opacity="0.09"/><circle cx="1632.0" cy="576.0" r="38.02" fill="#977330" fill-opacity="0.07"/><circle cx="38.0" cy="768.0" r="29.03" fill="#e8b14a" fill-opacity="0.09"/><circle cx="11.7" cy="804.2" r="29.03" fill="#e8b14a" fill-opacity="0.09"/><circle cx="-30.8" cy="790.3" r="29.03" fill="#e8b14a" fill-opacity="0.09"/><circle cx="-30.8" cy="745.7" r="29.03" fill="#e8b14a" fill-opacity="0.09"/><circle cx="11.7" cy="731.8" r="29.03" fill="#e8b14a" fill-opacity="0.09"/><circle cx="0.0" cy="768.0" r="38.02" fill="#977330" fill-opacity="0.07"/><circle cx="230.0" cy="768.0" r="29.03" fill="#e8b14a" fill-opacity="0.09"/><circle cx="203.7" cy="804.2" r="29.03" fill="#e8b14a" fill-opacity="0.09"/><circle cx="161.2" cy="790.3" r="29.03" fill="#e8b14a" fill-opacity="0.09"/><circle cx="161.2" cy="745.7" r="29.03" fill="#e8b14a" fill-opacity="0.09"/><circle cx="203.7" cy="731.8" r="29.03" fill="#e8b14a" fill-opacity="0.09"/><circle cx="192.0" cy="768.0" r="38.02" fill="#977330" fill-opacity="0.07"/><circle cx="422.0" cy="768.0" r="29.03" fill="#e8b14a" fill-opacity="0.09"/><circle cx="395.7" cy="804.2" r="29.03" fill="#e8b14a" fill-opacity="0.09"/><circle cx="353.2" cy="790.3" r="29.03" fill="#e8b14a" fill-opacity="0.09"/><circle cx="353.2" cy="745.7" r="29.03" fill="#e8b14a" fill-opacity="0.09"/><circle cx="395.7" cy="731.8" r="29.03" fill="#e8b14a" fill-opacity="0.09"/><circle cx="384.0" cy="768.0" r="38.02" fill="#977330" fill-opacity="0.07"/><circle cx="614.0" cy="768.0" r="29.03" fill="#e8b14a" fill-opacity="0.09"/><circle cx="587.7" cy="804.2" r="29.03" fill="#e8b14a" fill-opacity="0.09"/><circle cx="545.2" cy="790.3" r="29.03" fill="#e8b14a" fill-opacity="0.09"/><circle cx="545.2" cy="745.7" r="29.03" fill="#e8b14a" fill-opacity="0.09"/><circle cx="587.7" cy="731.8" r="29.03" fill="#e8b14a" fill-opacity="0.09"/><circle cx="576.0" cy="768.0" r="38.02" fill="#977330" fill-opacity="0.07"/><circle cx="806.0" cy="768.0" r="29.03" fill="#e8b14a" fill-opacity="0.09"/><circle cx="779.7" cy="804.2" r="29.03" fill="#e8b14a" fill-opacity="0.09"/><circle cx="737.2" cy="790.3" r="29.03" fill="#e8b14a" fill-opacity="0.09"/><circle cx="737.2" cy="745.7" r="29.03" fill="#e8b14a" fill-opacity="0.09"/><circle cx="779.7" cy="731.8" r="29.03" fill="#e8b14a" fill-opacity="0.09"/><circle cx="768.0" cy="768.0" r="38.02" fill="#977330" fill-opacity="0.07"/><circle cx="998.0" cy="768.0" r="29.03" fill="#e8b14a" fill-opacity="0.09"/><circle cx="971.7" cy="804.2" r="29.03" fill="#e8b14a" fill-opacity="0.09"/><circle cx="929.2" cy="790.3" r="29.03" fill="#e8b14a" fill-opacity="0.09"/><circle cx="929.2" cy="745.7" r="29.03" fill="#e8b14a" fill-opacity="0.09"/><circle cx="971.7" cy="731.8" r="29.03" fill="#e8b14a" fill-opacity="0.09"/><circle cx="960.0" cy="768.0" r="38.02" fill="#977330" fill-opacity="0.07"/><circle cx="1190.0" cy="768.0" r="29.03" fill="#e8b14a" fill-opacity="0.09"/><circle cx="1163.7" cy="804.2" r="29.03" fill="#e8b14a" fill-opacity="0.09"/><circle cx="1121.2" cy="790.3" r="29.03" fill="#e8b14a" fill-opacity="0.09"/><circle cx="1121.2" cy="745.7" r="29.03" fill="#e8b14a" fill-opacity="0.09"/><circle cx="1163.7" cy="731.8" r="29.03" fill="#e8b14a" fill-opacity="0.09"/><circle cx="1152.0" cy="768.0" r="38.02" fill="#977330" fill-opacity="0.07"/><circle cx="1382.0" cy="768.0" r="29.03" fill="#e8b14a" fill-opacity="0.09"/><circle cx="1355.7" cy="804.2" r="29.03" fill="#e8b14a" fill-opacity="0.09"/><circle cx="1313.2" cy="790.3" r="29.03" fill="#e8b14a" fill-opacity="0.09"/><circle cx="1313.2" cy="745.7" r="29.03" fill="#e8b14a" fill-opacity="0.09"/><circle cx="1355.7" cy="731.8" r="29.03" fill="#e8b14a" fill-opacity="0.09"/><circle cx="1344.0" cy="768.0" r="38.02" fill="#977330" fill-opacity="0.07"/><circle cx="1574.0" cy="768.0" r="29.03" fill="#e8b14a" fill-opacity="0.09"/><circle cx="1547.7" cy="804.2" r="29.03" fill="#e8b14a" fill-opacity="0.09"/><circle cx="1505.2" cy="790.3" r="29.03" fill="#e8b14a" fill-opacity="0.09"/><circle cx="1505.2" cy="745.7" r="29.03" fill="#e8b14a" fill-opacity="0.09"/><circle cx="1547.7" cy="731.8" r="29.03" fill="#e8b14a" fill-opacity="0.09"/><circle cx="1536.0" cy="768.0" r="38.02" fill="#977330" fill-opacity="0.07"/><circle cx="134.0" cy="960.0" r="29.03" fill="#e8b14a" fill-opacity="0.09"/><circle cx="107.7" cy="996.2" r="29.03" fill="#e8b14a" fill-opacity="0.09"/><circle cx="65.2" cy="982.3" r="29.03" fill="#e8b14a" fill-opacity="0.09"/><circle cx="65.2" cy="937.7" r="29.03" fill="#e8b14a" fill-opacity="0.09"/><circle cx="107.7" cy="923.8" r="29.03" fill="#e8b14a" fill-opacity="0.09"/><circle cx="96.0" cy="960.0" r="38.02" fill="#977330" fill-opacity="0.07"/><circle cx="326.0" cy="960.0" r="29.03" fill="#e8b14a" fill-opacity="0.09"/><circle cx="299.7" cy="996.2" r="29.03" fill="#e8b14a" fill-opacity="0.09"/><circle cx="257.2" cy="982.3" r="29.03" fill="#e8b14a" fill-opacity="0.09"/><circle cx="257.2" cy="937.7" r="29.03" fill="#e8b14a" fill-opacity="0.09"/><circle cx="299.7" cy="923.8" r="29.03" fill="#e8b14a" fill-opacity="0.09"/><circle cx="288.0" cy="960.0" r="38.02" fill="#977330" fill-opacity="0.07"/><circle cx="518.0" cy="960.0" r="29.03" fill="#e8b14a" fill-opacity="0.09"/><circle cx="491.7" cy="996.2" r="29.03" fill="#e8b14a" fill-opacity="0.09"/><circle cx="449.2" cy="982.3" r="29.03" fill="#e8b14a" fill-opacity="0.09"/><circle cx="449.2" cy="937.7" r="29.03" fill="#e8b14a" fill-opacity="0.09"/><circle cx="491.7" cy="923.8" r="29.03" fill="#e8b14a" fill-opacity="0.09"/><circle cx="480.0" cy="960.0" r="38.02" fill="#977330" fill-opacity="0.07"/><circle cx="710.0" cy="960.0" r="29.03" fill="#e8b14a" fill-opacity="0.09"/><circle cx="683.7" cy="996.2" r="29.03" fill="#e8b14a" fill-opacity="0.09"/><circle cx="641.2" cy="982.3" r="29.03" fill="#e8b14a" fill-opacity="0.09"/><circle cx="641.2" cy="937.7" r="29.03" fill="#e8b14a" fill-opacity="0.09"/><circle cx="683.7" cy="923.8" r="29.03" fill="#e8b14a" fill-opacity="0.09"/><circle cx="672.0" cy="960.0" r="38.02" fill="#977330" fill-opacity="0.07"/><circle cx="902.0" cy="960.0" r="29.03" fill="#e8b14a" fill-opacity="0.09"/><circle cx="875.7" cy="996.2" r="29.03" fill="#e8b14a" fill-opacity="0.09"/><circle cx="833.2" cy="982.3" r="29.03" fill="#e8b14a" fill-opacity="0.09"/><circle cx="833.2" cy="937.7" r="29.03" fill="#e8b14a" fill-opacity="0.09"/><circle cx="875.7" cy="923.8" r="29.03" fill="#e8b14a" fill-opacity="0.09"/><circle cx="864.0" cy="960.0" r="38.02" fill="#977330" fill-opacity="0.07"/><circle cx="1094.0" cy="960.0" r="29.03" fill="#e8b14a" fill-opacity="0.09"/><circle cx="1067.7" cy="996.2" r="29.03" fill="#e8b14a" fill-opacity="0.09"/><circle cx="1025.2" cy="982.3" r="29.03" fill="#e8b14a" fill-opacity="0.09"/><circle cx="1025.2" cy="937.7" r="29.03" fill="#e8b14a" fill-opacity="0.09"/><circle cx="1067.7" cy="923.8" r="29.03" fill="#e8b14a" fill-opacity="0.09"/><circle cx="1056.0" cy="960.0" r="38.02" fill="#977330" fill-opacity="0.07"/><circle cx="1286.0" cy="960.0" r="29.03" fill="#e8b14a" fill-opacity="0.09"/><circle cx="1259.7" cy="996.2" r="29.03" fill="#e8b14a" fill-opacity="0.09"/><circle cx="1217.2" cy="982.3" r="29.03" fill="#e8b14a" fill-opacity="0.09"/><circle cx="1217.2" cy="937.7" r="29.03" fill="#e8b14a" fill-opacity="0.09"/><circle cx="1259.7" cy="923.8" r="29.03" fill="#e8b14a" fill-opacity="0.09"/><circle cx="1248.0" cy="960.0" r="38.02" fill="#977330" fill-opacity="0.07"/><circle cx="1478.0" cy="960.0" r="29.03" fill="#e8b14a" fill-opacity="0.09"/><circle cx="1451.7" cy="996.2" r="29.03" fill="#e8b14a" fill-opacity="0.09"/><circle cx="1409.2" cy="982.3" r="29.03" fill="#e8b14a" fill-opacity="0.09"/><circle cx="1409.2" cy="937.7" r="29.03" fill="#e8b14a" fill-opacity="0.09"/><circle cx="1451.7" cy="923.8" r="29.03" fill="#e8b14a" fill-opacity="0.09"/><circle cx="1440.0" cy="960.0" r="38.02" fill="#977330" fill-opacity="0.07"/><circle cx="1670.0" cy="960.0" r="29.03" fill="#e8b14a" fill-opacity="0.09"/><circle cx="1643.7" cy="996.2" r="29.03" fill="#e8b14a" fill-opacity="0.09"/><circle cx="1601.2" cy="982.3" r="29.03" fill="#e8b14a" fill-opacity="0.09"/><circle cx="1601.2" cy="937.7" r="29.03" fill="#e8b14a" fill-opacity="0.09"/><circle cx="1643.7" cy="923.8" r="29.03" fill="#e8b14a" fill-opacity="0.09"/><circle cx="1632.0" cy="960.0" r="38.02" fill="#977330" fill-opacity="0.07"/><circle cx="38.0" cy="1152.0" r="29.03" fill="#e8b14a" fill-opacity="0.09"/><circle cx="11.7" cy="1188.2" r="29.03" fill="#e8b14a" fill-opacity="0.09"/><circle cx="-30.8" cy="1174.3" r="29.03" fill="#e8b14a" fill-opacity="0.09"/><circle cx="-30.8" cy="1129.7" r="29.03" fill="#e8b14a" fill-opacity="0.09"/><circle cx="11.7" cy="1115.8" r="29.03" fill="#e8b14a" fill-opacity="0.09"/><circle cx="0.0" cy="1152.0" r="38.02" fill="#977330" fill-opacity="0.07"/><circle cx="230.0" cy="1152.0" r="29.03" fill="#e8b14a" fill-opacity="0.09"/><circle cx="203.7" cy="1188.2" r="29.03" fill="#e8b14a" fill-opacity="0.09"/><circle cx="161.2" cy="1174.3" r="29.03" fill="#e8b14a" fill-opacity="0.09"/><circle cx="161.2" cy="1129.7" r="29.03" fill="#e8b14a" fill-opacity="0.09"/><circle cx="203.7" cy="1115.8" r="29.03" fill="#e8b14a" fill-opacity="0.09"/><circle cx="192.0" cy="1152.0" r="38.02" fill="#977330" fill-opacity="0.07"/><circle cx="422.0" cy="1152.0" r="29.03" fill="#e8b14a" fill-opacity="0.09"/><circle cx="395.7" cy="1188.2" r="29.03" fill="#e8b14a" fill-opacity="0.09"/><circle cx="353.2" cy="1174.3" r="29.03" fill="#e8b14a" fill-opacity="0.09"/><circle cx="353.2" cy="1129.7" r="29.03" fill="#e8b14a" fill-opacity="0.09"/><circle cx="395.7" cy="1115.8" r="29.03" fill="#e8b14a" fill-opacity="0.09"/><circle cx="384.0" cy="1152.0" r="38.02" fill="#977330" fill-opacity="0.07"/><circle cx="614.0" cy="1152.0" r="29.03" fill="#e8b14a" fill-opacity="0.09"/><circle cx="587.7" cy="1188.2" r="29.03" fill="#e8b14a" fill-opacity="0.09"/><circle cx="545.2" cy="1174.3" r="29.03" fill="#e8b14a" fill-opacity="0.09"/><circle cx="545.2" cy="1129.7" r="29.03" fill="#e8b14a" fill-opacity="0.09"/><circle cx="587.7" cy="1115.8" r="29.03" fill="#e8b14a" fill-opacity="0.09"/><circle cx="576.0" cy="1152.0" r="38.02" fill="#977330" fill-opacity="0.07"/><circle cx="806.0" cy="1152.0" r="29.03" fill="#e8b14a" fill-opacity="0.09"/><circle cx="779.7" cy="1188.2" r="29.03" fill="#e8b14a" fill-opacity="0.09"/><circle cx="737.2" cy="1174.3" r="29.03" fill="#e8b14a" fill-opacity="0.09"/><circle cx="737.2" cy="1129.7" r="29.03" fill="#e8b14a" fill-opacity="0.09"/><circle cx="779.7" cy="1115.8" r="29.03" fill="#e8b14a" fill-opacity="0.09"/><circle cx="768.0" cy="1152.0" r="38.02" fill="#977330" fill-opacity="0.07"/><circle cx="998.0" cy="1152.0" r="29.03" fill="#e8b14a" fill-opacity="0.09"/><circle cx="971.7" cy="1188.2" r="29.03" fill="#e8b14a" fill-opacity="0.09"/><circle cx="929.2" cy="1174.3" r="29.03" fill="#e8b14a" fill-opacity="0.09"/><circle cx="929.2" cy="1129.7" r="29.03" fill="#e8b14a" fill-opacity="0.09"/><circle cx="971.7" cy="1115.8" r="29.03" fill="#e8b14a" fill-opacity="0.09"/><circle cx="960.0" cy="1152.0" r="38.02" fill="#977330" fill-opacity="0.07"/><circle cx="1190.0" cy="1152.0" r="29.03" fill="#e8b14a" fill-opacity="0.09"/><circle cx="1163.7" cy="1188.2" r="29.03" fill="#e8b14a" fill-opacity="0.09"/><circle cx="1121.2" cy="1174.3" r="29.03" fill="#e8b14a" fill-opacity="0.09"/><circle cx="1121.2" cy="1129.7" r="29.03" fill="#e8b14a" fill-opacity="0.09"/><circle cx="1163.7" cy="1115.8" r="29.03" fill="#e8b14a" fill-opacity="0.09"/><circle cx="1152.0" cy="1152.0" r="38.02" fill="#977330" fill-opacity="0.07"/><circle cx="1382.0" cy="1152.0" r="29.03" fill="#e8b14a" fill-opacity="0.09"/><circle cx="1355.7" cy="1188.2" r="29.03" fill="#e8b14a" fill-opacity="0.09"/><circle cx="1313.2" cy="1174.3" r="29.03" fill="#e8b14a" fill-opacity="0.09"/><circle cx="1313.2" cy="1129.7" r="29.03" fill="#e8b14a" fill-opacity="0.09"/><circle cx="1355.7" cy="1115.8" r="29.03" fill="#e8b14a" fill-opacity="0.09"/><circle cx="1344.0" cy="1152.0" r="38.02" fill="#977330" fill-opacity="0.07"/><circle cx="1574.0" cy="1152.0" r="29.03" fill="#e8b14a" fill-opacity="0.09"/><circle cx="1547.7" cy="1188.2" r="29.03" fill="#e8b14a" fill-opacity="0.09"/><circle cx="1505.2" cy="1174.3" r="29.03" fill="#e8b14a" fill-opacity="0.09"/><circle cx="1505.2" cy="1129.7" r="29.03" fill="#e8b14a" fill-opacity="0.09"/><circle cx="1547.7" cy="1115.8" r="29.03" fill="#e8b14a" fill-opacity="0.09"/><circle cx="1536.0" cy="1152.0" r="38.02" fill="#977330" fill-opacity="0.07"/>
    <circle cx="1134.3" cy="629.2" r="1.41" fill="#f3d27a" fill-opacity="0.47"/><circle cx="315.5" cy="783.5" r="2.88" fill="#f3d27a" fill-opacity="0.34"/><circle cx="1446.1" cy="440.1" r="2.10" fill="#f3d27a" fill-opacity="0.56"/><circle cx="365.5" cy="191.5" r="2.26" fill="#f3d27a" fill-opacity="0.40"/><circle cx="1154.7" cy="194.8" r="2.11" fill="#f3d27a" fill-opacity="0.43"/><circle cx="722.7" cy="345.1" r="2.21" fill="#f3d27a" fill-opacity="0.35"/><circle cx="977.6" cy="708.0" r="1.53" fill="#f3d27a" fill-opacity="0.41"/><circle cx="1137.2" cy="19.7" r="1.48" fill="#f3d27a" fill-opacity="0.52"/><circle cx="310.5" cy="325.3" r="1.54" fill="#f3d27a" fill-opacity="0.35"/><circle cx="1073.8" cy="477.1" r="2.25" fill="#f3d27a" fill-opacity="0.37"/><circle cx="274.2" cy="964.0" r="2.94" fill="#f3d27a" fill-opacity="0.36"/><circle cx="495.3" cy="366.0" r="2.31" fill="#f3d27a" fill-opacity="0.54"/><circle cx="377.0" cy="376.6" r="2.04" fill="#f3d27a" fill-opacity="0.47"/><circle cx="1227.6" cy="470.9" r="1.84" fill="#f3d27a" fill-opacity="0.38"/><circle cx="1179.6" cy="592.7" r="2.61" fill="#f3d27a" fill-opacity="0.46"/><circle cx="1145.7" cy="386.4" r="2.21" fill="#f3d27a" fill-opacity="0.48"/><circle cx="109.1" cy="489.8" r="2.77" fill="#f3d27a" fill-opacity="0.50"/><circle cx="743.5" cy="235.4" r="1.76" fill="#f3d27a" fill-opacity="0.38"/><circle cx="790.6" cy="714.3" r="1.76" fill="#f3d27a" fill-opacity="0.51"/><circle cx="1334.3" cy="580.5" r="2.91" fill="#f3d27a" fill-opacity="0.57"/><circle cx="826.0" cy="264.2" r="2.43" fill="#f3d27a" fill-opacity="0.46"/><circle cx="1335.8" cy="749.9" r="1.52" fill="#f3d27a" fill-opacity="0.48"/><circle cx="546.3" cy="680.2" r="1.24" fill="#f3d27a" fill-opacity="0.34"/><circle cx="554.1" cy="502.0" r="2.53" fill="#f3d27a" fill-opacity="0.52"/>
    <rect width="1536" height="1024" fill="url(#pfVignette)"/>
    <rect width="1536" height="1024" fill="url(#pfCalm)"/>
  
</svg>
